M48
; DRILL file {KiCad 9.0.6} date 2025-11-30T17:52:51+0200
; FORMAT={-:-/ absolute / metric / decimal}
; #@! TF.CreationDate,2025-11-30T17:52:51+02:00
; #@! TF.GenerationSoftware,Kicad,Pcbnew,9.0.6
; #@! TF.FileFunction,Plated,1,4,PTH
FMAT,2
METRIC
; #@! TA.AperFunction,Plated,PTH,ViaDrill
T1C0.300
; #@! TA.AperFunction,Plated,PTH,ComponentDrill
T2C0.350
; #@! TA.AperFunction,Plated,PTH,ComponentDrill
T3C0.600
; #@! TA.AperFunction,Plated,PTH,ComponentDrill
T4C1.000
%
G90
G05
T1
X99.35Y-126.1
X99.5Y-145.75
X99.7Y-137.65
X104.15Y-142.65
X105.35Y-156.5
X105.85Y-135.65
X105.95Y-144.45
X106.45Y-122.35
X107.0Y-117.95
X107.05Y-139.95
X107.65Y-115.2
X107.85Y-127.25
X107.95Y-129.175
X108.125Y-124.5
X108.45Y-158.4
X108.5Y-142.25
X108.5Y-164.0
X108.6Y-102.95
X108.6Y-106.85
X108.7Y-133.0
X110.0Y-136.5
X110.55Y-129.95
X110.8Y-132.45
X112.3Y-112.4
X112.559Y-134.841
X114.25Y-148.05
X114.7Y-143.4
X114.962Y-131.387
X115.0Y-135.2
X115.19Y-123.85
X115.4Y-138.2
X115.75Y-133.675
X116.0Y-139.241
X116.1Y-142.05
X116.4Y-145.1
X116.4Y-164.1
X116.959Y-139.341
X119.15Y-118.125
X119.25Y-112.6
X119.3Y-142.25
X119.45Y-128.425
X119.45Y-139.35
X119.5Y-145.7
X119.7Y-131.95
X119.85Y-135.65
X119.85Y-148.15
X120.2Y-143.1
X120.35Y-144.95
X120.4Y-130.35
X120.45Y-132.5
X120.8Y-147.65
X120.85Y-124.65
X121.0Y-145.7
X121.1Y-141.25
X121.1Y-142.525
X121.15Y-136.15
X121.15Y-143.675
X121.6Y-141.9
X121.7Y-129.9
X121.8Y-151.8
X122.2Y-127.2
X122.3Y-129.05
X122.35Y-139.55
X122.425Y-116.925
X122.55Y-142.0
X122.6Y-120.35
X123.6Y-150.7
X123.85Y-155.75
X124.9Y-146.5
X124.911Y-143.05
X125.0Y-131.95
X125.1Y-135.35
X125.2Y-141.85
X125.6Y-136.24
X125.983Y-141.574
X126.5Y-136.24
X127.4Y-141.725
X127.425Y-149.675
X127.65Y-152.6
X127.65Y-154.55
X128.95Y-152.55
X129.0Y-153.55
X129.625Y-146.25
X129.75Y-143.025
X130.0Y-135.35
X130.1Y-132.05
X131.3Y-147.35
X131.56Y-117.84
X131.56Y-119.94
X131.7Y-135.45
X131.9Y-155.0
X132.66Y-124.04
X133.1Y-126.15
X133.1Y-128.05
X133.1Y-132.75
X133.2Y-148.0
X133.61Y-155.25
X134.06Y-114.44
X134.1Y-148.75
X134.36Y-117.74
X134.9Y-132.35
X135.0Y-126.15
X135.0Y-127.95
X135.7Y-149.3
X136.35Y-142.75
X136.9Y-125.35
X137.475Y-149.7
X137.6Y-152.25
X137.6Y-153.55
X137.96Y-118.14
X138.26Y-123.54
X138.46Y-121.24
X138.802Y-138.75
X138.9Y-147.35
X139.25Y-116.04
X140.75Y-153.7
X141.65Y-147.1
X142.088Y-135.55
X143.45Y-102.75
X143.45Y-106.2
X143.95Y-157.8
X144.2Y-115.5
X144.8Y-121.2
X144.85Y-130.9
X144.85Y-138.1
X144.9Y-143.3
X144.9Y-147.15
X145.15Y-153.7
X147.45Y-156.45
X147.8Y-111.2
X147.9Y-147.9
X152.7Y-134.15
X152.8Y-121.85
X153.05Y-141.25
X153.35Y-147.35
X153.35Y-152.4
X153.35Y-156.1
T2
X126.087Y-142.75
X126.087Y-144.025
X126.087Y-145.3
X127.362Y-142.75
X127.362Y-144.025
X127.362Y-145.3
X128.637Y-142.75
X128.637Y-144.025
X128.637Y-145.3
T4
X101.8Y-108.58
X101.8Y-111.12
X101.8Y-113.66
X101.8Y-116.2
X101.8Y-118.74
X101.8Y-121.28
X101.8Y-123.82
X101.8Y-126.36
X101.8Y-128.9
X101.8Y-131.44
X101.8Y-133.98
X101.8Y-136.52
X101.8Y-139.06
X101.8Y-141.6
X101.8Y-144.14
X101.8Y-146.68
X101.8Y-149.22
X101.8Y-151.76
X101.8Y-154.3
X134.41Y-158.875
X136.95Y-158.875
X150.37Y-108.51
X150.37Y-111.05
X150.37Y-113.59
X150.37Y-116.13
X150.37Y-118.67
X150.37Y-121.21
X150.37Y-123.75
X150.37Y-126.29
X150.37Y-128.83
X150.37Y-131.37
X150.37Y-133.91
X150.37Y-136.45
X150.37Y-138.99
X150.37Y-141.53
X150.37Y-144.07
X150.37Y-146.61
X150.37Y-149.15
X150.37Y-151.69
X150.37Y-154.23
T3
G00X121.96Y-158.82
M15
G01X121.96Y-159.92
M16
G05
G00X121.96Y-163.15
M15
G01X121.96Y-163.95
M16
G05
G00X130.6Y-158.82
M15
G01X130.6Y-159.92
M16
G05
G00X130.6Y-163.15
M15
G01X130.6Y-163.95
M16
G05
M30
