%TF.GenerationSoftware,KiCad,Pcbnew,9.0.6*%
%TF.CreationDate,2025-11-29T10:37:21+02:00*%
%TF.ProjectId,laserboard,6c617365-7262-46f6-9172-642e6b696361,rev?*%
%TF.SameCoordinates,Original*%
%TF.FileFunction,Copper,L3,Inr*%
%TF.FilePolarity,Positive*%
%FSLAX46Y46*%
G04 Gerber Fmt 4.6, Leading zero omitted, Abs format (unit mm)*
G04 Created by KiCad (PCBNEW 9.0.6) date 2025-11-29 10:37:21*
%MOMM*%
%LPD*%
G01*
G04 APERTURE LIST*
%TA.AperFunction,ComponentPad*%
%ADD10R,1.700000X1.700000*%
%TD*%
%TA.AperFunction,ComponentPad*%
%ADD11C,1.700000*%
%TD*%
%TA.AperFunction,ComponentPad*%
%ADD12C,0.600000*%
%TD*%
%TA.AperFunction,HeatsinkPad*%
%ADD13O,1.000000X2.100000*%
%TD*%
%TA.AperFunction,HeatsinkPad*%
%ADD14O,1.000000X1.800000*%
%TD*%
%TA.AperFunction,ViaPad*%
%ADD15C,0.600000*%
%TD*%
%TA.AperFunction,Conductor*%
%ADD16C,0.300000*%
%TD*%
%TA.AperFunction,Conductor*%
%ADD17C,0.500000*%
%TD*%
G04 APERTURE END LIST*
D10*
%TO.N,GND*%
%TO.C,J4*%
X101800000Y-154300000D03*
D11*
%TO.N,/Didital/GPIO29_ADC3*%
X101800000Y-151760000D03*
%TO.N,/Didital/GPIO28_ADC2*%
X101800000Y-149220000D03*
%TO.N,/Didital/GPIO27_ADC1*%
X101800000Y-146680000D03*
%TO.N,/Didital/GPIO26_ADC0*%
X101800000Y-144140000D03*
%TO.N,/Didital/GPIO25*%
X101800000Y-141600000D03*
%TO.N,/Didital/GPIO24*%
X101800000Y-139060000D03*
%TO.N,/Didital/GPIO23*%
X101800000Y-136520000D03*
%TO.N,/Didital/GPIO22*%
X101800000Y-133980000D03*
%TO.N,/Didital/GPIO21*%
X101800000Y-131440000D03*
%TO.N,/Didital/GPIO20*%
X101800000Y-128900000D03*
%TO.N,/Didital/GPIO16*%
X101800000Y-126360000D03*
%TO.N,/Didital/RUN*%
X101800000Y-123820000D03*
%TO.N,/Didital/SWD*%
X101800000Y-121280000D03*
%TO.N,/Didital/SWCLK*%
X101800000Y-118740000D03*
%TO.N,GND*%
X101800000Y-116200000D03*
X101800000Y-113660000D03*
X101800000Y-111120000D03*
X101800000Y-108580000D03*
%TD*%
D12*
%TO.N,GND*%
%TO.C,U7*%
X128637500Y-145300000D03*
X128637500Y-144025000D03*
X128637500Y-142750000D03*
X127362500Y-145300000D03*
X127362500Y-144025000D03*
X127362500Y-142750000D03*
X126087500Y-145300000D03*
X126087500Y-144025000D03*
X126087500Y-142750000D03*
%TD*%
D13*
%TO.N,GND*%
%TO.C,J2*%
X121960000Y-159370000D03*
D14*
X121960000Y-163550000D03*
D13*
X130600000Y-159370000D03*
D14*
X130600000Y-163550000D03*
%TD*%
D10*
%TO.N,/Didital/~{USB_BOOT}*%
%TO.C,J1*%
X136900000Y-157650000D03*
D11*
%TO.N,GND*%
X134360000Y-157650000D03*
%TD*%
D10*
%TO.N,GND*%
%TO.C,J3*%
X150370000Y-108510000D03*
D11*
%TO.N,/Didital/GPIO15*%
X150370000Y-111050000D03*
%TO.N,/Didital/GPIO14*%
X150370000Y-113590000D03*
%TO.N,/Didital/GPIO13*%
X150370000Y-116130000D03*
%TO.N,/Didital/GPIO12*%
X150370000Y-118670000D03*
%TO.N,/Didital/GPIO11*%
X150370000Y-121210000D03*
%TO.N,/Didital/GPIO10*%
X150370000Y-123750000D03*
%TO.N,/Didital/GPIO9*%
X150370000Y-126290000D03*
%TO.N,/Didital/GPIO8*%
X150370000Y-128830000D03*
%TO.N,/Didital/GPIO7*%
X150370000Y-131370000D03*
%TO.N,/Didital/GPIO6*%
X150370000Y-133910000D03*
%TO.N,/Didital/GPIO5*%
X150370000Y-136450000D03*
%TO.N,/Didital/GPIO4*%
X150370000Y-138990000D03*
%TO.N,/Didital/GPIO3*%
X150370000Y-141530000D03*
%TO.N,/Didital/GPIO2*%
X150370000Y-144070000D03*
%TO.N,/Didital/GPIO1*%
X150370000Y-146610000D03*
%TO.N,/Didital/GPIO0*%
X150370000Y-149150000D03*
%TO.N,+3V3*%
X150370000Y-151690000D03*
%TO.N,+5V*%
X150370000Y-154230000D03*
%TD*%
D15*
%TO.N,/RX frontend/Vref_Filter*%
X119700000Y-131950000D03*
X110550000Y-129950000D03*
X115400000Y-138200000D03*
X115000000Y-135200000D03*
X115190000Y-123850000D03*
X114962500Y-131387500D03*
%TO.N,GND*%
X130100000Y-132050000D03*
X120800000Y-147650000D03*
X108600000Y-106850000D03*
X152800000Y-121850000D03*
X137475000Y-149700000D03*
X131900000Y-155000000D03*
X133200000Y-148000000D03*
X116400000Y-145100000D03*
X134060000Y-114440000D03*
X125100000Y-135350000D03*
X110800000Y-132450000D03*
X128950000Y-152550000D03*
X147800000Y-111200000D03*
X107950000Y-129175000D03*
X108500000Y-164000000D03*
X134360000Y-117740000D03*
X119450000Y-128425000D03*
X120850000Y-124650000D03*
X112558930Y-134841072D03*
X136350000Y-142750000D03*
X153350000Y-147350000D03*
X153350000Y-152400000D03*
X119450000Y-139350000D03*
X116100000Y-142050000D03*
X108500000Y-142250000D03*
X107650000Y-115200000D03*
X123600000Y-150700000D03*
X138460000Y-121240000D03*
X143450000Y-102750000D03*
X132660000Y-124040000D03*
X122425000Y-116925000D03*
X127650000Y-152600000D03*
X144900000Y-147150000D03*
X107000000Y-117950000D03*
X131560000Y-119940000D03*
X104150000Y-142650000D03*
X125600000Y-136240000D03*
X144800000Y-121200000D03*
X147450000Y-156450000D03*
X133100000Y-132750000D03*
X153050000Y-141250000D03*
X116400000Y-164100000D03*
X122200000Y-127200000D03*
X152700000Y-134150000D03*
X99700000Y-137650000D03*
X108450000Y-158400000D03*
X131560000Y-117840000D03*
X138260000Y-123540000D03*
X144900000Y-143300000D03*
X153350000Y-156100000D03*
X144850000Y-138100000D03*
X126500000Y-136240000D03*
X137960000Y-118140000D03*
X120450000Y-132500000D03*
X141650000Y-147100000D03*
X130000000Y-135350000D03*
X123850000Y-155750000D03*
X119250000Y-112600000D03*
X135000000Y-127950000D03*
X134900000Y-132350000D03*
X119300000Y-142250000D03*
X105850000Y-135650000D03*
X122600000Y-120350000D03*
X136900000Y-125350000D03*
X138900000Y-147350000D03*
X144200000Y-115500000D03*
X127650000Y-154550000D03*
X133100000Y-126150000D03*
X108600000Y-102950000D03*
X140750000Y-153700000D03*
X143450000Y-106200000D03*
X125000000Y-131950000D03*
X147900000Y-147900000D03*
X133100000Y-128050000D03*
X110000000Y-136500000D03*
X144850000Y-130900000D03*
X106450000Y-122350000D03*
X131700000Y-135450000D03*
X116958927Y-139341072D03*
X99350000Y-126100000D03*
X135000000Y-126150000D03*
X119500000Y-145700000D03*
X112300000Y-112400000D03*
X142087500Y-135550000D03*
X145150000Y-153700000D03*
X138802500Y-138750000D03*
X114700000Y-143400000D03*
X108700000Y-133000000D03*
X120400000Y-130350000D03*
X99500000Y-145750000D03*
X105950000Y-144450000D03*
X121800000Y-151800000D03*
X107050000Y-139950000D03*
X105350000Y-156500000D03*
%TO.N,+3V3*%
X129750000Y-143025000D03*
X115750000Y-133675000D03*
X122350000Y-139550000D03*
X116000000Y-139241072D03*
X133610000Y-155250000D03*
X127400000Y-141725000D03*
X124911500Y-143050000D03*
X107850000Y-127250000D03*
X119850000Y-148150000D03*
X127425000Y-149675000D03*
X129625000Y-146250000D03*
X119150000Y-118125000D03*
X121100000Y-141250000D03*
X135700000Y-149300000D03*
X119850000Y-135650000D03*
X114250000Y-148050000D03*
X108125000Y-124500000D03*
X129000000Y-153550000D03*
X124900000Y-146500000D03*
%TO.N,+5V*%
X143950000Y-157800000D03*
X139250000Y-116040000D03*
%TO.N,/Didital/RUN*%
X125982891Y-141574000D03*
%TO.N,/Didital/GPIO16*%
X121150000Y-136150000D03*
%TO.N,/Didital/SWD*%
X121700000Y-129900000D03*
%TO.N,/Didital/GPIO28_ADC2*%
X121000000Y-145700000D03*
%TO.N,/Didital/GPIO23*%
X121100000Y-142525000D03*
%TO.N,/Didital/GPIO24*%
X120200000Y-143100000D03*
%TO.N,/Didital/GPIO25*%
X121150000Y-143675000D03*
%TO.N,/Didital/GPIO21*%
X122550000Y-142000000D03*
%TO.N,/Didital/GPIO22*%
X121600000Y-141900000D03*
%TO.N,/Didital/GPIO20*%
X125200000Y-141850000D03*
%TO.N,/Didital/SWCLK*%
X122300000Y-129050000D03*
%TO.N,/Didital/GPIO27_ADC1*%
X120350000Y-144950000D03*
%TO.N,/Didital/QSPI_SS*%
X131300000Y-147350000D03*
X137600000Y-153550000D03*
%TO.N,/Didital/QSPI_SD1*%
X137600000Y-152250000D03*
X134100000Y-148750000D03*
%TD*%
D16*
%TO.N,/RX frontend/Vref_Filter*%
X115190000Y-123970000D02*
X115150000Y-124010000D01*
D17*
X115150000Y-124010000D02*
X115150000Y-131200000D01*
X119362573Y-131387500D02*
X114962500Y-131387500D01*
X114962500Y-135162500D02*
X115000000Y-135200000D01*
D16*
X111987500Y-131387500D02*
X110550000Y-129950000D01*
D17*
X119700000Y-131724927D02*
X119362573Y-131387500D01*
D16*
X115190000Y-123850000D02*
X115190000Y-123970000D01*
D17*
X119700000Y-131950000D02*
X119700000Y-131724927D01*
X114962500Y-131387500D02*
X114962500Y-135162500D01*
D16*
X114962500Y-131387500D02*
X111987500Y-131387500D01*
D17*
X115000000Y-135200000D02*
X115000000Y-137800000D01*
X115150000Y-131200000D02*
X114962500Y-131387500D01*
X115000000Y-137800000D02*
X115400000Y-138200000D01*
%TD*%
%TA.AperFunction,Conductor*%
%TO.N,+3V3*%
G36*
X149712856Y-98150631D02*
G01*
X150096378Y-98168362D01*
X150107768Y-98169418D01*
X150485176Y-98222064D01*
X150496420Y-98224166D01*
X150867361Y-98311410D01*
X150878351Y-98314537D01*
X151239679Y-98435642D01*
X151250333Y-98439770D01*
X151598922Y-98593687D01*
X151609170Y-98598790D01*
X151942061Y-98784210D01*
X151951799Y-98790239D01*
X152263421Y-99003704D01*
X152266172Y-99005588D01*
X152275312Y-99012491D01*
X152568459Y-99255918D01*
X152576923Y-99263634D01*
X152846365Y-99533076D01*
X152854081Y-99541540D01*
X153097508Y-99834687D01*
X153104411Y-99843827D01*
X153319760Y-100158200D01*
X153325789Y-100167938D01*
X153511209Y-100500829D01*
X153516314Y-100511082D01*
X153670224Y-100859653D01*
X153674362Y-100870333D01*
X153795458Y-101231635D01*
X153798592Y-101242651D01*
X153885831Y-101613571D01*
X153887936Y-101624830D01*
X153940580Y-102002224D01*
X153941637Y-102013628D01*
X153959368Y-102397142D01*
X153959500Y-102402869D01*
X153959500Y-146952324D01*
X153939815Y-147019363D01*
X153887011Y-147065118D01*
X153817853Y-147075062D01*
X153754297Y-147046037D01*
X153747819Y-147040005D01*
X153657316Y-146949502D01*
X153657314Y-146949500D01*
X153583380Y-146906814D01*
X153543187Y-146883608D01*
X153479539Y-146866554D01*
X153415892Y-146849500D01*
X153284108Y-146849500D01*
X153156812Y-146883608D01*
X153042686Y-146949500D01*
X153042683Y-146949502D01*
X152949502Y-147042683D01*
X152949500Y-147042686D01*
X152883608Y-147156812D01*
X152850693Y-147279655D01*
X152849500Y-147284108D01*
X152849500Y-147415892D01*
X152866554Y-147479539D01*
X152883608Y-147543187D01*
X152912185Y-147592683D01*
X152949500Y-147657314D01*
X153042686Y-147750500D01*
X153140221Y-147806812D01*
X153156810Y-147816390D01*
X153156814Y-147816392D01*
X153284108Y-147850500D01*
X153284110Y-147850500D01*
X153415890Y-147850500D01*
X153415892Y-147850500D01*
X153543186Y-147816392D01*
X153657314Y-147750500D01*
X153747819Y-147659995D01*
X153809142Y-147626510D01*
X153878834Y-147631494D01*
X153934767Y-147673366D01*
X153959184Y-147738830D01*
X153959500Y-147747676D01*
X153959500Y-152002324D01*
X153939815Y-152069363D01*
X153887011Y-152115118D01*
X153817853Y-152125062D01*
X153754297Y-152096037D01*
X153747819Y-152090005D01*
X153657316Y-151999502D01*
X153657314Y-151999500D01*
X153558910Y-151942686D01*
X153543187Y-151933608D01*
X153479539Y-151916554D01*
X153415892Y-151899500D01*
X153284108Y-151899500D01*
X153156812Y-151933608D01*
X153042686Y-151999500D01*
X153042683Y-151999502D01*
X152949502Y-152092683D01*
X152949500Y-152092686D01*
X152883608Y-152206812D01*
X152867644Y-152266392D01*
X152849500Y-152334108D01*
X152849500Y-152465892D01*
X152860803Y-152508074D01*
X152883608Y-152593187D01*
X152896717Y-152615892D01*
X152949500Y-152707314D01*
X153042686Y-152800500D01*
X153156814Y-152866392D01*
X153284108Y-152900500D01*
X153284110Y-152900500D01*
X153415890Y-152900500D01*
X153415892Y-152900500D01*
X153543186Y-152866392D01*
X153657314Y-152800500D01*
X153747819Y-152709995D01*
X153809142Y-152676510D01*
X153878834Y-152681494D01*
X153934767Y-152723366D01*
X153959184Y-152788830D01*
X153959500Y-152797676D01*
X153959500Y-155702324D01*
X153939815Y-155769363D01*
X153887011Y-155815118D01*
X153817853Y-155825062D01*
X153754297Y-155796037D01*
X153747819Y-155790005D01*
X153657316Y-155699502D01*
X153657314Y-155699500D01*
X153600250Y-155666554D01*
X153543187Y-155633608D01*
X153479539Y-155616554D01*
X153415892Y-155599500D01*
X153284108Y-155599500D01*
X153156812Y-155633608D01*
X153042686Y-155699500D01*
X153042683Y-155699502D01*
X152949502Y-155792683D01*
X152949500Y-155792686D01*
X152883608Y-155906812D01*
X152873862Y-155943186D01*
X152849500Y-156034108D01*
X152849500Y-156165892D01*
X152863031Y-156216391D01*
X152883608Y-156293187D01*
X152891475Y-156306812D01*
X152949500Y-156407314D01*
X153042686Y-156500500D01*
X153141521Y-156557563D01*
X153155944Y-156565890D01*
X153156814Y-156566392D01*
X153284108Y-156600500D01*
X153284110Y-156600500D01*
X153415890Y-156600500D01*
X153415892Y-156600500D01*
X153543186Y-156566392D01*
X153657314Y-156500500D01*
X153747819Y-156409995D01*
X153809142Y-156376510D01*
X153878834Y-156381494D01*
X153934767Y-156423366D01*
X153959184Y-156488830D01*
X153959500Y-156497676D01*
X153959500Y-161397128D01*
X153959368Y-161402855D01*
X153941636Y-161786370D01*
X153940579Y-161797774D01*
X153887935Y-162175169D01*
X153885830Y-162186428D01*
X153798591Y-162557347D01*
X153795457Y-162568363D01*
X153674361Y-162929665D01*
X153670223Y-162940345D01*
X153516313Y-163288917D01*
X153511208Y-163299170D01*
X153325789Y-163632060D01*
X153319760Y-163641798D01*
X153104410Y-163956171D01*
X153097507Y-163965311D01*
X152854080Y-164258459D01*
X152846364Y-164266923D01*
X152576923Y-164536364D01*
X152568459Y-164544080D01*
X152275311Y-164787507D01*
X152266171Y-164794410D01*
X151951798Y-165009760D01*
X151942060Y-165015789D01*
X151609170Y-165201208D01*
X151598917Y-165206313D01*
X151250345Y-165360223D01*
X151239665Y-165364361D01*
X150878363Y-165485457D01*
X150867347Y-165488591D01*
X150496428Y-165575830D01*
X150485169Y-165577935D01*
X150107774Y-165630579D01*
X150096370Y-165631636D01*
X149712855Y-165649368D01*
X149707128Y-165649500D01*
X102852849Y-165649500D01*
X102847122Y-165649368D01*
X102463628Y-165631637D01*
X102452224Y-165630580D01*
X102074830Y-165577936D01*
X102063571Y-165575831D01*
X101692651Y-165488592D01*
X101681635Y-165485458D01*
X101320333Y-165364362D01*
X101309653Y-165360224D01*
X100961082Y-165206314D01*
X100950829Y-165201209D01*
X100617938Y-165015789D01*
X100608200Y-165009760D01*
X100293827Y-164794411D01*
X100284687Y-164787508D01*
X99991540Y-164544081D01*
X99983076Y-164536365D01*
X99713634Y-164266923D01*
X99705918Y-164258459D01*
X99629050Y-164165891D01*
X99462489Y-163965309D01*
X99455588Y-163956172D01*
X99455587Y-163956171D01*
X99440474Y-163934108D01*
X107999500Y-163934108D01*
X107999500Y-164065891D01*
X108033608Y-164193187D01*
X108066554Y-164250250D01*
X108099500Y-164307314D01*
X108192686Y-164400500D01*
X108306814Y-164466392D01*
X108434108Y-164500500D01*
X108434110Y-164500500D01*
X108565890Y-164500500D01*
X108565892Y-164500500D01*
X108693186Y-164466392D01*
X108807314Y-164400500D01*
X108900500Y-164307314D01*
X108966392Y-164193186D01*
X109000500Y-164065892D01*
X109000500Y-164034108D01*
X115899500Y-164034108D01*
X115899500Y-164165891D01*
X115933608Y-164293187D01*
X115941766Y-164307316D01*
X115999500Y-164407314D01*
X116092686Y-164500500D01*
X116206814Y-164566392D01*
X116334108Y-164600500D01*
X116334110Y-164600500D01*
X116465890Y-164600500D01*
X116465892Y-164600500D01*
X116593186Y-164566392D01*
X116707314Y-164500500D01*
X116800500Y-164407314D01*
X116866392Y-164293186D01*
X116900500Y-164165892D01*
X116900500Y-164034108D01*
X116896451Y-164018995D01*
X121259499Y-164018995D01*
X121286418Y-164154322D01*
X121286421Y-164154332D01*
X121339221Y-164281804D01*
X121339228Y-164281817D01*
X121415885Y-164396541D01*
X121415888Y-164396545D01*
X121513454Y-164494111D01*
X121513458Y-164494114D01*
X121628182Y-164570771D01*
X121628195Y-164570778D01*
X121755667Y-164623578D01*
X121755672Y-164623580D01*
X121755676Y-164623580D01*
X121755677Y-164623581D01*
X121891004Y-164650500D01*
X121891007Y-164650500D01*
X122028995Y-164650500D01*
X122120041Y-164632389D01*
X122164328Y-164623580D01*
X122291811Y-164570775D01*
X122406542Y-164494114D01*
X122504114Y-164396542D01*
X122580775Y-164281811D01*
X122633580Y-164154328D01*
X122642389Y-164110041D01*
X122660500Y-164018995D01*
X129899499Y-164018995D01*
X129926418Y-164154322D01*
X129926421Y-164154332D01*
X129979221Y-164281804D01*
X129979228Y-164281817D01*
X130055885Y-164396541D01*
X130055888Y-164396545D01*
X130153454Y-164494111D01*
X130153458Y-164494114D01*
X130268182Y-164570771D01*
X130268195Y-164570778D01*
X130395667Y-164623578D01*
X130395672Y-164623580D01*
X130395676Y-164623580D01*
X130395677Y-164623581D01*
X130531004Y-164650500D01*
X130531007Y-164650500D01*
X130668995Y-164650500D01*
X130760041Y-164632389D01*
X130804328Y-164623580D01*
X130931811Y-164570775D01*
X131046542Y-164494114D01*
X131144114Y-164396542D01*
X131220775Y-164281811D01*
X131273580Y-164154328D01*
X131282389Y-164110041D01*
X131300500Y-164018995D01*
X131300500Y-163081004D01*
X131273581Y-162945677D01*
X131273580Y-162945676D01*
X131273580Y-162945672D01*
X131271374Y-162940346D01*
X131220778Y-162818195D01*
X131220771Y-162818182D01*
X131144114Y-162703458D01*
X131144111Y-162703454D01*
X131046545Y-162605888D01*
X131046541Y-162605885D01*
X130931817Y-162529228D01*
X130931804Y-162529221D01*
X130804332Y-162476421D01*
X130804322Y-162476418D01*
X130668995Y-162449500D01*
X130668993Y-162449500D01*
X130531007Y-162449500D01*
X130531005Y-162449500D01*
X130395677Y-162476418D01*
X130395667Y-162476421D01*
X130268195Y-162529221D01*
X130268182Y-162529228D01*
X130153458Y-162605885D01*
X130153454Y-162605888D01*
X130055888Y-162703454D01*
X130055885Y-162703458D01*
X129979228Y-162818182D01*
X129979221Y-162818195D01*
X129926421Y-162945667D01*
X129926418Y-162945677D01*
X129899500Y-163081004D01*
X129899500Y-163081007D01*
X129899500Y-164018993D01*
X129899500Y-164018995D01*
X129899499Y-164018995D01*
X122660500Y-164018995D01*
X122660500Y-163081004D01*
X122633581Y-162945677D01*
X122633580Y-162945676D01*
X122633580Y-162945672D01*
X122631374Y-162940346D01*
X122580778Y-162818195D01*
X122580771Y-162818182D01*
X122504114Y-162703458D01*
X122504111Y-162703454D01*
X122406545Y-162605888D01*
X122406541Y-162605885D01*
X122291817Y-162529228D01*
X122291804Y-162529221D01*
X122164332Y-162476421D01*
X122164322Y-162476418D01*
X122028995Y-162449500D01*
X122028993Y-162449500D01*
X121891007Y-162449500D01*
X121891005Y-162449500D01*
X121755677Y-162476418D01*
X121755667Y-162476421D01*
X121628195Y-162529221D01*
X121628182Y-162529228D01*
X121513458Y-162605885D01*
X121513454Y-162605888D01*
X121415888Y-162703454D01*
X121415885Y-162703458D01*
X121339228Y-162818182D01*
X121339221Y-162818195D01*
X121286421Y-162945667D01*
X121286418Y-162945677D01*
X121259500Y-163081004D01*
X121259500Y-163081007D01*
X121259500Y-164018993D01*
X121259500Y-164018995D01*
X121259499Y-164018995D01*
X116896451Y-164018995D01*
X116866392Y-163906814D01*
X116800500Y-163792686D01*
X116707314Y-163699500D01*
X116650250Y-163666554D01*
X116593187Y-163633608D01*
X116529539Y-163616554D01*
X116465892Y-163599500D01*
X116334108Y-163599500D01*
X116206812Y-163633608D01*
X116092686Y-163699500D01*
X116092683Y-163699502D01*
X115999502Y-163792683D01*
X115999500Y-163792686D01*
X115933608Y-163906812D01*
X115899500Y-164034108D01*
X109000500Y-164034108D01*
X109000500Y-163934108D01*
X108966392Y-163806814D01*
X108900500Y-163692686D01*
X108807314Y-163599500D01*
X108750250Y-163566554D01*
X108693187Y-163533608D01*
X108629539Y-163516554D01*
X108565892Y-163499500D01*
X108434108Y-163499500D01*
X108306812Y-163533608D01*
X108192686Y-163599500D01*
X108192683Y-163599502D01*
X108099502Y-163692683D01*
X108099500Y-163692686D01*
X108033608Y-163806812D01*
X107999500Y-163934108D01*
X99440474Y-163934108D01*
X99343596Y-163792683D01*
X99240239Y-163641799D01*
X99234210Y-163632061D01*
X99054951Y-163310231D01*
X99048788Y-163299166D01*
X99043685Y-163288917D01*
X98889770Y-162940333D01*
X98885642Y-162929679D01*
X98764537Y-162568351D01*
X98761410Y-162557361D01*
X98674166Y-162186420D01*
X98672063Y-162175169D01*
X98654603Y-162050004D01*
X98619418Y-161797768D01*
X98618362Y-161786371D01*
X98617826Y-161774785D01*
X98600631Y-161402855D01*
X98600499Y-161397129D01*
X98600499Y-161274038D01*
X101249500Y-161274038D01*
X101249500Y-161525961D01*
X101288910Y-161774785D01*
X101366760Y-162014383D01*
X101445413Y-162168747D01*
X101448685Y-162175169D01*
X101481132Y-162238848D01*
X101629201Y-162442649D01*
X101629205Y-162442654D01*
X101807345Y-162620794D01*
X101807350Y-162620798D01*
X101921117Y-162703454D01*
X102011155Y-162768870D01*
X102107961Y-162818195D01*
X102235616Y-162883239D01*
X102235618Y-162883239D01*
X102235621Y-162883241D01*
X102475215Y-162961090D01*
X102724038Y-163000500D01*
X102724039Y-163000500D01*
X102975961Y-163000500D01*
X102975962Y-163000500D01*
X103224785Y-162961090D01*
X103224788Y-162961089D01*
X103224789Y-162961089D01*
X103237422Y-162956984D01*
X103237423Y-162956984D01*
X103321501Y-162929665D01*
X103464379Y-162883241D01*
X103688845Y-162768870D01*
X103892656Y-162620793D01*
X104070793Y-162442656D01*
X104218870Y-162238845D01*
X104333241Y-162014379D01*
X104411090Y-161774785D01*
X104450500Y-161525962D01*
X104450500Y-161274038D01*
X148109500Y-161274038D01*
X148109500Y-161525961D01*
X148148910Y-161774785D01*
X148226760Y-162014383D01*
X148305413Y-162168747D01*
X148308685Y-162175169D01*
X148341132Y-162238848D01*
X148489201Y-162442649D01*
X148489205Y-162442654D01*
X148667345Y-162620794D01*
X148667350Y-162620798D01*
X148781117Y-162703454D01*
X148871155Y-162768870D01*
X148967961Y-162818195D01*
X149095616Y-162883239D01*
X149095618Y-162883239D01*
X149095621Y-162883241D01*
X149335215Y-162961090D01*
X149584038Y-163000500D01*
X149584039Y-163000500D01*
X149835961Y-163000500D01*
X149835962Y-163000500D01*
X150084785Y-162961090D01*
X150324379Y-162883241D01*
X150548845Y-162768870D01*
X150752656Y-162620793D01*
X150930793Y-162442656D01*
X151078870Y-162238845D01*
X151193241Y-162014379D01*
X151271090Y-161774785D01*
X151310500Y-161525962D01*
X151310500Y-161274038D01*
X151271090Y-161025215D01*
X151193241Y-160785621D01*
X151193239Y-160785618D01*
X151193239Y-160785616D01*
X151151747Y-160704184D01*
X151078870Y-160561155D01*
X151008364Y-160464111D01*
X150930798Y-160357350D01*
X150930794Y-160357345D01*
X150752654Y-160179205D01*
X150752649Y-160179201D01*
X150548848Y-160031132D01*
X150548847Y-160031131D01*
X150548845Y-160031130D01*
X150466150Y-159988995D01*
X150324383Y-159916760D01*
X150084785Y-159838910D01*
X149835962Y-159799500D01*
X149584038Y-159799500D01*
X149459626Y-159819205D01*
X149335214Y-159838910D01*
X149095616Y-159916760D01*
X148871151Y-160031132D01*
X148667350Y-160179201D01*
X148667345Y-160179205D01*
X148489205Y-160357345D01*
X148489201Y-160357350D01*
X148341132Y-160561151D01*
X148226760Y-160785616D01*
X148148910Y-161025214D01*
X148109500Y-161274038D01*
X104450500Y-161274038D01*
X104411090Y-161025215D01*
X104333241Y-160785621D01*
X104333239Y-160785618D01*
X104333239Y-160785616D01*
X104291747Y-160704184D01*
X104218870Y-160561155D01*
X104148364Y-160464111D01*
X104070798Y-160357350D01*
X104070794Y-160357345D01*
X103892654Y-160179205D01*
X103892649Y-160179201D01*
X103688848Y-160031132D01*
X103688847Y-160031131D01*
X103688845Y-160031130D01*
X103606150Y-159988995D01*
X121259499Y-159988995D01*
X121286418Y-160124322D01*
X121286421Y-160124332D01*
X121339221Y-160251804D01*
X121339228Y-160251817D01*
X121415885Y-160366541D01*
X121415888Y-160366545D01*
X121513454Y-160464111D01*
X121513458Y-160464114D01*
X121628182Y-160540771D01*
X121628195Y-160540778D01*
X121755667Y-160593578D01*
X121755672Y-160593580D01*
X121755676Y-160593580D01*
X121755677Y-160593581D01*
X121891004Y-160620500D01*
X121891007Y-160620500D01*
X122028995Y-160620500D01*
X122120041Y-160602389D01*
X122164328Y-160593580D01*
X122291811Y-160540775D01*
X122406542Y-160464114D01*
X122504114Y-160366542D01*
X122580775Y-160251811D01*
X122580777Y-160251807D01*
X122580778Y-160251805D01*
X122615613Y-160167704D01*
X122659453Y-160113300D01*
X122725747Y-160091235D01*
X122793447Y-160108514D01*
X122841057Y-160159651D01*
X122849948Y-160183061D01*
X122853719Y-160197135D01*
X122929485Y-160328365D01*
X123036635Y-160435515D01*
X123167865Y-160511281D01*
X123314234Y-160550500D01*
X123314236Y-160550500D01*
X123465764Y-160550500D01*
X123465766Y-160550500D01*
X123612135Y-160511281D01*
X123743365Y-160435515D01*
X123850515Y-160328365D01*
X123926281Y-160197135D01*
X123965500Y-160050766D01*
X123965500Y-159899234D01*
X128594500Y-159899234D01*
X128594500Y-160050765D01*
X128633719Y-160197136D01*
X128665282Y-160251804D01*
X128709485Y-160328365D01*
X128816635Y-160435515D01*
X128947865Y-160511281D01*
X129094234Y-160550500D01*
X129094236Y-160550500D01*
X129245764Y-160550500D01*
X129245766Y-160550500D01*
X129392135Y-160511281D01*
X129523365Y-160435515D01*
X129630515Y-160328365D01*
X129706281Y-160197135D01*
X129710051Y-160183063D01*
X129746410Y-160123406D01*
X129809256Y-160092874D01*
X129878632Y-160101165D01*
X129932512Y-160145648D01*
X129944386Y-160167703D01*
X129979223Y-160251807D01*
X129979228Y-160251817D01*
X130055885Y-160366541D01*
X130055888Y-160366545D01*
X130153454Y-160464111D01*
X130153458Y-160464114D01*
X130268182Y-160540771D01*
X130268195Y-160540778D01*
X130395667Y-160593578D01*
X130395672Y-160593580D01*
X130395676Y-160593580D01*
X130395677Y-160593581D01*
X130531004Y-160620500D01*
X130531007Y-160620500D01*
X130668995Y-160620500D01*
X130760041Y-160602389D01*
X130804328Y-160593580D01*
X130931811Y-160540775D01*
X131046542Y-160464114D01*
X131144114Y-160366542D01*
X131220775Y-160251811D01*
X131273580Y-160124328D01*
X131282389Y-160080041D01*
X131300500Y-159988995D01*
X131300500Y-158751004D01*
X131273581Y-158615677D01*
X131273580Y-158615676D01*
X131273580Y-158615672D01*
X131264267Y-158593188D01*
X131220778Y-158488195D01*
X131220771Y-158488182D01*
X131144114Y-158373458D01*
X131144111Y-158373454D01*
X131046545Y-158275888D01*
X131046541Y-158275885D01*
X130931817Y-158199228D01*
X130931804Y-158199221D01*
X130804332Y-158146421D01*
X130804322Y-158146418D01*
X130668995Y-158119500D01*
X130668993Y-158119500D01*
X130531007Y-158119500D01*
X130531005Y-158119500D01*
X130395677Y-158146418D01*
X130395667Y-158146421D01*
X130268195Y-158199221D01*
X130268182Y-158199228D01*
X130153458Y-158275885D01*
X130153454Y-158275888D01*
X130055888Y-158373454D01*
X130055885Y-158373458D01*
X129979228Y-158488182D01*
X129979221Y-158488195D01*
X129926421Y-158615667D01*
X129926418Y-158615677D01*
X129899500Y-158751004D01*
X129899500Y-159624755D01*
X129879815Y-159691794D01*
X129827011Y-159737549D01*
X129757853Y-159747493D01*
X129694297Y-159718468D01*
X129668113Y-159686756D01*
X129655731Y-159665310D01*
X129630515Y-159621635D01*
X129523365Y-159514485D01*
X129457750Y-159476602D01*
X129392136Y-159438719D01*
X129318950Y-159419109D01*
X129245766Y-159399500D01*
X129094234Y-159399500D01*
X128947863Y-159438719D01*
X128816635Y-159514485D01*
X128816632Y-159514487D01*
X128709487Y-159621632D01*
X128709485Y-159621635D01*
X128633719Y-159752863D01*
X128594500Y-159899234D01*
X123965500Y-159899234D01*
X123926281Y-159752865D01*
X123923179Y-159747493D01*
X123891021Y-159691794D01*
X123850515Y-159621635D01*
X123743365Y-159514485D01*
X123677750Y-159476602D01*
X123612136Y-159438719D01*
X123538950Y-159419109D01*
X123465766Y-159399500D01*
X123314234Y-159399500D01*
X123167863Y-159438719D01*
X123036635Y-159514485D01*
X123036632Y-159514487D01*
X122929487Y-159621632D01*
X122929485Y-159621635D01*
X122891887Y-159686756D01*
X122841319Y-159734971D01*
X122772712Y-159748193D01*
X122707847Y-159722225D01*
X122667319Y-159665310D01*
X122660500Y-159624755D01*
X122660500Y-158751004D01*
X122633581Y-158615677D01*
X122633580Y-158615676D01*
X122633580Y-158615672D01*
X122624267Y-158593188D01*
X122580778Y-158488195D01*
X122580771Y-158488182D01*
X122504114Y-158373458D01*
X122504111Y-158373454D01*
X122406545Y-158275888D01*
X122406541Y-158275885D01*
X122291817Y-158199228D01*
X122291804Y-158199221D01*
X122164332Y-158146421D01*
X122164322Y-158146418D01*
X122028995Y-158119500D01*
X122028993Y-158119500D01*
X121891007Y-158119500D01*
X121891005Y-158119500D01*
X121755677Y-158146418D01*
X121755667Y-158146421D01*
X121628195Y-158199221D01*
X121628182Y-158199228D01*
X121513458Y-158275885D01*
X121513454Y-158275888D01*
X121415888Y-158373454D01*
X121415885Y-158373458D01*
X121339228Y-158488182D01*
X121339221Y-158488195D01*
X121286421Y-158615667D01*
X121286418Y-158615677D01*
X121259500Y-158751004D01*
X121259500Y-158751007D01*
X121259500Y-159988993D01*
X121259500Y-159988995D01*
X121259499Y-159988995D01*
X103606150Y-159988995D01*
X103464383Y-159916760D01*
X103224785Y-159838910D01*
X102975962Y-159799500D01*
X102724038Y-159799500D01*
X102599626Y-159819205D01*
X102475214Y-159838910D01*
X102235616Y-159916760D01*
X102011151Y-160031132D01*
X101807350Y-160179201D01*
X101807345Y-160179205D01*
X101629205Y-160357345D01*
X101629201Y-160357350D01*
X101481132Y-160561151D01*
X101366760Y-160785616D01*
X101288910Y-161025214D01*
X101249500Y-161274038D01*
X98600499Y-161274038D01*
X98600499Y-158334108D01*
X107949500Y-158334108D01*
X107949500Y-158465892D01*
X107955476Y-158488195D01*
X107983608Y-158593187D01*
X107996587Y-158615667D01*
X108049500Y-158707314D01*
X108142686Y-158800500D01*
X108256814Y-158866392D01*
X108384108Y-158900500D01*
X108384110Y-158900500D01*
X108515890Y-158900500D01*
X108515892Y-158900500D01*
X108643186Y-158866392D01*
X108757314Y-158800500D01*
X108850500Y-158707314D01*
X108916392Y-158593186D01*
X108950500Y-158465892D01*
X108950500Y-158334108D01*
X108916392Y-158206814D01*
X108912010Y-158199225D01*
X108907563Y-158191521D01*
X108850500Y-158092686D01*
X108757314Y-157999500D01*
X108700250Y-157966554D01*
X108643187Y-157933608D01*
X108579539Y-157916554D01*
X108515892Y-157899500D01*
X108384108Y-157899500D01*
X108256812Y-157933608D01*
X108142686Y-157999500D01*
X108142683Y-157999502D01*
X108049502Y-158092683D01*
X108049500Y-158092686D01*
X107983608Y-158206812D01*
X107965100Y-158275886D01*
X107949500Y-158334108D01*
X98600499Y-158334108D01*
X98600499Y-157546530D01*
X133309500Y-157546530D01*
X133309500Y-157753469D01*
X133349868Y-157956412D01*
X133349870Y-157956420D01*
X133429058Y-158147596D01*
X133544024Y-158319657D01*
X133690342Y-158465975D01*
X133690345Y-158465977D01*
X133862402Y-158580941D01*
X134053580Y-158660130D01*
X134198052Y-158688867D01*
X134256530Y-158700499D01*
X134256534Y-158700500D01*
X134256535Y-158700500D01*
X134463466Y-158700500D01*
X134463467Y-158700499D01*
X134666420Y-158660130D01*
X134857598Y-158580941D01*
X135029655Y-158465977D01*
X135175977Y-158319655D01*
X135290941Y-158147598D01*
X135370130Y-157956420D01*
X135410500Y-157753465D01*
X135410500Y-157546535D01*
X135370130Y-157343580D01*
X135290941Y-157152402D01*
X135175977Y-156980345D01*
X135175975Y-156980342D01*
X135029657Y-156834024D01*
X134949173Y-156780247D01*
X135849500Y-156780247D01*
X135849500Y-158519752D01*
X135861131Y-158578229D01*
X135861132Y-158578230D01*
X135905447Y-158644552D01*
X135971769Y-158688867D01*
X135971770Y-158688868D01*
X136030247Y-158700499D01*
X136030250Y-158700500D01*
X136030252Y-158700500D01*
X137769750Y-158700500D01*
X137769751Y-158700499D01*
X137784568Y-158697552D01*
X137828229Y-158688868D01*
X137828229Y-158688867D01*
X137828231Y-158688867D01*
X137894552Y-158644552D01*
X137938867Y-158578231D01*
X137938867Y-158578229D01*
X137938868Y-158578229D01*
X137950499Y-158519752D01*
X137950500Y-158519750D01*
X137950500Y-157734108D01*
X143449500Y-157734108D01*
X143449500Y-157865891D01*
X143483608Y-157993187D01*
X143516554Y-158050250D01*
X143549500Y-158107314D01*
X143642686Y-158200500D01*
X143756814Y-158266392D01*
X143884108Y-158300500D01*
X143884110Y-158300500D01*
X144015890Y-158300500D01*
X144015892Y-158300500D01*
X144143186Y-158266392D01*
X144257314Y-158200500D01*
X144350500Y-158107314D01*
X144416392Y-157993186D01*
X144450500Y-157865892D01*
X144450500Y-157734108D01*
X144416392Y-157606814D01*
X144350500Y-157492686D01*
X144257314Y-157399500D01*
X144200250Y-157366554D01*
X144143187Y-157333608D01*
X144079539Y-157316554D01*
X144015892Y-157299500D01*
X143884108Y-157299500D01*
X143756812Y-157333608D01*
X143642686Y-157399500D01*
X143642683Y-157399502D01*
X143549502Y-157492683D01*
X143549500Y-157492686D01*
X143483608Y-157606812D01*
X143449500Y-157734108D01*
X137950500Y-157734108D01*
X137950500Y-156780249D01*
X137950499Y-156780247D01*
X137938868Y-156721770D01*
X137938867Y-156721769D01*
X137894552Y-156655447D01*
X137828230Y-156611132D01*
X137828229Y-156611131D01*
X137769752Y-156599500D01*
X137769748Y-156599500D01*
X136030252Y-156599500D01*
X136030247Y-156599500D01*
X135971770Y-156611131D01*
X135971769Y-156611132D01*
X135905447Y-156655447D01*
X135861132Y-156721769D01*
X135861131Y-156721770D01*
X135849500Y-156780247D01*
X134949173Y-156780247D01*
X134914851Y-156757314D01*
X134857598Y-156719059D01*
X134795135Y-156693186D01*
X134666420Y-156639870D01*
X134666412Y-156639868D01*
X134463469Y-156599500D01*
X134463465Y-156599500D01*
X134256535Y-156599500D01*
X134256530Y-156599500D01*
X134053587Y-156639868D01*
X134053579Y-156639870D01*
X133862403Y-156719058D01*
X133690342Y-156834024D01*
X133544024Y-156980342D01*
X133429058Y-157152403D01*
X133349870Y-157343579D01*
X133349868Y-157343587D01*
X133309500Y-157546530D01*
X98600499Y-157546530D01*
X98600499Y-156434108D01*
X104849500Y-156434108D01*
X104849500Y-156565891D01*
X104883608Y-156693187D01*
X104898545Y-156719058D01*
X104949500Y-156807314D01*
X105042686Y-156900500D01*
X105156814Y-156966392D01*
X105284108Y-157000500D01*
X105284110Y-157000500D01*
X105415890Y-157000500D01*
X105415892Y-157000500D01*
X105543186Y-156966392D01*
X105657314Y-156900500D01*
X105750500Y-156807314D01*
X105816392Y-156693186D01*
X105850500Y-156565892D01*
X105850500Y-156434108D01*
X105837103Y-156384108D01*
X146949500Y-156384108D01*
X146949500Y-156515891D01*
X146983608Y-156643187D01*
X146990687Y-156655448D01*
X147049500Y-156757314D01*
X147142686Y-156850500D01*
X147256814Y-156916392D01*
X147384108Y-156950500D01*
X147384110Y-156950500D01*
X147515890Y-156950500D01*
X147515892Y-156950500D01*
X147643186Y-156916392D01*
X147757314Y-156850500D01*
X147850500Y-156757314D01*
X147916392Y-156643186D01*
X147950500Y-156515892D01*
X147950500Y-156384108D01*
X147916392Y-156256814D01*
X147850500Y-156142686D01*
X147757314Y-156049500D01*
X147670712Y-155999500D01*
X147643187Y-155983608D01*
X147579539Y-155966554D01*
X147515892Y-155949500D01*
X147384108Y-155949500D01*
X147256812Y-155983608D01*
X147142686Y-156049500D01*
X147142683Y-156049502D01*
X147049502Y-156142683D01*
X147049500Y-156142686D01*
X146983608Y-156256812D01*
X146949500Y-156384108D01*
X105837103Y-156384108D01*
X105816392Y-156306814D01*
X105750500Y-156192686D01*
X105657314Y-156099500D01*
X105600250Y-156066554D01*
X105543187Y-156033608D01*
X105479539Y-156016554D01*
X105415892Y-155999500D01*
X105284108Y-155999500D01*
X105156812Y-156033608D01*
X105042686Y-156099500D01*
X105042683Y-156099502D01*
X104949502Y-156192683D01*
X104949500Y-156192686D01*
X104883608Y-156306812D01*
X104849500Y-156434108D01*
X98600499Y-156434108D01*
X98600499Y-155684108D01*
X123349500Y-155684108D01*
X123349500Y-155815891D01*
X123383608Y-155943187D01*
X123387253Y-155949500D01*
X123449500Y-156057314D01*
X123542686Y-156150500D01*
X123656814Y-156216392D01*
X123784108Y-156250500D01*
X123784110Y-156250500D01*
X123915890Y-156250500D01*
X123915892Y-156250500D01*
X124043186Y-156216392D01*
X124157314Y-156150500D01*
X124250500Y-156057314D01*
X124316392Y-155943186D01*
X124350500Y-155815892D01*
X124350500Y-155684108D01*
X124316392Y-155556814D01*
X124250500Y-155442686D01*
X124157314Y-155349500D01*
X124100250Y-155316554D01*
X124043187Y-155283608D01*
X123979539Y-155266554D01*
X123915892Y-155249500D01*
X123784108Y-155249500D01*
X123656812Y-155283608D01*
X123542686Y-155349500D01*
X123542683Y-155349502D01*
X123449502Y-155442683D01*
X123449500Y-155442686D01*
X123383608Y-155556812D01*
X123349500Y-155684108D01*
X98600499Y-155684108D01*
X98600499Y-153430247D01*
X100749500Y-153430247D01*
X100749500Y-155169752D01*
X100761131Y-155228229D01*
X100761132Y-155228230D01*
X100805447Y-155294552D01*
X100871769Y-155338867D01*
X100871770Y-155338868D01*
X100930247Y-155350499D01*
X100930250Y-155350500D01*
X100930252Y-155350500D01*
X102669750Y-155350500D01*
X102669751Y-155350499D01*
X102684568Y-155347552D01*
X102728229Y-155338868D01*
X102728229Y-155338867D01*
X102728231Y-155338867D01*
X102794552Y-155294552D01*
X102838867Y-155228231D01*
X102838867Y-155228229D01*
X102838868Y-155228229D01*
X102850499Y-155169752D01*
X102850500Y-155169750D01*
X102850500Y-154484108D01*
X127149500Y-154484108D01*
X127149500Y-154615891D01*
X127183608Y-154743187D01*
X127216554Y-154800250D01*
X127249500Y-154857314D01*
X127342686Y-154950500D01*
X127456814Y-155016392D01*
X127584108Y-155050500D01*
X127584110Y-155050500D01*
X127715890Y-155050500D01*
X127715892Y-155050500D01*
X127843186Y-155016392D01*
X127957314Y-154950500D01*
X127973706Y-154934108D01*
X131399500Y-154934108D01*
X131399500Y-155065891D01*
X131433608Y-155193187D01*
X131453841Y-155228231D01*
X131499500Y-155307314D01*
X131592686Y-155400500D01*
X131706814Y-155466392D01*
X131834108Y-155500500D01*
X131834110Y-155500500D01*
X131965890Y-155500500D01*
X131965892Y-155500500D01*
X132093186Y-155466392D01*
X132207314Y-155400500D01*
X132300500Y-155307314D01*
X132366392Y-155193186D01*
X132400500Y-155065892D01*
X132400500Y-154934108D01*
X132366392Y-154806814D01*
X132300500Y-154692686D01*
X132207314Y-154599500D01*
X132098057Y-154536420D01*
X132093187Y-154533608D01*
X132029539Y-154516554D01*
X131965892Y-154499500D01*
X131834108Y-154499500D01*
X131706812Y-154533608D01*
X131592686Y-154599500D01*
X131592683Y-154599502D01*
X131499502Y-154692683D01*
X131499500Y-154692686D01*
X131433608Y-154806812D01*
X131399500Y-154934108D01*
X127973706Y-154934108D01*
X128050500Y-154857314D01*
X128116392Y-154743186D01*
X128150500Y-154615892D01*
X128150500Y-154484108D01*
X128116392Y-154356814D01*
X128050500Y-154242686D01*
X127957314Y-154149500D01*
X127872439Y-154100497D01*
X127843187Y-154083608D01*
X127779539Y-154066554D01*
X127715892Y-154049500D01*
X127584108Y-154049500D01*
X127456812Y-154083608D01*
X127342686Y-154149500D01*
X127342683Y-154149502D01*
X127249502Y-154242683D01*
X127249500Y-154242686D01*
X127183608Y-154356812D01*
X127149500Y-154484108D01*
X102850500Y-154484108D01*
X102850500Y-153484108D01*
X137099500Y-153484108D01*
X137099500Y-153615892D01*
X137116554Y-153679539D01*
X137133608Y-153743187D01*
X137146717Y-153765892D01*
X137199500Y-153857314D01*
X137292686Y-153950500D01*
X137406814Y-154016392D01*
X137534108Y-154050500D01*
X137534110Y-154050500D01*
X137665890Y-154050500D01*
X137665892Y-154050500D01*
X137793186Y-154016392D01*
X137907314Y-153950500D01*
X138000500Y-153857314D01*
X138066392Y-153743186D01*
X138095619Y-153634108D01*
X140249500Y-153634108D01*
X140249500Y-153765891D01*
X140283608Y-153893187D01*
X140301155Y-153923579D01*
X140349500Y-154007314D01*
X140442686Y-154100500D01*
X140556814Y-154166392D01*
X140684108Y-154200500D01*
X140684110Y-154200500D01*
X140815890Y-154200500D01*
X140815892Y-154200500D01*
X140943186Y-154166392D01*
X141057314Y-154100500D01*
X141150500Y-154007314D01*
X141216392Y-153893186D01*
X141250500Y-153765892D01*
X141250500Y-153634108D01*
X144649500Y-153634108D01*
X144649500Y-153765891D01*
X144683608Y-153893187D01*
X144701155Y-153923579D01*
X144749500Y-154007314D01*
X144842686Y-154100500D01*
X144956814Y-154166392D01*
X145084108Y-154200500D01*
X145084110Y-154200500D01*
X145215890Y-154200500D01*
X145215892Y-154200500D01*
X145343186Y-154166392D01*
X145412229Y-154126530D01*
X149319500Y-154126530D01*
X149319500Y-154333469D01*
X149359868Y-154536412D01*
X149359870Y-154536420D01*
X149439059Y-154727598D01*
X149491988Y-154806812D01*
X149554024Y-154899657D01*
X149700342Y-155045975D01*
X149700345Y-155045977D01*
X149872402Y-155160941D01*
X150063580Y-155240130D01*
X150266530Y-155280499D01*
X150266534Y-155280500D01*
X150266535Y-155280500D01*
X150473466Y-155280500D01*
X150473467Y-155280499D01*
X150676420Y-155240130D01*
X150867598Y-155160941D01*
X151039655Y-155045977D01*
X151185977Y-154899655D01*
X151300941Y-154727598D01*
X151380130Y-154536420D01*
X151420500Y-154333465D01*
X151420500Y-154126535D01*
X151380130Y-153923580D01*
X151300941Y-153732402D01*
X151185977Y-153560345D01*
X151185975Y-153560342D01*
X151039657Y-153414024D01*
X150953626Y-153356541D01*
X150867598Y-153299059D01*
X150676420Y-153219870D01*
X150676412Y-153219868D01*
X150473469Y-153179500D01*
X150473465Y-153179500D01*
X150266535Y-153179500D01*
X150266530Y-153179500D01*
X150063587Y-153219868D01*
X150063579Y-153219870D01*
X149872403Y-153299058D01*
X149700342Y-153414024D01*
X149554024Y-153560342D01*
X149439058Y-153732403D01*
X149359870Y-153923579D01*
X149359868Y-153923587D01*
X149319500Y-154126530D01*
X145412229Y-154126530D01*
X145457314Y-154100500D01*
X145550500Y-154007314D01*
X145616392Y-153893186D01*
X145650500Y-153765892D01*
X145650500Y-153634108D01*
X145616392Y-153506814D01*
X145550500Y-153392686D01*
X145457314Y-153299500D01*
X145358910Y-153242686D01*
X145343187Y-153233608D01*
X145279539Y-153216554D01*
X145215892Y-153199500D01*
X145084108Y-153199500D01*
X144956812Y-153233608D01*
X144842686Y-153299500D01*
X144842683Y-153299502D01*
X144749502Y-153392683D01*
X144749500Y-153392686D01*
X144683608Y-153506812D01*
X144649500Y-153634108D01*
X141250500Y-153634108D01*
X141216392Y-153506814D01*
X141150500Y-153392686D01*
X141057314Y-153299500D01*
X140958910Y-153242686D01*
X140943187Y-153233608D01*
X140879539Y-153216554D01*
X140815892Y-153199500D01*
X140684108Y-153199500D01*
X140556812Y-153233608D01*
X140442686Y-153299500D01*
X140442683Y-153299502D01*
X140349502Y-153392683D01*
X140349500Y-153392686D01*
X140283608Y-153506812D01*
X140249500Y-153634108D01*
X138095619Y-153634108D01*
X138100500Y-153615892D01*
X138100500Y-153484108D01*
X138066392Y-153356814D01*
X138000500Y-153242686D01*
X137907314Y-153149500D01*
X137822442Y-153100499D01*
X137793187Y-153083608D01*
X137728931Y-153066391D01*
X137665892Y-153049500D01*
X137534108Y-153049500D01*
X137406812Y-153083608D01*
X137292686Y-153149500D01*
X137292683Y-153149502D01*
X137199502Y-153242683D01*
X137199500Y-153242686D01*
X137133608Y-153356812D01*
X137099500Y-153484108D01*
X102850500Y-153484108D01*
X102850500Y-153430249D01*
X102850499Y-153430247D01*
X102838868Y-153371770D01*
X102838867Y-153371769D01*
X102794552Y-153305447D01*
X102728230Y-153261132D01*
X102728229Y-153261131D01*
X102669752Y-153249500D01*
X102669748Y-153249500D01*
X100930252Y-153249500D01*
X100930247Y-153249500D01*
X100871770Y-153261131D01*
X100871769Y-153261132D01*
X100805447Y-153305447D01*
X100761132Y-153371769D01*
X100761131Y-153371770D01*
X100749500Y-153430247D01*
X98600499Y-153430247D01*
X98600499Y-151656530D01*
X100749500Y-151656530D01*
X100749500Y-151863469D01*
X100789868Y-152066412D01*
X100789870Y-152066420D01*
X100848022Y-152206812D01*
X100869059Y-152257598D01*
X100874935Y-152266392D01*
X100984024Y-152429657D01*
X101130342Y-152575975D01*
X101130345Y-152575977D01*
X101302402Y-152690941D01*
X101493580Y-152770130D01*
X101696530Y-152810499D01*
X101696534Y-152810500D01*
X101696535Y-152810500D01*
X101903466Y-152810500D01*
X101903467Y-152810499D01*
X102106420Y-152770130D01*
X102297598Y-152690941D01*
X102469655Y-152575977D01*
X102511524Y-152534108D01*
X127149500Y-152534108D01*
X127149500Y-152665892D01*
X127161317Y-152709995D01*
X127183608Y-152793187D01*
X127193604Y-152810500D01*
X127249500Y-152907314D01*
X127342686Y-153000500D01*
X127456814Y-153066392D01*
X127584108Y-153100500D01*
X127584110Y-153100500D01*
X127715890Y-153100500D01*
X127715892Y-153100500D01*
X127843186Y-153066392D01*
X127957314Y-153000500D01*
X128050500Y-152907314D01*
X128116392Y-152793186D01*
X128150500Y-152665892D01*
X128150500Y-152534108D01*
X128137103Y-152484108D01*
X128449500Y-152484108D01*
X128449500Y-152615891D01*
X128483608Y-152743187D01*
X128509961Y-152788830D01*
X128549500Y-152857314D01*
X128642686Y-152950500D01*
X128756814Y-153016392D01*
X128884108Y-153050500D01*
X128884110Y-153050500D01*
X129015890Y-153050500D01*
X129015892Y-153050500D01*
X129143186Y-153016392D01*
X129257314Y-152950500D01*
X129350500Y-152857314D01*
X129416392Y-152743186D01*
X129450500Y-152615892D01*
X129450500Y-152484108D01*
X129416392Y-152356814D01*
X129392764Y-152315890D01*
X129350503Y-152242691D01*
X129350502Y-152242690D01*
X129350500Y-152242686D01*
X129291922Y-152184108D01*
X137099500Y-152184108D01*
X137099500Y-152315891D01*
X137133608Y-152443187D01*
X137166554Y-152500250D01*
X137199500Y-152557314D01*
X137292686Y-152650500D01*
X137406814Y-152716392D01*
X137534108Y-152750500D01*
X137534110Y-152750500D01*
X137665890Y-152750500D01*
X137665892Y-152750500D01*
X137793186Y-152716392D01*
X137907314Y-152650500D01*
X138000500Y-152557314D01*
X138066392Y-152443186D01*
X138100500Y-152315892D01*
X138100500Y-152184108D01*
X138066392Y-152056814D01*
X138000500Y-151942686D01*
X137907314Y-151849500D01*
X137850250Y-151816554D01*
X137793187Y-151783608D01*
X137729539Y-151766554D01*
X137665892Y-151749500D01*
X137534108Y-151749500D01*
X137406812Y-151783608D01*
X137292686Y-151849500D01*
X137292683Y-151849502D01*
X137199502Y-151942683D01*
X137199500Y-151942686D01*
X137133608Y-152056812D01*
X137099500Y-152184108D01*
X129291922Y-152184108D01*
X129257314Y-152149500D01*
X129197763Y-152115118D01*
X129143187Y-152083608D01*
X129043188Y-152056814D01*
X129015892Y-152049500D01*
X128884108Y-152049500D01*
X128756812Y-152083608D01*
X128642686Y-152149500D01*
X128642683Y-152149502D01*
X128549502Y-152242683D01*
X128549500Y-152242686D01*
X128483608Y-152356812D01*
X128449500Y-152484108D01*
X128137103Y-152484108D01*
X128116392Y-152406814D01*
X128050500Y-152292686D01*
X127957314Y-152199500D01*
X127900250Y-152166554D01*
X127843187Y-152133608D01*
X127774180Y-152115118D01*
X127715892Y-152099500D01*
X127584108Y-152099500D01*
X127456812Y-152133608D01*
X127342686Y-152199500D01*
X127342683Y-152199502D01*
X127249502Y-152292683D01*
X127249500Y-152292686D01*
X127183608Y-152406812D01*
X127167778Y-152465892D01*
X127149500Y-152534108D01*
X102511524Y-152534108D01*
X102537558Y-152508074D01*
X102607333Y-152438300D01*
X102615974Y-152429658D01*
X102615975Y-152429657D01*
X102615977Y-152429655D01*
X102730941Y-152257598D01*
X102810130Y-152066420D01*
X102850500Y-151863465D01*
X102850500Y-151734108D01*
X121299500Y-151734108D01*
X121299500Y-151865891D01*
X121333608Y-151993187D01*
X121366121Y-152049500D01*
X121399500Y-152107314D01*
X121492686Y-152200500D01*
X121606814Y-152266392D01*
X121734108Y-152300500D01*
X121734110Y-152300500D01*
X121865890Y-152300500D01*
X121865892Y-152300500D01*
X121993186Y-152266392D01*
X122107314Y-152200500D01*
X122200500Y-152107314D01*
X122266392Y-151993186D01*
X122300500Y-151865892D01*
X122300500Y-151734108D01*
X122266392Y-151606814D01*
X122200500Y-151492686D01*
X122107314Y-151399500D01*
X122050250Y-151366554D01*
X121993187Y-151333608D01*
X121929539Y-151316554D01*
X121865892Y-151299500D01*
X121734108Y-151299500D01*
X121606812Y-151333608D01*
X121492686Y-151399500D01*
X121492683Y-151399502D01*
X121399502Y-151492683D01*
X121399500Y-151492686D01*
X121333608Y-151606812D01*
X121299500Y-151734108D01*
X102850500Y-151734108D01*
X102850500Y-151656535D01*
X102810130Y-151453580D01*
X102730941Y-151262402D01*
X102615977Y-151090345D01*
X102615975Y-151090342D01*
X102469657Y-150944024D01*
X102383626Y-150886541D01*
X102297598Y-150829059D01*
X102145095Y-150765890D01*
X102106420Y-150749870D01*
X102106412Y-150749868D01*
X102095000Y-150747598D01*
X101903469Y-150709500D01*
X101903465Y-150709500D01*
X101696535Y-150709500D01*
X101696530Y-150709500D01*
X101493587Y-150749868D01*
X101493579Y-150749870D01*
X101302403Y-150829058D01*
X101130342Y-150944024D01*
X100984024Y-151090342D01*
X100869058Y-151262403D01*
X100789870Y-151453579D01*
X100789868Y-151453587D01*
X100749500Y-151656530D01*
X98600499Y-151656530D01*
X98600499Y-150634108D01*
X123099500Y-150634108D01*
X123099500Y-150765891D01*
X123133608Y-150893187D01*
X123162959Y-150944023D01*
X123199500Y-151007314D01*
X123292686Y-151100500D01*
X123406814Y-151166392D01*
X123534108Y-151200500D01*
X123534110Y-151200500D01*
X123665890Y-151200500D01*
X123665892Y-151200500D01*
X123793186Y-151166392D01*
X123907314Y-151100500D01*
X124000500Y-151007314D01*
X124066392Y-150893186D01*
X124100500Y-150765892D01*
X124100500Y-150634108D01*
X124066392Y-150506814D01*
X124000500Y-150392686D01*
X123907314Y-150299500D01*
X123850250Y-150266554D01*
X123793187Y-150233608D01*
X123729539Y-150216554D01*
X123665892Y-150199500D01*
X123534108Y-150199500D01*
X123406812Y-150233608D01*
X123292686Y-150299500D01*
X123292683Y-150299502D01*
X123199502Y-150392683D01*
X123199500Y-150392686D01*
X123133608Y-150506812D01*
X123099500Y-150634108D01*
X98600499Y-150634108D01*
X98600499Y-149116530D01*
X100749500Y-149116530D01*
X100749500Y-149323469D01*
X100785970Y-149506814D01*
X100789870Y-149526420D01*
X100869059Y-149717598D01*
X100901327Y-149765891D01*
X100984024Y-149889657D01*
X101130342Y-150035975D01*
X101130345Y-150035977D01*
X101302402Y-150150941D01*
X101493580Y-150230130D01*
X101696530Y-150270499D01*
X101696534Y-150270500D01*
X101696535Y-150270500D01*
X101903466Y-150270500D01*
X101903467Y-150270499D01*
X102106420Y-150230130D01*
X102297598Y-150150941D01*
X102469655Y-150035977D01*
X102615977Y-149889655D01*
X102730941Y-149717598D01*
X102765524Y-149634108D01*
X136974500Y-149634108D01*
X136974500Y-149765891D01*
X137008608Y-149893187D01*
X137041554Y-149950250D01*
X137074500Y-150007314D01*
X137167686Y-150100500D01*
X137281814Y-150166392D01*
X137409108Y-150200500D01*
X137409110Y-150200500D01*
X137540890Y-150200500D01*
X137540892Y-150200500D01*
X137668186Y-150166392D01*
X137782314Y-150100500D01*
X137875500Y-150007314D01*
X137941392Y-149893186D01*
X137975500Y-149765892D01*
X137975500Y-149634108D01*
X137941392Y-149506814D01*
X137875500Y-149392686D01*
X137782314Y-149299500D01*
X137725250Y-149266554D01*
X137668187Y-149233608D01*
X137603931Y-149216391D01*
X137540892Y-149199500D01*
X137409108Y-149199500D01*
X137281812Y-149233608D01*
X137167686Y-149299500D01*
X137167683Y-149299502D01*
X137074502Y-149392683D01*
X137074500Y-149392686D01*
X137008608Y-149506812D01*
X136974500Y-149634108D01*
X102765524Y-149634108D01*
X102810130Y-149526420D01*
X102850500Y-149323465D01*
X102850500Y-149116535D01*
X102810130Y-148913580D01*
X102730941Y-148722402D01*
X102615977Y-148550345D01*
X102615975Y-148550342D01*
X102469657Y-148404024D01*
X102364892Y-148334023D01*
X102297598Y-148289059D01*
X102284438Y-148283608D01*
X102106420Y-148209870D01*
X102106412Y-148209868D01*
X101903469Y-148169500D01*
X101903465Y-148169500D01*
X101696535Y-148169500D01*
X101696530Y-148169500D01*
X101493587Y-148209868D01*
X101493579Y-148209870D01*
X101302403Y-148289058D01*
X101130342Y-148404024D01*
X100984024Y-148550342D01*
X100869058Y-148722403D01*
X100789870Y-148913579D01*
X100789868Y-148913587D01*
X100749500Y-149116530D01*
X98600499Y-149116530D01*
X98600499Y-146576530D01*
X100749500Y-146576530D01*
X100749500Y-146783469D01*
X100789868Y-146986412D01*
X100789870Y-146986420D01*
X100860449Y-147156813D01*
X100869059Y-147177598D01*
X100894646Y-147215892D01*
X100984024Y-147349657D01*
X101130342Y-147495975D01*
X101130345Y-147495977D01*
X101302402Y-147610941D01*
X101493580Y-147690130D01*
X101696530Y-147730499D01*
X101696534Y-147730500D01*
X101696535Y-147730500D01*
X101903466Y-147730500D01*
X101903467Y-147730499D01*
X102106420Y-147690130D01*
X102297598Y-147610941D01*
X102337757Y-147584108D01*
X120299500Y-147584108D01*
X120299500Y-147715892D01*
X120308772Y-147750497D01*
X120333608Y-147843187D01*
X120366554Y-147900250D01*
X120399500Y-147957314D01*
X120492686Y-148050500D01*
X120606814Y-148116392D01*
X120734108Y-148150500D01*
X120734110Y-148150500D01*
X120865890Y-148150500D01*
X120865892Y-148150500D01*
X120993186Y-148116392D01*
X121107314Y-148050500D01*
X121200500Y-147957314D01*
X121213898Y-147934108D01*
X132699500Y-147934108D01*
X132699500Y-148065891D01*
X132733608Y-148193187D01*
X132748545Y-148219058D01*
X132799500Y-148307314D01*
X132892686Y-148400500D01*
X133006814Y-148466392D01*
X133134108Y-148500500D01*
X133134110Y-148500500D01*
X133265890Y-148500500D01*
X133265892Y-148500500D01*
X133393186Y-148466392D01*
X133447015Y-148435313D01*
X133514913Y-148418840D01*
X133580940Y-148441691D01*
X133624132Y-148496612D01*
X133630775Y-148566165D01*
X133628790Y-148574792D01*
X133599500Y-148684106D01*
X133599500Y-148815891D01*
X133633608Y-148943187D01*
X133653962Y-148978440D01*
X133699500Y-149057314D01*
X133792686Y-149150500D01*
X133906814Y-149216392D01*
X134034108Y-149250500D01*
X134034110Y-149250500D01*
X134165890Y-149250500D01*
X134165892Y-149250500D01*
X134293186Y-149216392D01*
X134407314Y-149150500D01*
X134500500Y-149057314D01*
X134506726Y-149046530D01*
X149319500Y-149046530D01*
X149319500Y-149253469D01*
X149359868Y-149456412D01*
X149359870Y-149456420D01*
X149439058Y-149647596D01*
X149554024Y-149819657D01*
X149700342Y-149965975D01*
X149700345Y-149965977D01*
X149872402Y-150080941D01*
X150063580Y-150160130D01*
X150261508Y-150199500D01*
X150266530Y-150200499D01*
X150266534Y-150200500D01*
X150266535Y-150200500D01*
X150473466Y-150200500D01*
X150473467Y-150200499D01*
X150676420Y-150160130D01*
X150867598Y-150080941D01*
X151039655Y-149965977D01*
X151185977Y-149819655D01*
X151300941Y-149647598D01*
X151380130Y-149456420D01*
X151420500Y-149253465D01*
X151420500Y-149046535D01*
X151380130Y-148843580D01*
X151300941Y-148652402D01*
X151185977Y-148480345D01*
X151185975Y-148480342D01*
X151039657Y-148334024D01*
X150913156Y-148249500D01*
X150867598Y-148219059D01*
X150839243Y-148207314D01*
X150676420Y-148139870D01*
X150676412Y-148139868D01*
X150473469Y-148099500D01*
X150473465Y-148099500D01*
X150266535Y-148099500D01*
X150266530Y-148099500D01*
X150063587Y-148139868D01*
X150063579Y-148139870D01*
X149872403Y-148219058D01*
X149700342Y-148334024D01*
X149554024Y-148480342D01*
X149439058Y-148652403D01*
X149359870Y-148843579D01*
X149359868Y-148843587D01*
X149319500Y-149046530D01*
X134506726Y-149046530D01*
X134566392Y-148943186D01*
X134600500Y-148815892D01*
X134600500Y-148684108D01*
X134566392Y-148556814D01*
X134500500Y-148442686D01*
X134407314Y-148349500D01*
X134335964Y-148308306D01*
X134293187Y-148283608D01*
X134229539Y-148266554D01*
X134165892Y-148249500D01*
X134034108Y-148249500D01*
X133906814Y-148283608D01*
X133906813Y-148283608D01*
X133906811Y-148283609D01*
X133906810Y-148283609D01*
X133852984Y-148314686D01*
X133785084Y-148331159D01*
X133719057Y-148308306D01*
X133675866Y-148253385D01*
X133669225Y-148183832D01*
X133671203Y-148175229D01*
X133700500Y-148065892D01*
X133700500Y-147934108D01*
X133666392Y-147806814D01*
X133600500Y-147692686D01*
X133507314Y-147599500D01*
X133422439Y-147550497D01*
X133393187Y-147533608D01*
X133329539Y-147516554D01*
X133265892Y-147499500D01*
X133134108Y-147499500D01*
X133006812Y-147533608D01*
X132892686Y-147599500D01*
X132892683Y-147599502D01*
X132799502Y-147692683D01*
X132799500Y-147692686D01*
X132733608Y-147806812D01*
X132699500Y-147934108D01*
X121213898Y-147934108D01*
X121266392Y-147843186D01*
X121300500Y-147715892D01*
X121300500Y-147584108D01*
X121266392Y-147456814D01*
X121242764Y-147415890D01*
X121200503Y-147342691D01*
X121200502Y-147342690D01*
X121200500Y-147342686D01*
X121141922Y-147284108D01*
X130799500Y-147284108D01*
X130799500Y-147415892D01*
X130816554Y-147479539D01*
X130833608Y-147543187D01*
X130862185Y-147592683D01*
X130899500Y-147657314D01*
X130992686Y-147750500D01*
X131090221Y-147806812D01*
X131106810Y-147816390D01*
X131106814Y-147816392D01*
X131234108Y-147850500D01*
X131234110Y-147850500D01*
X131365890Y-147850500D01*
X131365892Y-147850500D01*
X131493186Y-147816392D01*
X131607314Y-147750500D01*
X131700500Y-147657314D01*
X131766392Y-147543186D01*
X131800500Y-147415892D01*
X131800500Y-147284108D01*
X138399500Y-147284108D01*
X138399500Y-147415892D01*
X138416554Y-147479539D01*
X138433608Y-147543187D01*
X138462185Y-147592683D01*
X138499500Y-147657314D01*
X138592686Y-147750500D01*
X138690221Y-147806812D01*
X138706810Y-147816390D01*
X138706814Y-147816392D01*
X138834108Y-147850500D01*
X138834110Y-147850500D01*
X138965890Y-147850500D01*
X138965892Y-147850500D01*
X139027068Y-147834108D01*
X147399500Y-147834108D01*
X147399500Y-147965891D01*
X147433608Y-148093187D01*
X147437253Y-148099500D01*
X147499500Y-148207314D01*
X147592686Y-148300500D01*
X147706814Y-148366392D01*
X147834108Y-148400500D01*
X147834110Y-148400500D01*
X147965890Y-148400500D01*
X147965892Y-148400500D01*
X148093186Y-148366392D01*
X148207314Y-148300500D01*
X148300500Y-148207314D01*
X148366392Y-148093186D01*
X148400500Y-147965892D01*
X148400500Y-147834108D01*
X148366392Y-147706814D01*
X148300500Y-147592686D01*
X148207314Y-147499500D01*
X148150250Y-147466554D01*
X148093187Y-147433608D01*
X148027061Y-147415890D01*
X147965892Y-147399500D01*
X147834108Y-147399500D01*
X147706812Y-147433608D01*
X147592686Y-147499500D01*
X147592683Y-147499502D01*
X147499502Y-147592683D01*
X147499500Y-147592686D01*
X147433608Y-147706812D01*
X147399500Y-147834108D01*
X139027068Y-147834108D01*
X139093186Y-147816392D01*
X139207314Y-147750500D01*
X139300500Y-147657314D01*
X139366392Y-147543186D01*
X139400500Y-147415892D01*
X139400500Y-147284108D01*
X139366392Y-147156814D01*
X139300500Y-147042686D01*
X139291922Y-147034108D01*
X141149500Y-147034108D01*
X141149500Y-147165891D01*
X141183608Y-147293187D01*
X141212185Y-147342683D01*
X141249500Y-147407314D01*
X141342686Y-147500500D01*
X141456814Y-147566392D01*
X141584108Y-147600500D01*
X141584110Y-147600500D01*
X141715890Y-147600500D01*
X141715892Y-147600500D01*
X141843186Y-147566392D01*
X141957314Y-147500500D01*
X142050500Y-147407314D01*
X142116392Y-147293186D01*
X142150500Y-147165892D01*
X142150500Y-147084108D01*
X144399500Y-147084108D01*
X144399500Y-147215891D01*
X144433608Y-147343187D01*
X144466121Y-147399500D01*
X144499500Y-147457314D01*
X144592686Y-147550500D01*
X144706814Y-147616392D01*
X144834108Y-147650500D01*
X144834110Y-147650500D01*
X144965890Y-147650500D01*
X144965892Y-147650500D01*
X145093186Y-147616392D01*
X145207314Y-147550500D01*
X145300500Y-147457314D01*
X145366392Y-147343186D01*
X145400500Y-147215892D01*
X145400500Y-147084108D01*
X145366392Y-146956814D01*
X145300500Y-146842686D01*
X145207314Y-146749500D01*
X145144907Y-146713469D01*
X145093187Y-146683608D01*
X145029539Y-146666554D01*
X144965892Y-146649500D01*
X144834108Y-146649500D01*
X144706812Y-146683608D01*
X144592686Y-146749500D01*
X144592683Y-146749502D01*
X144499502Y-146842683D01*
X144499500Y-146842686D01*
X144433608Y-146956812D01*
X144399500Y-147084108D01*
X142150500Y-147084108D01*
X142150500Y-147034108D01*
X142116392Y-146906814D01*
X142050500Y-146792686D01*
X141957314Y-146699500D01*
X141870712Y-146649500D01*
X141843187Y-146633608D01*
X141822049Y-146627944D01*
X141715892Y-146599500D01*
X141584108Y-146599500D01*
X141456812Y-146633608D01*
X141342686Y-146699500D01*
X141342683Y-146699502D01*
X141249502Y-146792683D01*
X141249500Y-146792686D01*
X141183608Y-146906812D01*
X141149500Y-147034108D01*
X139291922Y-147034108D01*
X139207314Y-146949500D01*
X139133380Y-146906814D01*
X139093187Y-146883608D01*
X139029539Y-146866554D01*
X138965892Y-146849500D01*
X138834108Y-146849500D01*
X138706812Y-146883608D01*
X138592686Y-146949500D01*
X138592683Y-146949502D01*
X138499502Y-147042683D01*
X138499500Y-147042686D01*
X138433608Y-147156812D01*
X138400693Y-147279655D01*
X138399500Y-147284108D01*
X131800500Y-147284108D01*
X131766392Y-147156814D01*
X131700500Y-147042686D01*
X131607314Y-146949500D01*
X131533380Y-146906814D01*
X131493187Y-146883608D01*
X131429539Y-146866554D01*
X131365892Y-146849500D01*
X131234108Y-146849500D01*
X131106812Y-146883608D01*
X130992686Y-146949500D01*
X130992683Y-146949502D01*
X130899502Y-147042683D01*
X130899500Y-147042686D01*
X130833608Y-147156812D01*
X130800693Y-147279655D01*
X130799500Y-147284108D01*
X121141922Y-147284108D01*
X121107314Y-147249500D01*
X121049100Y-147215890D01*
X120993187Y-147183608D01*
X120893188Y-147156814D01*
X120865892Y-147149500D01*
X120734108Y-147149500D01*
X120606812Y-147183608D01*
X120492686Y-147249500D01*
X120492683Y-147249502D01*
X120399502Y-147342683D01*
X120399500Y-147342686D01*
X120333608Y-147456812D01*
X120308506Y-147550497D01*
X120299500Y-147584108D01*
X102337757Y-147584108D01*
X102469655Y-147495977D01*
X102469658Y-147495974D01*
X102477333Y-147488300D01*
X102615974Y-147349658D01*
X102615975Y-147349657D01*
X102615977Y-147349655D01*
X102730941Y-147177598D01*
X102810130Y-146986420D01*
X102850500Y-146783465D01*
X102850500Y-146576535D01*
X102836575Y-146506530D01*
X149319500Y-146506530D01*
X149319500Y-146713469D01*
X149359868Y-146916412D01*
X149359870Y-146916420D01*
X149439058Y-147107596D01*
X149554024Y-147279657D01*
X149700342Y-147425975D01*
X149700345Y-147425977D01*
X149872402Y-147540941D01*
X150063580Y-147620130D01*
X150250513Y-147657313D01*
X150266530Y-147660499D01*
X150266534Y-147660500D01*
X150266535Y-147660500D01*
X150473466Y-147660500D01*
X150473467Y-147660499D01*
X150676420Y-147620130D01*
X150867598Y-147540941D01*
X151039655Y-147425977D01*
X151185977Y-147279655D01*
X151300941Y-147107598D01*
X151380130Y-146916420D01*
X151420500Y-146713465D01*
X151420500Y-146506535D01*
X151380130Y-146303580D01*
X151300941Y-146112402D01*
X151185977Y-145940345D01*
X151185975Y-145940342D01*
X151039657Y-145794024D01*
X150875154Y-145684108D01*
X150867598Y-145679059D01*
X150759077Y-145634108D01*
X150676420Y-145599870D01*
X150676412Y-145599868D01*
X150473469Y-145559500D01*
X150473465Y-145559500D01*
X150266535Y-145559500D01*
X150266530Y-145559500D01*
X150063587Y-145599868D01*
X150063579Y-145599870D01*
X149872403Y-145679058D01*
X149700342Y-145794024D01*
X149554024Y-145940342D01*
X149439058Y-146112403D01*
X149359870Y-146303579D01*
X149359868Y-146303587D01*
X149319500Y-146506530D01*
X102836575Y-146506530D01*
X102810130Y-146373580D01*
X102730941Y-146182402D01*
X102615977Y-146010345D01*
X102615975Y-146010342D01*
X102469657Y-145864024D01*
X102364892Y-145794023D01*
X102297598Y-145749059D01*
X102180364Y-145700499D01*
X102106420Y-145669870D01*
X102106412Y-145669868D01*
X101926635Y-145634108D01*
X118999500Y-145634108D01*
X118999500Y-145765891D01*
X119033608Y-145893187D01*
X119060835Y-145940345D01*
X119099500Y-146007314D01*
X119192686Y-146100500D01*
X119306814Y-146166392D01*
X119434108Y-146200500D01*
X119434110Y-146200500D01*
X119565890Y-146200500D01*
X119565892Y-146200500D01*
X119693186Y-146166392D01*
X119807314Y-146100500D01*
X119900500Y-146007314D01*
X119966392Y-145893186D01*
X120000500Y-145765892D01*
X120000500Y-145634108D01*
X119980359Y-145558940D01*
X119982022Y-145489095D01*
X120021184Y-145431233D01*
X120085412Y-145403728D01*
X120148838Y-145414393D01*
X120149300Y-145413280D01*
X120154139Y-145415284D01*
X120154315Y-145415314D01*
X120154684Y-145415509D01*
X120156809Y-145416389D01*
X120156814Y-145416392D01*
X120284108Y-145450500D01*
X120284110Y-145450500D01*
X120387098Y-145450500D01*
X120454137Y-145470185D01*
X120499892Y-145522989D01*
X120509836Y-145592147D01*
X120506874Y-145606585D01*
X120506679Y-145607316D01*
X120499500Y-145634108D01*
X120499500Y-145765891D01*
X120533608Y-145893187D01*
X120560835Y-145940345D01*
X120599500Y-146007314D01*
X120692686Y-146100500D01*
X120806814Y-146166392D01*
X120934108Y-146200500D01*
X120934110Y-146200500D01*
X121065890Y-146200500D01*
X121065892Y-146200500D01*
X121193186Y-146166392D01*
X121307314Y-146100500D01*
X121400500Y-146007314D01*
X121466392Y-145893186D01*
X121500500Y-145765892D01*
X121500500Y-145634108D01*
X121466392Y-145506814D01*
X121400500Y-145392686D01*
X121307314Y-145299500D01*
X121220712Y-145249500D01*
X121194053Y-145234108D01*
X125587000Y-145234108D01*
X125587000Y-145365892D01*
X125600295Y-145415509D01*
X125621108Y-145493187D01*
X125628975Y-145506812D01*
X125687000Y-145607314D01*
X125780186Y-145700500D01*
X125879021Y-145757563D01*
X125893444Y-145765890D01*
X125894314Y-145766392D01*
X126021608Y-145800500D01*
X126021610Y-145800500D01*
X126153390Y-145800500D01*
X126153392Y-145800500D01*
X126280686Y-145766392D01*
X126394814Y-145700500D01*
X126488000Y-145607314D01*
X126553892Y-145493186D01*
X126588000Y-145365892D01*
X126588000Y-145234108D01*
X126862000Y-145234108D01*
X126862000Y-145365892D01*
X126875295Y-145415509D01*
X126896108Y-145493187D01*
X126903975Y-145506812D01*
X126962000Y-145607314D01*
X127055186Y-145700500D01*
X127154021Y-145757563D01*
X127168444Y-145765890D01*
X127169314Y-145766392D01*
X127296608Y-145800500D01*
X127296610Y-145800500D01*
X127428390Y-145800500D01*
X127428392Y-145800500D01*
X127555686Y-145766392D01*
X127669814Y-145700500D01*
X127763000Y-145607314D01*
X127828892Y-145493186D01*
X127863000Y-145365892D01*
X127863000Y-145234108D01*
X128137000Y-145234108D01*
X128137000Y-145365892D01*
X128150295Y-145415509D01*
X128171108Y-145493187D01*
X128178975Y-145506812D01*
X128237000Y-145607314D01*
X128330186Y-145700500D01*
X128429021Y-145757563D01*
X128443444Y-145765890D01*
X128444314Y-145766392D01*
X128571608Y-145800500D01*
X128571610Y-145800500D01*
X128703390Y-145800500D01*
X128703392Y-145800500D01*
X128830686Y-145766392D01*
X128944814Y-145700500D01*
X129038000Y-145607314D01*
X129103892Y-145493186D01*
X129138000Y-145365892D01*
X129138000Y-145234108D01*
X129103892Y-145106814D01*
X129038000Y-144992686D01*
X128944814Y-144899500D01*
X128887750Y-144866554D01*
X128830687Y-144833608D01*
X128767039Y-144816554D01*
X128703392Y-144799500D01*
X128571608Y-144799500D01*
X128444312Y-144833608D01*
X128330186Y-144899500D01*
X128330183Y-144899502D01*
X128237002Y-144992683D01*
X128237000Y-144992686D01*
X128171108Y-145106812D01*
X128146273Y-145199500D01*
X128137000Y-145234108D01*
X127863000Y-145234108D01*
X127828892Y-145106814D01*
X127763000Y-144992686D01*
X127669814Y-144899500D01*
X127612750Y-144866554D01*
X127555687Y-144833608D01*
X127492039Y-144816554D01*
X127428392Y-144799500D01*
X127296608Y-144799500D01*
X127169312Y-144833608D01*
X127055186Y-144899500D01*
X127055183Y-144899502D01*
X126962002Y-144992683D01*
X126962000Y-144992686D01*
X126896108Y-145106812D01*
X126871273Y-145199500D01*
X126862000Y-145234108D01*
X126588000Y-145234108D01*
X126553892Y-145106814D01*
X126488000Y-144992686D01*
X126394814Y-144899500D01*
X126337750Y-144866554D01*
X126280687Y-144833608D01*
X126217039Y-144816554D01*
X126153392Y-144799500D01*
X126021608Y-144799500D01*
X125894312Y-144833608D01*
X125780186Y-144899500D01*
X125780183Y-144899502D01*
X125687002Y-144992683D01*
X125687000Y-144992686D01*
X125621108Y-145106812D01*
X125596273Y-145199500D01*
X125587000Y-145234108D01*
X121194053Y-145234108D01*
X121193187Y-145233608D01*
X121129539Y-145216554D01*
X121065892Y-145199500D01*
X120962902Y-145199500D01*
X120895863Y-145179815D01*
X120850108Y-145127011D01*
X120840164Y-145057853D01*
X120843127Y-145043407D01*
X120850500Y-145015892D01*
X120850500Y-144884108D01*
X120816392Y-144756814D01*
X120750500Y-144642686D01*
X120657314Y-144549500D01*
X120599100Y-144515890D01*
X120543187Y-144483608D01*
X120479539Y-144466554D01*
X120415892Y-144449500D01*
X120284108Y-144449500D01*
X120156812Y-144483608D01*
X120042686Y-144549500D01*
X120042683Y-144549502D01*
X119949502Y-144642683D01*
X119949500Y-144642686D01*
X119883608Y-144756812D01*
X119849500Y-144884108D01*
X119849500Y-145015892D01*
X119866712Y-145080130D01*
X119869640Y-145091055D01*
X119867977Y-145160905D01*
X119828814Y-145218767D01*
X119764586Y-145246271D01*
X119701161Y-145235605D01*
X119700700Y-145236720D01*
X119695852Y-145234712D01*
X119695684Y-145234684D01*
X119695327Y-145234494D01*
X119693188Y-145233609D01*
X119693187Y-145233608D01*
X119693186Y-145233608D01*
X119565892Y-145199500D01*
X119434108Y-145199500D01*
X119306812Y-145233608D01*
X119192686Y-145299500D01*
X119192683Y-145299502D01*
X119099502Y-145392683D01*
X119099500Y-145392686D01*
X119033608Y-145506812D01*
X118999500Y-145634108D01*
X101926635Y-145634108D01*
X101903469Y-145629500D01*
X101903465Y-145629500D01*
X101696535Y-145629500D01*
X101696530Y-145629500D01*
X101493587Y-145669868D01*
X101493579Y-145669870D01*
X101302403Y-145749058D01*
X101130342Y-145864024D01*
X100984024Y-146010342D01*
X100869058Y-146182403D01*
X100789870Y-146373579D01*
X100789868Y-146373587D01*
X100749500Y-146576530D01*
X98600499Y-146576530D01*
X98600499Y-145684108D01*
X98999500Y-145684108D01*
X98999500Y-145815891D01*
X99033608Y-145943187D01*
X99066554Y-146000250D01*
X99099500Y-146057314D01*
X99192686Y-146150500D01*
X99306814Y-146216392D01*
X99434108Y-146250500D01*
X99434110Y-146250500D01*
X99565890Y-146250500D01*
X99565892Y-146250500D01*
X99693186Y-146216392D01*
X99807314Y-146150500D01*
X99900500Y-146057314D01*
X99966392Y-145943186D01*
X100000500Y-145815892D01*
X100000500Y-145684108D01*
X99966392Y-145556814D01*
X99900500Y-145442686D01*
X99807314Y-145349500D01*
X99750250Y-145316554D01*
X99693187Y-145283608D01*
X99629539Y-145266554D01*
X99565892Y-145249500D01*
X99434108Y-145249500D01*
X99306812Y-145283608D01*
X99192686Y-145349500D01*
X99192683Y-145349502D01*
X99099502Y-145442683D01*
X99099500Y-145442686D01*
X99033608Y-145556812D01*
X98999500Y-145684108D01*
X98600499Y-145684108D01*
X98600499Y-144036530D01*
X100749500Y-144036530D01*
X100749500Y-144243469D01*
X100789868Y-144446412D01*
X100789870Y-144446420D01*
X100869059Y-144637598D01*
X100910420Y-144699500D01*
X100984024Y-144809657D01*
X101130342Y-144955975D01*
X101130345Y-144955977D01*
X101302402Y-145070941D01*
X101493580Y-145150130D01*
X101642818Y-145179815D01*
X101696530Y-145190499D01*
X101696534Y-145190500D01*
X101696535Y-145190500D01*
X101903466Y-145190500D01*
X101903467Y-145190499D01*
X102106420Y-145150130D01*
X102297598Y-145070941D01*
X102352723Y-145034108D01*
X115899500Y-145034108D01*
X115899500Y-145165892D01*
X115906094Y-145190500D01*
X115933608Y-145293187D01*
X115966121Y-145349500D01*
X115999500Y-145407314D01*
X116092686Y-145500500D01*
X116190221Y-145556812D01*
X116206810Y-145566390D01*
X116206814Y-145566392D01*
X116334108Y-145600500D01*
X116334110Y-145600500D01*
X116465890Y-145600500D01*
X116465892Y-145600500D01*
X116593186Y-145566392D01*
X116707314Y-145500500D01*
X116800500Y-145407314D01*
X116866392Y-145293186D01*
X116900500Y-145165892D01*
X116900500Y-145034108D01*
X116866392Y-144906814D01*
X116800500Y-144792686D01*
X116707314Y-144699500D01*
X116650250Y-144666554D01*
X116593187Y-144633608D01*
X116529539Y-144616554D01*
X116465892Y-144599500D01*
X116334108Y-144599500D01*
X116206812Y-144633608D01*
X116092686Y-144699500D01*
X116092683Y-144699502D01*
X115999502Y-144792683D01*
X115999500Y-144792686D01*
X115933608Y-144906812D01*
X115921902Y-144950500D01*
X115899500Y-145034108D01*
X102352723Y-145034108D01*
X102469655Y-144955977D01*
X102615977Y-144809655D01*
X102730941Y-144637598D01*
X102810130Y-144446420D01*
X102822525Y-144384108D01*
X105449500Y-144384108D01*
X105449500Y-144515892D01*
X105458505Y-144549500D01*
X105483608Y-144643187D01*
X105516121Y-144699500D01*
X105549500Y-144757314D01*
X105642686Y-144850500D01*
X105727560Y-144899502D01*
X105756810Y-144916390D01*
X105756814Y-144916392D01*
X105884108Y-144950500D01*
X105884110Y-144950500D01*
X106015890Y-144950500D01*
X106015892Y-144950500D01*
X106143186Y-144916392D01*
X106257314Y-144850500D01*
X106350500Y-144757314D01*
X106416392Y-144643186D01*
X106450500Y-144515892D01*
X106450500Y-144384108D01*
X106416392Y-144256814D01*
X106350500Y-144142686D01*
X106257314Y-144049500D01*
X106200250Y-144016554D01*
X106143187Y-143983608D01*
X106051757Y-143959110D01*
X106015892Y-143949500D01*
X105884108Y-143949500D01*
X105756812Y-143983608D01*
X105642686Y-144049500D01*
X105642683Y-144049502D01*
X105549502Y-144142683D01*
X105549500Y-144142686D01*
X105483608Y-144256812D01*
X105463378Y-144332313D01*
X105449500Y-144384108D01*
X102822525Y-144384108D01*
X102850500Y-144243465D01*
X102850500Y-144036535D01*
X102810130Y-143833580D01*
X102730941Y-143642402D01*
X102615977Y-143470345D01*
X102615975Y-143470342D01*
X102479741Y-143334108D01*
X114199500Y-143334108D01*
X114199500Y-143465892D01*
X114200693Y-143470345D01*
X114233608Y-143593187D01*
X114266554Y-143650250D01*
X114299500Y-143707314D01*
X114392686Y-143800500D01*
X114506814Y-143866392D01*
X114634108Y-143900500D01*
X114634110Y-143900500D01*
X114765890Y-143900500D01*
X114765892Y-143900500D01*
X114893186Y-143866392D01*
X115007314Y-143800500D01*
X115100500Y-143707314D01*
X115166392Y-143593186D01*
X115200500Y-143465892D01*
X115200500Y-143334108D01*
X115166392Y-143206814D01*
X115165633Y-143205500D01*
X115146126Y-143171712D01*
X115100500Y-143092686D01*
X115041922Y-143034108D01*
X119699500Y-143034108D01*
X119699500Y-143165892D01*
X119713031Y-143216391D01*
X119733608Y-143293187D01*
X119766554Y-143350250D01*
X119799500Y-143407314D01*
X119892686Y-143500500D01*
X120006814Y-143566392D01*
X120134108Y-143600500D01*
X120134110Y-143600500D01*
X120265890Y-143600500D01*
X120265892Y-143600500D01*
X120393186Y-143566392D01*
X120463500Y-143525795D01*
X120531399Y-143509323D01*
X120597426Y-143532175D01*
X120640617Y-143587096D01*
X120649500Y-143633183D01*
X120649500Y-143740892D01*
X120665472Y-143800500D01*
X120683608Y-143868187D01*
X120716554Y-143925250D01*
X120749500Y-143982314D01*
X120842686Y-144075500D01*
X120956814Y-144141392D01*
X121084108Y-144175500D01*
X121084110Y-144175500D01*
X121215890Y-144175500D01*
X121215892Y-144175500D01*
X121343186Y-144141392D01*
X121457314Y-144075500D01*
X121550500Y-143982314D01*
X121563898Y-143959108D01*
X125587000Y-143959108D01*
X125587000Y-144090891D01*
X125621108Y-144218187D01*
X125635703Y-144243465D01*
X125687000Y-144332314D01*
X125780186Y-144425500D01*
X125894314Y-144491392D01*
X126021608Y-144525500D01*
X126021610Y-144525500D01*
X126153390Y-144525500D01*
X126153392Y-144525500D01*
X126280686Y-144491392D01*
X126394814Y-144425500D01*
X126488000Y-144332314D01*
X126553892Y-144218186D01*
X126588000Y-144090892D01*
X126588000Y-143959108D01*
X126862000Y-143959108D01*
X126862000Y-144090891D01*
X126896108Y-144218187D01*
X126910703Y-144243465D01*
X126962000Y-144332314D01*
X127055186Y-144425500D01*
X127169314Y-144491392D01*
X127296608Y-144525500D01*
X127296610Y-144525500D01*
X127428390Y-144525500D01*
X127428392Y-144525500D01*
X127555686Y-144491392D01*
X127669814Y-144425500D01*
X127763000Y-144332314D01*
X127828892Y-144218186D01*
X127863000Y-144090892D01*
X127863000Y-143959108D01*
X128137000Y-143959108D01*
X128137000Y-144090891D01*
X128171108Y-144218187D01*
X128185703Y-144243465D01*
X128237000Y-144332314D01*
X128330186Y-144425500D01*
X128444314Y-144491392D01*
X128571608Y-144525500D01*
X128571610Y-144525500D01*
X128703390Y-144525500D01*
X128703392Y-144525500D01*
X128830686Y-144491392D01*
X128944814Y-144425500D01*
X129038000Y-144332314D01*
X129103892Y-144218186D01*
X129138000Y-144090892D01*
X129138000Y-143966530D01*
X149319500Y-143966530D01*
X149319500Y-144173469D01*
X149359868Y-144376412D01*
X149359870Y-144376420D01*
X149439058Y-144567596D01*
X149554024Y-144739657D01*
X149700342Y-144885975D01*
X149700345Y-144885977D01*
X149872402Y-145000941D01*
X150063580Y-145080130D01*
X150266530Y-145120499D01*
X150266534Y-145120500D01*
X150266535Y-145120500D01*
X150473466Y-145120500D01*
X150473467Y-145120499D01*
X150676420Y-145080130D01*
X150867598Y-145000941D01*
X151039655Y-144885977D01*
X151185977Y-144739655D01*
X151300941Y-144567598D01*
X151380130Y-144376420D01*
X151420500Y-144173465D01*
X151420500Y-143966535D01*
X151380130Y-143763580D01*
X151300941Y-143572402D01*
X151185977Y-143400345D01*
X151185975Y-143400342D01*
X151039657Y-143254024D01*
X150953626Y-143196541D01*
X150867598Y-143139059D01*
X150812875Y-143116392D01*
X150676420Y-143059870D01*
X150676412Y-143059868D01*
X150473469Y-143019500D01*
X150473465Y-143019500D01*
X150266535Y-143019500D01*
X150266530Y-143019500D01*
X150063587Y-143059868D01*
X150063579Y-143059870D01*
X149872403Y-143139058D01*
X149700342Y-143254024D01*
X149554024Y-143400342D01*
X149439058Y-143572403D01*
X149359870Y-143763579D01*
X149359868Y-143763587D01*
X149319500Y-143966530D01*
X129138000Y-143966530D01*
X129138000Y-143959108D01*
X129103892Y-143831814D01*
X129038000Y-143717686D01*
X128944814Y-143624500D01*
X128854578Y-143572402D01*
X128830687Y-143558608D01*
X128767039Y-143541554D01*
X128703392Y-143524500D01*
X128571608Y-143524500D01*
X128444312Y-143558608D01*
X128330186Y-143624500D01*
X128330183Y-143624502D01*
X128237002Y-143717683D01*
X128237000Y-143717686D01*
X128171108Y-143831812D01*
X128137000Y-143959108D01*
X127863000Y-143959108D01*
X127828892Y-143831814D01*
X127763000Y-143717686D01*
X127669814Y-143624500D01*
X127579578Y-143572402D01*
X127555687Y-143558608D01*
X127492039Y-143541554D01*
X127428392Y-143524500D01*
X127296608Y-143524500D01*
X127169312Y-143558608D01*
X127055186Y-143624500D01*
X127055183Y-143624502D01*
X126962002Y-143717683D01*
X126962000Y-143717686D01*
X126896108Y-143831812D01*
X126862000Y-143959108D01*
X126588000Y-143959108D01*
X126553892Y-143831814D01*
X126488000Y-143717686D01*
X126394814Y-143624500D01*
X126304578Y-143572402D01*
X126280687Y-143558608D01*
X126217039Y-143541554D01*
X126153392Y-143524500D01*
X126021608Y-143524500D01*
X125894312Y-143558608D01*
X125780186Y-143624500D01*
X125780183Y-143624502D01*
X125687002Y-143717683D01*
X125687000Y-143717686D01*
X125621108Y-143831812D01*
X125587000Y-143959108D01*
X121563898Y-143959108D01*
X121616392Y-143868186D01*
X121650500Y-143740892D01*
X121650500Y-143609108D01*
X121616392Y-143481814D01*
X121550500Y-143367686D01*
X121457314Y-143274500D01*
X121387353Y-143234108D01*
X121343185Y-143208607D01*
X121341220Y-143208081D01*
X121339749Y-143207184D01*
X121335682Y-143205500D01*
X121335944Y-143204865D01*
X121281562Y-143171712D01*
X121251037Y-143108863D01*
X121259336Y-143039488D01*
X121303825Y-142985613D01*
X121311306Y-142980930D01*
X121407314Y-142925500D01*
X121500500Y-142832314D01*
X121566392Y-142718186D01*
X121600500Y-142590892D01*
X121600500Y-142513170D01*
X121620185Y-142446131D01*
X121672989Y-142400376D01*
X121692402Y-142393396D01*
X121793186Y-142366392D01*
X121907314Y-142300500D01*
X121944092Y-142263721D01*
X122005412Y-142230237D01*
X122075104Y-142235221D01*
X122131038Y-142277091D01*
X122139159Y-142289403D01*
X122149500Y-142307314D01*
X122242686Y-142400500D01*
X122356814Y-142466392D01*
X122484108Y-142500500D01*
X122484110Y-142500500D01*
X122615890Y-142500500D01*
X122615892Y-142500500D01*
X122743186Y-142466392D01*
X122857314Y-142400500D01*
X122950500Y-142307314D01*
X123016392Y-142193186D01*
X123050500Y-142065892D01*
X123050500Y-141934108D01*
X123016392Y-141806814D01*
X123003283Y-141784108D01*
X124699500Y-141784108D01*
X124699500Y-141915892D01*
X124706680Y-141942689D01*
X124733608Y-142043187D01*
X124746717Y-142065892D01*
X124799500Y-142157314D01*
X124892686Y-142250500D01*
X124991084Y-142307310D01*
X125005944Y-142315890D01*
X125006814Y-142316392D01*
X125134108Y-142350500D01*
X125134110Y-142350500D01*
X125265890Y-142350500D01*
X125265892Y-142350500D01*
X125393186Y-142316392D01*
X125507314Y-142250500D01*
X125600500Y-142157314D01*
X125637121Y-142093883D01*
X125657644Y-142074314D01*
X125675889Y-142052601D01*
X125682600Y-142050518D01*
X125687685Y-142045671D01*
X125715531Y-142040303D01*
X125742621Y-142031900D01*
X125750911Y-142033483D01*
X125756291Y-142032447D01*
X125777629Y-142036392D01*
X125787530Y-142039136D01*
X125789705Y-142040392D01*
X125860316Y-142059312D01*
X125860749Y-142059432D01*
X125890009Y-142077613D01*
X125919379Y-142095515D01*
X125919621Y-142096014D01*
X125920094Y-142096308D01*
X125934858Y-142127379D01*
X125949909Y-142158362D01*
X125949842Y-142158914D01*
X125950081Y-142159416D01*
X125945707Y-142193504D01*
X125941615Y-142227737D01*
X125941260Y-142228166D01*
X125941190Y-142228717D01*
X125919050Y-142255065D01*
X125897130Y-142281616D01*
X125896313Y-142282126D01*
X125896243Y-142282211D01*
X125896116Y-142282250D01*
X125889627Y-142286312D01*
X125780192Y-142349495D01*
X125780183Y-142349502D01*
X125687002Y-142442683D01*
X125687000Y-142442686D01*
X125621108Y-142556812D01*
X125587000Y-142684108D01*
X125587000Y-142815891D01*
X125621108Y-142943187D01*
X125629266Y-142957316D01*
X125687000Y-143057314D01*
X125780186Y-143150500D01*
X125894314Y-143216392D01*
X126021608Y-143250500D01*
X126021610Y-143250500D01*
X126153390Y-143250500D01*
X126153392Y-143250500D01*
X126280686Y-143216392D01*
X126394814Y-143150500D01*
X126488000Y-143057314D01*
X126553892Y-142943186D01*
X126588000Y-142815892D01*
X126588000Y-142684108D01*
X126862000Y-142684108D01*
X126862000Y-142815891D01*
X126896108Y-142943187D01*
X126904266Y-142957316D01*
X126962000Y-143057314D01*
X127055186Y-143150500D01*
X127169314Y-143216392D01*
X127296608Y-143250500D01*
X127296610Y-143250500D01*
X127428390Y-143250500D01*
X127428392Y-143250500D01*
X127555686Y-143216392D01*
X127669814Y-143150500D01*
X127763000Y-143057314D01*
X127828892Y-142943186D01*
X127863000Y-142815892D01*
X127863000Y-142684108D01*
X128137000Y-142684108D01*
X128137000Y-142815891D01*
X128171108Y-142943187D01*
X128179266Y-142957316D01*
X128237000Y-143057314D01*
X128330186Y-143150500D01*
X128444314Y-143216392D01*
X128571608Y-143250500D01*
X128571610Y-143250500D01*
X128703390Y-143250500D01*
X128703392Y-143250500D01*
X128830686Y-143216392D01*
X128944814Y-143150500D01*
X129038000Y-143057314D01*
X129103892Y-142943186D01*
X129138000Y-142815892D01*
X129138000Y-142684108D01*
X135849500Y-142684108D01*
X135849500Y-142815891D01*
X135883608Y-142943187D01*
X135891766Y-142957316D01*
X135949500Y-143057314D01*
X136042686Y-143150500D01*
X136156814Y-143216392D01*
X136284108Y-143250500D01*
X136284110Y-143250500D01*
X136415890Y-143250500D01*
X136415892Y-143250500D01*
X136477068Y-143234108D01*
X144399500Y-143234108D01*
X144399500Y-143365892D01*
X144416554Y-143429539D01*
X144433608Y-143493187D01*
X144451687Y-143524500D01*
X144499500Y-143607314D01*
X144592686Y-143700500D01*
X144662647Y-143740892D01*
X144701955Y-143763587D01*
X144706814Y-143766392D01*
X144834108Y-143800500D01*
X144834110Y-143800500D01*
X144965890Y-143800500D01*
X144965892Y-143800500D01*
X145093186Y-143766392D01*
X145207314Y-143700500D01*
X145300500Y-143607314D01*
X145366392Y-143493186D01*
X145400500Y-143365892D01*
X145400500Y-143234108D01*
X145366392Y-143106814D01*
X145300500Y-142992686D01*
X145207314Y-142899500D01*
X145150250Y-142866554D01*
X145093187Y-142833608D01*
X145027061Y-142815890D01*
X144965892Y-142799500D01*
X144834108Y-142799500D01*
X144706812Y-142833608D01*
X144592686Y-142899500D01*
X144592683Y-142899502D01*
X144499502Y-142992683D01*
X144499500Y-142992686D01*
X144433608Y-143106812D01*
X144407165Y-143205500D01*
X144399500Y-143234108D01*
X136477068Y-143234108D01*
X136543186Y-143216392D01*
X136657314Y-143150500D01*
X136750500Y-143057314D01*
X136816392Y-142943186D01*
X136850500Y-142815892D01*
X136850500Y-142684108D01*
X136816392Y-142556814D01*
X136750500Y-142442686D01*
X136657314Y-142349500D01*
X136599100Y-142315890D01*
X136543187Y-142283608D01*
X136468973Y-142263723D01*
X136415892Y-142249500D01*
X136284108Y-142249500D01*
X136156812Y-142283608D01*
X136042686Y-142349500D01*
X136042683Y-142349502D01*
X135949502Y-142442683D01*
X135949500Y-142442686D01*
X135883608Y-142556812D01*
X135849500Y-142684108D01*
X129138000Y-142684108D01*
X129103892Y-142556814D01*
X129038000Y-142442686D01*
X128944814Y-142349500D01*
X128886600Y-142315890D01*
X128830687Y-142283608D01*
X128756473Y-142263723D01*
X128703392Y-142249500D01*
X128571608Y-142249500D01*
X128444312Y-142283608D01*
X128330186Y-142349500D01*
X128330183Y-142349502D01*
X128237002Y-142442683D01*
X128237000Y-142442686D01*
X128171108Y-142556812D01*
X128137000Y-142684108D01*
X127863000Y-142684108D01*
X127828892Y-142556814D01*
X127763000Y-142442686D01*
X127669814Y-142349500D01*
X127611600Y-142315890D01*
X127555687Y-142283608D01*
X127481473Y-142263723D01*
X127428392Y-142249500D01*
X127296608Y-142249500D01*
X127169312Y-142283608D01*
X127055186Y-142349500D01*
X127055183Y-142349502D01*
X126962002Y-142442683D01*
X126962000Y-142442686D01*
X126896108Y-142556812D01*
X126862000Y-142684108D01*
X126588000Y-142684108D01*
X126553892Y-142556814D01*
X126488000Y-142442686D01*
X126394814Y-142349500D01*
X126336600Y-142315890D01*
X126280687Y-142283608D01*
X126246710Y-142274504D01*
X126210670Y-142264847D01*
X126151010Y-142228483D01*
X126120481Y-142165636D01*
X126128776Y-142096261D01*
X126173261Y-142042383D01*
X126180764Y-142037686D01*
X126189838Y-142032447D01*
X126290205Y-141974500D01*
X126383391Y-141881314D01*
X126449283Y-141767186D01*
X126483391Y-141639892D01*
X126483391Y-141508108D01*
X126461532Y-141426530D01*
X149319500Y-141426530D01*
X149319500Y-141633469D01*
X149359868Y-141836412D01*
X149359870Y-141836420D01*
X149421045Y-141984110D01*
X149439059Y-142027598D01*
X149470398Y-142074500D01*
X149554024Y-142199657D01*
X149700342Y-142345975D01*
X149700345Y-142345977D01*
X149872402Y-142460941D01*
X150063580Y-142540130D01*
X150266530Y-142580499D01*
X150266534Y-142580500D01*
X150266535Y-142580500D01*
X150473466Y-142580500D01*
X150473467Y-142580499D01*
X150676420Y-142540130D01*
X150867598Y-142460941D01*
X151039655Y-142345977D01*
X151185977Y-142199655D01*
X151300941Y-142027598D01*
X151380130Y-141836420D01*
X151420500Y-141633465D01*
X151420500Y-141426535D01*
X151380130Y-141223580D01*
X151363780Y-141184108D01*
X152549500Y-141184108D01*
X152549500Y-141315891D01*
X152583608Y-141443187D01*
X152614406Y-141496530D01*
X152649500Y-141557314D01*
X152742686Y-141650500D01*
X152856814Y-141716392D01*
X152984108Y-141750500D01*
X152984110Y-141750500D01*
X153115890Y-141750500D01*
X153115892Y-141750500D01*
X153243186Y-141716392D01*
X153357314Y-141650500D01*
X153450500Y-141557314D01*
X153516392Y-141443186D01*
X153550500Y-141315892D01*
X153550500Y-141184108D01*
X153516392Y-141056814D01*
X153450500Y-140942686D01*
X153357314Y-140849500D01*
X153300250Y-140816554D01*
X153243187Y-140783608D01*
X153179539Y-140766554D01*
X153115892Y-140749500D01*
X152984108Y-140749500D01*
X152856812Y-140783608D01*
X152742686Y-140849500D01*
X152742683Y-140849502D01*
X152649502Y-140942683D01*
X152649500Y-140942686D01*
X152583608Y-141056812D01*
X152549500Y-141184108D01*
X151363780Y-141184108D01*
X151300941Y-141032402D01*
X151185977Y-140860345D01*
X151185975Y-140860342D01*
X151039657Y-140714024D01*
X150953626Y-140656541D01*
X150867598Y-140599059D01*
X150676420Y-140519870D01*
X150676412Y-140519868D01*
X150473469Y-140479500D01*
X150473465Y-140479500D01*
X150266535Y-140479500D01*
X150266530Y-140479500D01*
X150063587Y-140519868D01*
X150063579Y-140519870D01*
X149872403Y-140599058D01*
X149700342Y-140714024D01*
X149554024Y-140860342D01*
X149439058Y-141032403D01*
X149359870Y-141223579D01*
X149359868Y-141223587D01*
X149319500Y-141426530D01*
X126461532Y-141426530D01*
X126449283Y-141380814D01*
X126383391Y-141266686D01*
X126290205Y-141173500D01*
X126233141Y-141140554D01*
X126176078Y-141107608D01*
X126112430Y-141090554D01*
X126048783Y-141073500D01*
X125916999Y-141073500D01*
X125789703Y-141107608D01*
X125675577Y-141173500D01*
X125675574Y-141173502D01*
X125582393Y-141266683D01*
X125582389Y-141266689D01*
X125545769Y-141330115D01*
X125495201Y-141378329D01*
X125426594Y-141391551D01*
X125401168Y-141385222D01*
X125401037Y-141385712D01*
X125393187Y-141383608D01*
X125393186Y-141383608D01*
X125265892Y-141349500D01*
X125134108Y-141349500D01*
X125006812Y-141383608D01*
X124892686Y-141449500D01*
X124892683Y-141449502D01*
X124799502Y-141542683D01*
X124799500Y-141542686D01*
X124733608Y-141656812D01*
X124717644Y-141716392D01*
X124699500Y-141784108D01*
X123003283Y-141784108D01*
X122950500Y-141692686D01*
X122857314Y-141599500D01*
X122800250Y-141566554D01*
X122743187Y-141533608D01*
X122648025Y-141508110D01*
X122615892Y-141499500D01*
X122484108Y-141499500D01*
X122356812Y-141533608D01*
X122242686Y-141599500D01*
X122242682Y-141599503D01*
X122205907Y-141636278D01*
X122144584Y-141669763D01*
X122074892Y-141664777D01*
X122018959Y-141622905D01*
X122010845Y-141610604D01*
X122000500Y-141592686D01*
X121907314Y-141499500D01*
X121825972Y-141452537D01*
X121793187Y-141433608D01*
X121729539Y-141416554D01*
X121665892Y-141399500D01*
X121534108Y-141399500D01*
X121406812Y-141433608D01*
X121292686Y-141499500D01*
X121292683Y-141499502D01*
X121199502Y-141592683D01*
X121199500Y-141592686D01*
X121133608Y-141706812D01*
X121099500Y-141834108D01*
X121099500Y-141911829D01*
X121079815Y-141978868D01*
X121027011Y-142024623D01*
X121007594Y-142031604D01*
X120967367Y-142042383D01*
X120906814Y-142058608D01*
X120906812Y-142058608D01*
X120906812Y-142058609D01*
X120792686Y-142124500D01*
X120792683Y-142124502D01*
X120699502Y-142217683D01*
X120699500Y-142217686D01*
X120633608Y-142331812D01*
X120599500Y-142459108D01*
X120599500Y-142537948D01*
X120579815Y-142604987D01*
X120527011Y-142650742D01*
X120457853Y-142660686D01*
X120413502Y-142645336D01*
X120393191Y-142633610D01*
X120393188Y-142633609D01*
X120393187Y-142633608D01*
X120393186Y-142633608D01*
X120265892Y-142599500D01*
X120134108Y-142599500D01*
X120006812Y-142633608D01*
X119919346Y-142684108D01*
X119892686Y-142699500D01*
X119799500Y-142792686D01*
X119781232Y-142824326D01*
X119781230Y-142824329D01*
X119733609Y-142906810D01*
X119733609Y-142906811D01*
X119733608Y-142906813D01*
X119733608Y-142906814D01*
X119699500Y-143034108D01*
X115041922Y-143034108D01*
X115007314Y-142999500D01*
X114950250Y-142966554D01*
X114893187Y-142933608D01*
X114793177Y-142906811D01*
X114765892Y-142899500D01*
X114634108Y-142899500D01*
X114506812Y-142933608D01*
X114392686Y-142999500D01*
X114392683Y-142999502D01*
X114299502Y-143092683D01*
X114299500Y-143092686D01*
X114233608Y-143206812D01*
X114202202Y-143324023D01*
X114199500Y-143334108D01*
X102479741Y-143334108D01*
X102469657Y-143324024D01*
X102359618Y-143250499D01*
X102297598Y-143209059D01*
X102296509Y-143208608D01*
X102106420Y-143129870D01*
X102106412Y-143129868D01*
X101903469Y-143089500D01*
X101903465Y-143089500D01*
X101696535Y-143089500D01*
X101696530Y-143089500D01*
X101493587Y-143129868D01*
X101493579Y-143129870D01*
X101302403Y-143209058D01*
X101130342Y-143324024D01*
X100984024Y-143470342D01*
X100869058Y-143642403D01*
X100789870Y-143833579D01*
X100789868Y-143833587D01*
X100749500Y-144036530D01*
X98600499Y-144036530D01*
X98600499Y-141496530D01*
X100749500Y-141496530D01*
X100749500Y-141703469D01*
X100789868Y-141906412D01*
X100789870Y-141906420D01*
X100869058Y-142097596D01*
X100984024Y-142269657D01*
X101130342Y-142415975D01*
X101130345Y-142415977D01*
X101302402Y-142530941D01*
X101493580Y-142610130D01*
X101670574Y-142645336D01*
X101696530Y-142650499D01*
X101696534Y-142650500D01*
X101696535Y-142650500D01*
X101903466Y-142650500D01*
X101903467Y-142650499D01*
X102106420Y-142610130D01*
X102169242Y-142584108D01*
X103649500Y-142584108D01*
X103649500Y-142715891D01*
X103683608Y-142843187D01*
X103716121Y-142899500D01*
X103749500Y-142957314D01*
X103842686Y-143050500D01*
X103956814Y-143116392D01*
X104084108Y-143150500D01*
X104084110Y-143150500D01*
X104215890Y-143150500D01*
X104215892Y-143150500D01*
X104343186Y-143116392D01*
X104457314Y-143050500D01*
X104550500Y-142957314D01*
X104616392Y-142843186D01*
X104650500Y-142715892D01*
X104650500Y-142584108D01*
X104616392Y-142456814D01*
X104550500Y-142342686D01*
X104457314Y-142249500D01*
X104370984Y-142199657D01*
X104344053Y-142184108D01*
X107999500Y-142184108D01*
X107999500Y-142315892D01*
X108013031Y-142366391D01*
X108033608Y-142443187D01*
X108066554Y-142500250D01*
X108099500Y-142557314D01*
X108192686Y-142650500D01*
X108291521Y-142707563D01*
X108305944Y-142715890D01*
X108306814Y-142716392D01*
X108434108Y-142750500D01*
X108434110Y-142750500D01*
X108565890Y-142750500D01*
X108565892Y-142750500D01*
X108693186Y-142716392D01*
X108807314Y-142650500D01*
X108900500Y-142557314D01*
X108966392Y-142443186D01*
X109000500Y-142315892D01*
X109000500Y-142184108D01*
X108966392Y-142056814D01*
X108963960Y-142052601D01*
X108955520Y-142037982D01*
X108955519Y-142037981D01*
X108924415Y-141984108D01*
X115599500Y-141984108D01*
X115599500Y-142115892D01*
X115610880Y-142158362D01*
X115633608Y-142243187D01*
X115656946Y-142283608D01*
X115699500Y-142357314D01*
X115792686Y-142450500D01*
X115906814Y-142516392D01*
X116034108Y-142550500D01*
X116034110Y-142550500D01*
X116165890Y-142550500D01*
X116165892Y-142550500D01*
X116293186Y-142516392D01*
X116407314Y-142450500D01*
X116500500Y-142357314D01*
X116566392Y-142243186D01*
X116582222Y-142184108D01*
X118799500Y-142184108D01*
X118799500Y-142315892D01*
X118813031Y-142366391D01*
X118833608Y-142443187D01*
X118866554Y-142500250D01*
X118899500Y-142557314D01*
X118992686Y-142650500D01*
X119091521Y-142707563D01*
X119105944Y-142715890D01*
X119106814Y-142716392D01*
X119234108Y-142750500D01*
X119234110Y-142750500D01*
X119365890Y-142750500D01*
X119365892Y-142750500D01*
X119493186Y-142716392D01*
X119607314Y-142650500D01*
X119700500Y-142557314D01*
X119766392Y-142443186D01*
X119800500Y-142315892D01*
X119800500Y-142184108D01*
X119766392Y-142056814D01*
X119700500Y-141942686D01*
X119607314Y-141849500D01*
X119550250Y-141816554D01*
X119493187Y-141783608D01*
X119429539Y-141766554D01*
X119365892Y-141749500D01*
X119234108Y-141749500D01*
X119106812Y-141783608D01*
X118992686Y-141849500D01*
X118992683Y-141849502D01*
X118899502Y-141942683D01*
X118899500Y-141942686D01*
X118833608Y-142056812D01*
X118799634Y-142183608D01*
X118799500Y-142184108D01*
X116582222Y-142184108D01*
X116600500Y-142115892D01*
X116600500Y-141984108D01*
X116566392Y-141856814D01*
X116500500Y-141742686D01*
X116407314Y-141649500D01*
X116320717Y-141599503D01*
X116293187Y-141583608D01*
X116229539Y-141566554D01*
X116165892Y-141549500D01*
X116034108Y-141549500D01*
X115906812Y-141583608D01*
X115792686Y-141649500D01*
X115792683Y-141649502D01*
X115699502Y-141742683D01*
X115699500Y-141742686D01*
X115633608Y-141856812D01*
X115617778Y-141915892D01*
X115599500Y-141984108D01*
X108924415Y-141984108D01*
X108921529Y-141979109D01*
X108900500Y-141942686D01*
X108807314Y-141849500D01*
X108750250Y-141816554D01*
X108693187Y-141783608D01*
X108629539Y-141766554D01*
X108565892Y-141749500D01*
X108434108Y-141749500D01*
X108306812Y-141783608D01*
X108192686Y-141849500D01*
X108192683Y-141849502D01*
X108099502Y-141942683D01*
X108099500Y-141942686D01*
X108033608Y-142056812D01*
X107999634Y-142183608D01*
X107999500Y-142184108D01*
X104344053Y-142184108D01*
X104343187Y-142183608D01*
X104252899Y-142159416D01*
X104215892Y-142149500D01*
X104084108Y-142149500D01*
X103956812Y-142183608D01*
X103842686Y-142249500D01*
X103842683Y-142249502D01*
X103749502Y-142342683D01*
X103749500Y-142342686D01*
X103683608Y-142456812D01*
X103649500Y-142584108D01*
X102169242Y-142584108D01*
X102297598Y-142530941D01*
X102405105Y-142459108D01*
X102429686Y-142442683D01*
X102469655Y-142415977D01*
X102615977Y-142269655D01*
X102730941Y-142097598D01*
X102810130Y-141906420D01*
X102850500Y-141703465D01*
X102850500Y-141496535D01*
X102810130Y-141293580D01*
X102730941Y-141102402D01*
X102615977Y-140930345D01*
X102615975Y-140930342D01*
X102469657Y-140784024D01*
X102364892Y-140714023D01*
X102297598Y-140669059D01*
X102106420Y-140589870D01*
X102106412Y-140589868D01*
X101903469Y-140549500D01*
X101903465Y-140549500D01*
X101696535Y-140549500D01*
X101696530Y-140549500D01*
X101493587Y-140589868D01*
X101493579Y-140589870D01*
X101302403Y-140669058D01*
X101130342Y-140784024D01*
X100984024Y-140930342D01*
X100869058Y-141102403D01*
X100789870Y-141293579D01*
X100789868Y-141293587D01*
X100749500Y-141496530D01*
X98600499Y-141496530D01*
X98600499Y-138956530D01*
X100749500Y-138956530D01*
X100749500Y-139163469D01*
X100789868Y-139366412D01*
X100789870Y-139366420D01*
X100869058Y-139557596D01*
X100984024Y-139729657D01*
X101130342Y-139875975D01*
X101130345Y-139875977D01*
X101302402Y-139990941D01*
X101493580Y-140070130D01*
X101696530Y-140110499D01*
X101696534Y-140110500D01*
X101696535Y-140110500D01*
X101903466Y-140110500D01*
X101903467Y-140110499D01*
X102106420Y-140070130D01*
X102297598Y-139990941D01*
X102457486Y-139884108D01*
X106549500Y-139884108D01*
X106549500Y-140015892D01*
X106556094Y-140040500D01*
X106583608Y-140143187D01*
X106616554Y-140200250D01*
X106649500Y-140257314D01*
X106742686Y-140350500D01*
X106856814Y-140416392D01*
X106984108Y-140450500D01*
X106984110Y-140450500D01*
X107115890Y-140450500D01*
X107115892Y-140450500D01*
X107243186Y-140416392D01*
X107357314Y-140350500D01*
X107450500Y-140257314D01*
X107516392Y-140143186D01*
X107550500Y-140015892D01*
X107550500Y-139884108D01*
X107516392Y-139756814D01*
X107450500Y-139642686D01*
X107357314Y-139549500D01*
X107300250Y-139516554D01*
X107243187Y-139483608D01*
X107179539Y-139466554D01*
X107115892Y-139449500D01*
X106984108Y-139449500D01*
X106856812Y-139483608D01*
X106742686Y-139549500D01*
X106742683Y-139549502D01*
X106649502Y-139642683D01*
X106649500Y-139642686D01*
X106583608Y-139756812D01*
X106560897Y-139841572D01*
X106549500Y-139884108D01*
X102457486Y-139884108D01*
X102469655Y-139875977D01*
X102504061Y-139841571D01*
X102557333Y-139788300D01*
X102615974Y-139729658D01*
X102615975Y-139729657D01*
X102615977Y-139729655D01*
X102730941Y-139557598D01*
X102810130Y-139366420D01*
X102824054Y-139296420D01*
X102828279Y-139275180D01*
X116458427Y-139275180D01*
X116458427Y-139406963D01*
X116492535Y-139534259D01*
X116497690Y-139543187D01*
X116558427Y-139648386D01*
X116651613Y-139741572D01*
X116765741Y-139807464D01*
X116893035Y-139841572D01*
X116893037Y-139841572D01*
X117024817Y-139841572D01*
X117024819Y-139841572D01*
X117152113Y-139807464D01*
X117266241Y-139741572D01*
X117359427Y-139648386D01*
X117425319Y-139534258D01*
X117459427Y-139406964D01*
X117459427Y-139284108D01*
X118949500Y-139284108D01*
X118949500Y-139415891D01*
X118983608Y-139543187D01*
X119016554Y-139600250D01*
X119049500Y-139657314D01*
X119142686Y-139750500D01*
X119256814Y-139816392D01*
X119384108Y-139850500D01*
X119384110Y-139850500D01*
X119515890Y-139850500D01*
X119515892Y-139850500D01*
X119643186Y-139816392D01*
X119757314Y-139750500D01*
X119850500Y-139657314D01*
X119916392Y-139543186D01*
X119950500Y-139415892D01*
X119950500Y-139284108D01*
X119916392Y-139156814D01*
X119850500Y-139042686D01*
X119757314Y-138949500D01*
X119700250Y-138916554D01*
X119643187Y-138883608D01*
X119579539Y-138866554D01*
X119515892Y-138849500D01*
X119384108Y-138849500D01*
X119256812Y-138883608D01*
X119142686Y-138949500D01*
X119142683Y-138949502D01*
X119049502Y-139042683D01*
X119049500Y-139042686D01*
X118983608Y-139156812D01*
X118949500Y-139284108D01*
X117459427Y-139284108D01*
X117459427Y-139275180D01*
X117425319Y-139147886D01*
X117359427Y-139033758D01*
X117266241Y-138940572D01*
X117209177Y-138907626D01*
X117152114Y-138874680D01*
X117053843Y-138848349D01*
X117024819Y-138840572D01*
X116893035Y-138840572D01*
X116765739Y-138874680D01*
X116651613Y-138940572D01*
X116651610Y-138940574D01*
X116558429Y-139033755D01*
X116558427Y-139033758D01*
X116492535Y-139147884D01*
X116458427Y-139275180D01*
X102828279Y-139275180D01*
X102834702Y-139242891D01*
X102834707Y-139242863D01*
X102850500Y-139163463D01*
X102850500Y-138956534D01*
X102850499Y-138956530D01*
X102834218Y-138874680D01*
X102810130Y-138753580D01*
X102730941Y-138562402D01*
X102615977Y-138390345D01*
X102615975Y-138390342D01*
X102469657Y-138244024D01*
X102305154Y-138134108D01*
X102297598Y-138129059D01*
X102267017Y-138116392D01*
X102106420Y-138049870D01*
X102106412Y-138049868D01*
X101903469Y-138009500D01*
X101903465Y-138009500D01*
X101696535Y-138009500D01*
X101696530Y-138009500D01*
X101493587Y-138049868D01*
X101493579Y-138049870D01*
X101302403Y-138129058D01*
X101130342Y-138244024D01*
X100984024Y-138390342D01*
X100869058Y-138562403D01*
X100789870Y-138753579D01*
X100789868Y-138753587D01*
X100749500Y-138956530D01*
X98600499Y-138956530D01*
X98600499Y-137584108D01*
X99199500Y-137584108D01*
X99199500Y-137715891D01*
X99233608Y-137843187D01*
X99262185Y-137892683D01*
X99299500Y-137957314D01*
X99392686Y-138050500D01*
X99506814Y-138116392D01*
X99634108Y-138150500D01*
X99634110Y-138150500D01*
X99765890Y-138150500D01*
X99765892Y-138150500D01*
X99893186Y-138116392D01*
X100007314Y-138050500D01*
X100100500Y-137957314D01*
X100166392Y-137843186D01*
X100200500Y-137715892D01*
X100200500Y-137584108D01*
X100166392Y-137456814D01*
X100100500Y-137342686D01*
X100007314Y-137249500D01*
X99950250Y-137216554D01*
X99893187Y-137183608D01*
X99829539Y-137166554D01*
X99765892Y-137149500D01*
X99634108Y-137149500D01*
X99506812Y-137183608D01*
X99392686Y-137249500D01*
X99392683Y-137249502D01*
X99299502Y-137342683D01*
X99299500Y-137342686D01*
X99233608Y-137456812D01*
X99199500Y-137584108D01*
X98600499Y-137584108D01*
X98600499Y-136416530D01*
X100749500Y-136416530D01*
X100749500Y-136623469D01*
X100789868Y-136826412D01*
X100789870Y-136826420D01*
X100869058Y-137017596D01*
X100984024Y-137189657D01*
X101130342Y-137335975D01*
X101130345Y-137335977D01*
X101302402Y-137450941D01*
X101493580Y-137530130D01*
X101696530Y-137570499D01*
X101696534Y-137570500D01*
X101696535Y-137570500D01*
X101903466Y-137570500D01*
X101903467Y-137570499D01*
X102106420Y-137530130D01*
X102297598Y-137450941D01*
X102469655Y-137335977D01*
X102615977Y-137189655D01*
X102730941Y-137017598D01*
X102810130Y-136826420D01*
X102850500Y-136623465D01*
X102850500Y-136434108D01*
X109499500Y-136434108D01*
X109499500Y-136565892D01*
X109514927Y-136623466D01*
X109533608Y-136693187D01*
X109560924Y-136740499D01*
X109599500Y-136807314D01*
X109692686Y-136900500D01*
X109806814Y-136966392D01*
X109934108Y-137000500D01*
X109934110Y-137000500D01*
X110065890Y-137000500D01*
X110065892Y-137000500D01*
X110193186Y-136966392D01*
X110307314Y-136900500D01*
X110400500Y-136807314D01*
X110466392Y-136693186D01*
X110500500Y-136565892D01*
X110500500Y-136434108D01*
X110466392Y-136306814D01*
X110400500Y-136192686D01*
X110307314Y-136099500D01*
X110222439Y-136050497D01*
X110193187Y-136033608D01*
X110128931Y-136016391D01*
X110065892Y-135999500D01*
X109934108Y-135999500D01*
X109806812Y-136033608D01*
X109692686Y-136099500D01*
X109692683Y-136099502D01*
X109599502Y-136192683D01*
X109599500Y-136192686D01*
X109533608Y-136306812D01*
X109533196Y-136308350D01*
X109499500Y-136434108D01*
X102850500Y-136434108D01*
X102850500Y-136416535D01*
X102810130Y-136213580D01*
X102730941Y-136022402D01*
X102615977Y-135850345D01*
X102615975Y-135850342D01*
X102469655Y-135704022D01*
X102432330Y-135679083D01*
X102310759Y-135597853D01*
X102297598Y-135589059D01*
X102285650Y-135584110D01*
X102285645Y-135584108D01*
X105349500Y-135584108D01*
X105349500Y-135715892D01*
X105364965Y-135773608D01*
X105383608Y-135843187D01*
X105391766Y-135857316D01*
X105449500Y-135957314D01*
X105542686Y-136050500D01*
X105656814Y-136116392D01*
X105784108Y-136150500D01*
X105784110Y-136150500D01*
X105915890Y-136150500D01*
X105915892Y-136150500D01*
X106043186Y-136116392D01*
X106157314Y-136050500D01*
X106250500Y-135957314D01*
X106316392Y-135843186D01*
X106350500Y-135715892D01*
X106350500Y-135584108D01*
X106316392Y-135456814D01*
X106314730Y-135453936D01*
X106295458Y-135420555D01*
X106250500Y-135342686D01*
X106157314Y-135249500D01*
X106100250Y-135216554D01*
X106043187Y-135183608D01*
X105943188Y-135156814D01*
X105915892Y-135149500D01*
X105784108Y-135149500D01*
X105656812Y-135183608D01*
X105542686Y-135249500D01*
X105542683Y-135249502D01*
X105449502Y-135342683D01*
X105449500Y-135342686D01*
X105383608Y-135456812D01*
X105357701Y-135553501D01*
X105349500Y-135584108D01*
X102285645Y-135584108D01*
X102106420Y-135509870D01*
X102106412Y-135509868D01*
X101903469Y-135469500D01*
X101903465Y-135469500D01*
X101696535Y-135469500D01*
X101696530Y-135469500D01*
X101493587Y-135509868D01*
X101493579Y-135509870D01*
X101302403Y-135589058D01*
X101130342Y-135704024D01*
X100984024Y-135850342D01*
X100869058Y-136022403D01*
X100789870Y-136213579D01*
X100789868Y-136213587D01*
X100749500Y-136416530D01*
X98600499Y-136416530D01*
X98600499Y-133876530D01*
X100749500Y-133876530D01*
X100749500Y-134083469D01*
X100789868Y-134286412D01*
X100789870Y-134286420D01*
X100869058Y-134477596D01*
X100984024Y-134649657D01*
X101130342Y-134795975D01*
X101130345Y-134795977D01*
X101302402Y-134910941D01*
X101493580Y-134990130D01*
X101696530Y-135030499D01*
X101696534Y-135030500D01*
X101696535Y-135030500D01*
X101903466Y-135030500D01*
X101903467Y-135030499D01*
X102106420Y-134990130D01*
X102297598Y-134910941D01*
X102469655Y-134795977D01*
X102490452Y-134775180D01*
X112058430Y-134775180D01*
X112058430Y-134906964D01*
X112061958Y-134920129D01*
X112092538Y-135034259D01*
X112101338Y-135049500D01*
X112158430Y-135148386D01*
X112251616Y-135241572D01*
X112365744Y-135307464D01*
X112493038Y-135341572D01*
X112493040Y-135341572D01*
X112624820Y-135341572D01*
X112624822Y-135341572D01*
X112752116Y-135307464D01*
X112866244Y-135241572D01*
X112959430Y-135148386D01*
X113025322Y-135034258D01*
X113059430Y-134906964D01*
X113059430Y-134775180D01*
X113025322Y-134647886D01*
X112959430Y-134533758D01*
X112866244Y-134440572D01*
X112809128Y-134407596D01*
X112752117Y-134374680D01*
X112634581Y-134343187D01*
X112624822Y-134340572D01*
X112493038Y-134340572D01*
X112365742Y-134374680D01*
X112251616Y-134440572D01*
X112251613Y-134440574D01*
X112158432Y-134533755D01*
X112158430Y-134533758D01*
X112092538Y-134647884D01*
X112084101Y-134679372D01*
X112058430Y-134775180D01*
X102490452Y-134775180D01*
X102586261Y-134679372D01*
X102615974Y-134649658D01*
X102615975Y-134649657D01*
X102615977Y-134649655D01*
X102730941Y-134477598D01*
X102810130Y-134286420D01*
X102850500Y-134083465D01*
X102850500Y-133876535D01*
X102810130Y-133673580D01*
X102730941Y-133482402D01*
X102615977Y-133310345D01*
X102615975Y-133310342D01*
X102469657Y-133164024D01*
X102297595Y-133049057D01*
X102277037Y-133040542D01*
X102106420Y-132969870D01*
X102106412Y-132969868D01*
X101926635Y-132934108D01*
X108199500Y-132934108D01*
X108199500Y-133065891D01*
X108233608Y-133193187D01*
X108260835Y-133240345D01*
X108299500Y-133307314D01*
X108392686Y-133400500D01*
X108506814Y-133466392D01*
X108634108Y-133500500D01*
X108634110Y-133500500D01*
X108765890Y-133500500D01*
X108765892Y-133500500D01*
X108893186Y-133466392D01*
X109007314Y-133400500D01*
X109100500Y-133307314D01*
X109166392Y-133193186D01*
X109200500Y-133065892D01*
X109200500Y-132934108D01*
X109166392Y-132806814D01*
X109100500Y-132692686D01*
X109007314Y-132599500D01*
X108933380Y-132556814D01*
X108893187Y-132533608D01*
X108827061Y-132515890D01*
X108765892Y-132499500D01*
X108634108Y-132499500D01*
X108506812Y-132533608D01*
X108392686Y-132599500D01*
X108392683Y-132599502D01*
X108299502Y-132692683D01*
X108299500Y-132692686D01*
X108233608Y-132806812D01*
X108199500Y-132934108D01*
X101926635Y-132934108D01*
X101903469Y-132929500D01*
X101903465Y-132929500D01*
X101696535Y-132929500D01*
X101696530Y-132929500D01*
X101493587Y-132969868D01*
X101493579Y-132969870D01*
X101302403Y-133049058D01*
X101130342Y-133164024D01*
X100984024Y-133310342D01*
X100869058Y-133482403D01*
X100789870Y-133673579D01*
X100789868Y-133673587D01*
X100749500Y-133876530D01*
X98600499Y-133876530D01*
X98600499Y-131336530D01*
X100749500Y-131336530D01*
X100749500Y-131543469D01*
X100789868Y-131746412D01*
X100789870Y-131746420D01*
X100862829Y-131922559D01*
X100869059Y-131937598D01*
X100909353Y-131997902D01*
X100984024Y-132109657D01*
X101130342Y-132255975D01*
X101130345Y-132255977D01*
X101302402Y-132370941D01*
X101493580Y-132450130D01*
X101663616Y-132483952D01*
X101696530Y-132490499D01*
X101696534Y-132490500D01*
X101696535Y-132490500D01*
X101903466Y-132490500D01*
X101903467Y-132490499D01*
X102106420Y-132450130D01*
X102265810Y-132384108D01*
X110299500Y-132384108D01*
X110299500Y-132515891D01*
X110333608Y-132643187D01*
X110362185Y-132692683D01*
X110399500Y-132757314D01*
X110492686Y-132850500D01*
X110606814Y-132916392D01*
X110734108Y-132950500D01*
X110734110Y-132950500D01*
X110865890Y-132950500D01*
X110865892Y-132950500D01*
X110993186Y-132916392D01*
X111107314Y-132850500D01*
X111200500Y-132757314D01*
X111266392Y-132643186D01*
X111300500Y-132515892D01*
X111300500Y-132384108D01*
X111266392Y-132256814D01*
X111200500Y-132142686D01*
X111107314Y-132049500D01*
X111040478Y-132010912D01*
X110993187Y-131983608D01*
X110912543Y-131962000D01*
X110865892Y-131949500D01*
X110734108Y-131949500D01*
X110606812Y-131983608D01*
X110492686Y-132049500D01*
X110492683Y-132049502D01*
X110399502Y-132142683D01*
X110399500Y-132142686D01*
X110333608Y-132256812D01*
X110299500Y-132384108D01*
X102265810Y-132384108D01*
X102297598Y-132370941D01*
X102469655Y-132255977D01*
X102615977Y-132109655D01*
X102730941Y-131937598D01*
X102810130Y-131746420D01*
X102850500Y-131543465D01*
X102850500Y-131336535D01*
X102810130Y-131133580D01*
X102730941Y-130942402D01*
X102615977Y-130770345D01*
X102615975Y-130770342D01*
X102469657Y-130624024D01*
X102364892Y-130554023D01*
X102297598Y-130509059D01*
X102243906Y-130486819D01*
X102106420Y-130429870D01*
X102106412Y-130429868D01*
X101903469Y-130389500D01*
X101903465Y-130389500D01*
X101696535Y-130389500D01*
X101696530Y-130389500D01*
X101493587Y-130429868D01*
X101493579Y-130429870D01*
X101302403Y-130509058D01*
X101130342Y-130624024D01*
X100984024Y-130770342D01*
X100869058Y-130942403D01*
X100789870Y-131133579D01*
X100789868Y-131133587D01*
X100749500Y-131336530D01*
X98600499Y-131336530D01*
X98600499Y-128796530D01*
X100749500Y-128796530D01*
X100749500Y-129003469D01*
X100789868Y-129206412D01*
X100789870Y-129206420D01*
X100869058Y-129397596D01*
X100984024Y-129569657D01*
X101130342Y-129715975D01*
X101130345Y-129715977D01*
X101302402Y-129830941D01*
X101493580Y-129910130D01*
X101691508Y-129949500D01*
X101696530Y-129950499D01*
X101696534Y-129950500D01*
X101696535Y-129950500D01*
X101903466Y-129950500D01*
X101903467Y-129950499D01*
X102106420Y-129910130D01*
X102169242Y-129884108D01*
X110049500Y-129884108D01*
X110049500Y-130015892D01*
X110066554Y-130079539D01*
X110083608Y-130143187D01*
X110091475Y-130156812D01*
X110149500Y-130257314D01*
X110242686Y-130350500D01*
X110341521Y-130407563D01*
X110355944Y-130415890D01*
X110356814Y-130416392D01*
X110484108Y-130450500D01*
X110503456Y-130450500D01*
X110570495Y-130470185D01*
X110591137Y-130486819D01*
X111772288Y-131667970D01*
X111834845Y-131704087D01*
X111852212Y-131714114D01*
X111941356Y-131738000D01*
X114388000Y-131738000D01*
X114455039Y-131757685D01*
X114500794Y-131810489D01*
X114512000Y-131862000D01*
X114512000Y-135071132D01*
X114507775Y-135103223D01*
X114499500Y-135134104D01*
X114499500Y-135134108D01*
X114499500Y-135265892D01*
X114510639Y-135307463D01*
X114533608Y-135393186D01*
X114536718Y-135400693D01*
X114535381Y-135401246D01*
X114549500Y-135453936D01*
X114549500Y-137859309D01*
X114558443Y-137892686D01*
X114570987Y-137939501D01*
X114580200Y-137973885D01*
X114580200Y-137973886D01*
X114600762Y-138009500D01*
X114639511Y-138076614D01*
X114639513Y-138076616D01*
X114901887Y-138338990D01*
X114929163Y-138386233D01*
X114930499Y-138385680D01*
X114933607Y-138393185D01*
X114941764Y-138407313D01*
X114999500Y-138507314D01*
X115092686Y-138600500D01*
X115206814Y-138666392D01*
X115334108Y-138700500D01*
X115334110Y-138700500D01*
X115465890Y-138700500D01*
X115465892Y-138700500D01*
X115527068Y-138684108D01*
X138302000Y-138684108D01*
X138302000Y-138815892D01*
X138308613Y-138840572D01*
X138336108Y-138943187D01*
X138343812Y-138956530D01*
X138402000Y-139057314D01*
X138495186Y-139150500D01*
X138609314Y-139216392D01*
X138736608Y-139250500D01*
X138736610Y-139250500D01*
X138868390Y-139250500D01*
X138868392Y-139250500D01*
X138995686Y-139216392D01*
X139109814Y-139150500D01*
X139203000Y-139057314D01*
X139268892Y-138943186D01*
X139284073Y-138886530D01*
X149319500Y-138886530D01*
X149319500Y-139093469D01*
X149357421Y-139284108D01*
X149359870Y-139296420D01*
X149439059Y-139487598D01*
X149476202Y-139543187D01*
X149554024Y-139659657D01*
X149700342Y-139805975D01*
X149700345Y-139805977D01*
X149872402Y-139920941D01*
X150063580Y-140000130D01*
X150266530Y-140040499D01*
X150266534Y-140040500D01*
X150266535Y-140040500D01*
X150473466Y-140040500D01*
X150473467Y-140040499D01*
X150676420Y-140000130D01*
X150867598Y-139920941D01*
X151039655Y-139805977D01*
X151185977Y-139659655D01*
X151300941Y-139487598D01*
X151380130Y-139296420D01*
X151420500Y-139093465D01*
X151420500Y-138886535D01*
X151380130Y-138683580D01*
X151300941Y-138492402D01*
X151185977Y-138320345D01*
X151185975Y-138320342D01*
X151039657Y-138174024D01*
X150893871Y-138076614D01*
X150867598Y-138059059D01*
X150846932Y-138050499D01*
X150676420Y-137979870D01*
X150676412Y-137979868D01*
X150473469Y-137939500D01*
X150473465Y-137939500D01*
X150266535Y-137939500D01*
X150266530Y-137939500D01*
X150063587Y-137979868D01*
X150063579Y-137979870D01*
X149872403Y-138059058D01*
X149700342Y-138174024D01*
X149554024Y-138320342D01*
X149439058Y-138492403D01*
X149359870Y-138683579D01*
X149359868Y-138683587D01*
X149319500Y-138886530D01*
X139284073Y-138886530D01*
X139303000Y-138815892D01*
X139303000Y-138684108D01*
X139268892Y-138556814D01*
X139203000Y-138442686D01*
X139109814Y-138349500D01*
X139052750Y-138316554D01*
X138995687Y-138283608D01*
X138929561Y-138265890D01*
X138868392Y-138249500D01*
X138736608Y-138249500D01*
X138609312Y-138283608D01*
X138495186Y-138349500D01*
X138495183Y-138349502D01*
X138402002Y-138442683D01*
X138402000Y-138442686D01*
X138336108Y-138556812D01*
X138324402Y-138600500D01*
X138302000Y-138684108D01*
X115527068Y-138684108D01*
X115593186Y-138666392D01*
X115707314Y-138600500D01*
X115800500Y-138507314D01*
X115866392Y-138393186D01*
X115900500Y-138265892D01*
X115900500Y-138134108D01*
X115873705Y-138034108D01*
X144349500Y-138034108D01*
X144349500Y-138165891D01*
X144383608Y-138293187D01*
X144399288Y-138320345D01*
X144449500Y-138407314D01*
X144542686Y-138500500D01*
X144656814Y-138566392D01*
X144784108Y-138600500D01*
X144784110Y-138600500D01*
X144915890Y-138600500D01*
X144915892Y-138600500D01*
X145043186Y-138566392D01*
X145157314Y-138500500D01*
X145250500Y-138407314D01*
X145316392Y-138293186D01*
X145350500Y-138165892D01*
X145350500Y-138034108D01*
X145316392Y-137906814D01*
X145250500Y-137792686D01*
X145157314Y-137699500D01*
X145071086Y-137649716D01*
X145043187Y-137633608D01*
X144967757Y-137613397D01*
X144915892Y-137599500D01*
X144784108Y-137599500D01*
X144656812Y-137633608D01*
X144542686Y-137699500D01*
X144542683Y-137699502D01*
X144449502Y-137792683D01*
X144449500Y-137792686D01*
X144383608Y-137906812D01*
X144349500Y-138034108D01*
X115873705Y-138034108D01*
X115866392Y-138006814D01*
X115800500Y-137892686D01*
X115707314Y-137799500D01*
X115641421Y-137761456D01*
X115593185Y-137733607D01*
X115585680Y-137730499D01*
X115586233Y-137729163D01*
X115580689Y-137725962D01*
X115567244Y-137723038D01*
X115538990Y-137701887D01*
X115486819Y-137649716D01*
X115453334Y-137588393D01*
X115450500Y-137562035D01*
X115450500Y-136084108D01*
X120649500Y-136084108D01*
X120649500Y-136215891D01*
X120683608Y-136343187D01*
X120716554Y-136400250D01*
X120749500Y-136457314D01*
X120842686Y-136550500D01*
X120956814Y-136616392D01*
X121084108Y-136650500D01*
X121084110Y-136650500D01*
X121215890Y-136650500D01*
X121215892Y-136650500D01*
X121343186Y-136616392D01*
X121457314Y-136550500D01*
X121550500Y-136457314D01*
X121616392Y-136343186D01*
X121650500Y-136215892D01*
X121650500Y-136084108D01*
X121616392Y-135956814D01*
X121550500Y-135842686D01*
X121457314Y-135749500D01*
X121399100Y-135715890D01*
X121343187Y-135683608D01*
X121279539Y-135666554D01*
X121215892Y-135649500D01*
X121084108Y-135649500D01*
X120956812Y-135683608D01*
X120842686Y-135749500D01*
X120842683Y-135749502D01*
X120749502Y-135842683D01*
X120749500Y-135842686D01*
X120683608Y-135956812D01*
X120649500Y-136084108D01*
X115450500Y-136084108D01*
X115450500Y-135453936D01*
X115455078Y-135420555D01*
X115459289Y-135405487D01*
X115466392Y-135393186D01*
X115495619Y-135284108D01*
X124599500Y-135284108D01*
X124599500Y-135415892D01*
X124600791Y-135420711D01*
X124633608Y-135543187D01*
X124660092Y-135589058D01*
X124699500Y-135657314D01*
X124792686Y-135750500D01*
X124906814Y-135816392D01*
X125034108Y-135850500D01*
X125034116Y-135850500D01*
X125042168Y-135851561D01*
X125041930Y-135853364D01*
X125099214Y-135870185D01*
X125144969Y-135922989D01*
X125154913Y-135992147D01*
X125139563Y-136036499D01*
X125133608Y-136046812D01*
X125099500Y-136174108D01*
X125099500Y-136305891D01*
X125133608Y-136433187D01*
X125166554Y-136490250D01*
X125199500Y-136547314D01*
X125292686Y-136640500D01*
X125406814Y-136706392D01*
X125534108Y-136740500D01*
X125534110Y-136740500D01*
X125665890Y-136740500D01*
X125665892Y-136740500D01*
X125793186Y-136706392D01*
X125907314Y-136640500D01*
X125962319Y-136585495D01*
X126023642Y-136552010D01*
X126093334Y-136556994D01*
X126137681Y-136585495D01*
X126192686Y-136640500D01*
X126306814Y-136706392D01*
X126434108Y-136740500D01*
X126434110Y-136740500D01*
X126565890Y-136740500D01*
X126565892Y-136740500D01*
X126693186Y-136706392D01*
X126807314Y-136640500D01*
X126900500Y-136547314D01*
X126966392Y-136433186D01*
X126989611Y-136346530D01*
X149319500Y-136346530D01*
X149319500Y-136553469D01*
X149359868Y-136756412D01*
X149359870Y-136756420D01*
X149439058Y-136947596D01*
X149554024Y-137119657D01*
X149700342Y-137265975D01*
X149700345Y-137265977D01*
X149872402Y-137380941D01*
X150063580Y-137460130D01*
X150266530Y-137500499D01*
X150266534Y-137500500D01*
X150266535Y-137500500D01*
X150473466Y-137500500D01*
X150473467Y-137500499D01*
X150676420Y-137460130D01*
X150867598Y-137380941D01*
X151039655Y-137265977D01*
X151185977Y-137119655D01*
X151300941Y-136947598D01*
X151380130Y-136756420D01*
X151420500Y-136553465D01*
X151420500Y-136346535D01*
X151380130Y-136143580D01*
X151300941Y-135952402D01*
X151185977Y-135780345D01*
X151185975Y-135780342D01*
X151039657Y-135634024D01*
X150903707Y-135543186D01*
X150867598Y-135519059D01*
X150859952Y-135515892D01*
X150676420Y-135439870D01*
X150676412Y-135439868D01*
X150473469Y-135399500D01*
X150473465Y-135399500D01*
X150266535Y-135399500D01*
X150266530Y-135399500D01*
X150063587Y-135439868D01*
X150063579Y-135439870D01*
X149872403Y-135519058D01*
X149700342Y-135634024D01*
X149554024Y-135780342D01*
X149439058Y-135952403D01*
X149359870Y-136143579D01*
X149359868Y-136143587D01*
X149319500Y-136346530D01*
X126989611Y-136346530D01*
X127000500Y-136305892D01*
X127000500Y-136174108D01*
X126966392Y-136046814D01*
X126958767Y-136033608D01*
X126934830Y-135992147D01*
X126900500Y-135932686D01*
X126807314Y-135839500D01*
X126750250Y-135806554D01*
X126693187Y-135773608D01*
X126606941Y-135750499D01*
X126565892Y-135739500D01*
X126434108Y-135739500D01*
X126306812Y-135773608D01*
X126192686Y-135839500D01*
X126192683Y-135839502D01*
X126137681Y-135894505D01*
X126076358Y-135927990D01*
X126006666Y-135923006D01*
X125962319Y-135894505D01*
X125907316Y-135839502D01*
X125907314Y-135839500D01*
X125850250Y-135806554D01*
X125793187Y-135773608D01*
X125706941Y-135750499D01*
X125665892Y-135739500D01*
X125665891Y-135739500D01*
X125657832Y-135738439D01*
X125658069Y-135736635D01*
X125600786Y-135719815D01*
X125555031Y-135667011D01*
X125545087Y-135597853D01*
X125560437Y-135553501D01*
X125566391Y-135543187D01*
X125566392Y-135543186D01*
X125600500Y-135415892D01*
X125600500Y-135284108D01*
X129499500Y-135284108D01*
X129499500Y-135415892D01*
X129500791Y-135420711D01*
X129533608Y-135543187D01*
X129560092Y-135589058D01*
X129599500Y-135657314D01*
X129692686Y-135750500D01*
X129806814Y-135816392D01*
X129934108Y-135850500D01*
X129934110Y-135850500D01*
X130065890Y-135850500D01*
X130065892Y-135850500D01*
X130193186Y-135816392D01*
X130307314Y-135750500D01*
X130400500Y-135657314D01*
X130466392Y-135543186D01*
X130500500Y-135415892D01*
X130500500Y-135384108D01*
X131199500Y-135384108D01*
X131199500Y-135515892D01*
X131200349Y-135519059D01*
X131233608Y-135643187D01*
X131241766Y-135657316D01*
X131299500Y-135757314D01*
X131392686Y-135850500D01*
X131506814Y-135916392D01*
X131634108Y-135950500D01*
X131634110Y-135950500D01*
X131765890Y-135950500D01*
X131765892Y-135950500D01*
X131893186Y-135916392D01*
X132007314Y-135850500D01*
X132100500Y-135757314D01*
X132166392Y-135643186D01*
X132200500Y-135515892D01*
X132200500Y-135484108D01*
X141587000Y-135484108D01*
X141587000Y-135615892D01*
X141600697Y-135667011D01*
X141621108Y-135743187D01*
X141629266Y-135757316D01*
X141687000Y-135857314D01*
X141780186Y-135950500D01*
X141894314Y-136016392D01*
X142021608Y-136050500D01*
X142021610Y-136050500D01*
X142153390Y-136050500D01*
X142153392Y-136050500D01*
X142280686Y-136016392D01*
X142394814Y-135950500D01*
X142488000Y-135857314D01*
X142553892Y-135743186D01*
X142588000Y-135615892D01*
X142588000Y-135484108D01*
X142553892Y-135356814D01*
X142488000Y-135242686D01*
X142394814Y-135149500D01*
X142314660Y-135103223D01*
X142280687Y-135083608D01*
X142217039Y-135066554D01*
X142153392Y-135049500D01*
X142021608Y-135049500D01*
X141894312Y-135083608D01*
X141780186Y-135149500D01*
X141780183Y-135149502D01*
X141687002Y-135242683D01*
X141687000Y-135242686D01*
X141621108Y-135356812D01*
X141605278Y-135415892D01*
X141587000Y-135484108D01*
X132200500Y-135484108D01*
X132200500Y-135384108D01*
X132166392Y-135256814D01*
X132100500Y-135142686D01*
X132007314Y-135049500D01*
X131933368Y-135006807D01*
X131893187Y-134983608D01*
X131806941Y-134960499D01*
X131765892Y-134949500D01*
X131634108Y-134949500D01*
X131506812Y-134983608D01*
X131392686Y-135049500D01*
X131392683Y-135049502D01*
X131299502Y-135142683D01*
X131299500Y-135142686D01*
X131233608Y-135256812D01*
X131210897Y-135341572D01*
X131199500Y-135384108D01*
X130500500Y-135384108D01*
X130500500Y-135284108D01*
X130466392Y-135156814D01*
X130400500Y-135042686D01*
X130307314Y-134949500D01*
X130233638Y-134906963D01*
X130193187Y-134883608D01*
X130129539Y-134866554D01*
X130065892Y-134849500D01*
X129934108Y-134849500D01*
X129806812Y-134883608D01*
X129692686Y-134949500D01*
X129692683Y-134949502D01*
X129599502Y-135042683D01*
X129599500Y-135042686D01*
X129533608Y-135156812D01*
X129506814Y-135256812D01*
X129499500Y-135284108D01*
X125600500Y-135284108D01*
X125566392Y-135156814D01*
X125500500Y-135042686D01*
X125407314Y-134949500D01*
X125333638Y-134906963D01*
X125293187Y-134883608D01*
X125229539Y-134866554D01*
X125165892Y-134849500D01*
X125034108Y-134849500D01*
X124906812Y-134883608D01*
X124792686Y-134949500D01*
X124792683Y-134949502D01*
X124699502Y-135042683D01*
X124699500Y-135042686D01*
X124633608Y-135156812D01*
X124606814Y-135256812D01*
X124599500Y-135284108D01*
X115495619Y-135284108D01*
X115500500Y-135265892D01*
X115500500Y-135134108D01*
X115466392Y-135006814D01*
X115439653Y-134960500D01*
X115429613Y-134943109D01*
X115413000Y-134881110D01*
X115413000Y-133806530D01*
X149319500Y-133806530D01*
X149319500Y-134013469D01*
X149359868Y-134216412D01*
X149359870Y-134216420D01*
X149412378Y-134343186D01*
X149439059Y-134407598D01*
X149461093Y-134440574D01*
X149554024Y-134579657D01*
X149700342Y-134725975D01*
X149700345Y-134725977D01*
X149872402Y-134840941D01*
X150063580Y-134920130D01*
X150266530Y-134960499D01*
X150266534Y-134960500D01*
X150266535Y-134960500D01*
X150473466Y-134960500D01*
X150473467Y-134960499D01*
X150676420Y-134920130D01*
X150867598Y-134840941D01*
X151039655Y-134725977D01*
X151185977Y-134579655D01*
X151300941Y-134407598D01*
X151380130Y-134216420D01*
X151406448Y-134084108D01*
X152199500Y-134084108D01*
X152199500Y-134215892D01*
X152216554Y-134279539D01*
X152233608Y-134343187D01*
X152251791Y-134374680D01*
X152299500Y-134457314D01*
X152392686Y-134550500D01*
X152506814Y-134616392D01*
X152634108Y-134650500D01*
X152634110Y-134650500D01*
X152765890Y-134650500D01*
X152765892Y-134650500D01*
X152893186Y-134616392D01*
X153007314Y-134550500D01*
X153100500Y-134457314D01*
X153166392Y-134343186D01*
X153200500Y-134215892D01*
X153200500Y-134084108D01*
X153166392Y-133956814D01*
X153100500Y-133842686D01*
X153007314Y-133749500D01*
X152950250Y-133716554D01*
X152893187Y-133683608D01*
X152829539Y-133666554D01*
X152765892Y-133649500D01*
X152634108Y-133649500D01*
X152506812Y-133683608D01*
X152392686Y-133749500D01*
X152392683Y-133749502D01*
X152299502Y-133842683D01*
X152299500Y-133842686D01*
X152233608Y-133956812D01*
X152218428Y-134013466D01*
X152199500Y-134084108D01*
X151406448Y-134084108D01*
X151412877Y-134051790D01*
X151412877Y-134051789D01*
X151413477Y-134048767D01*
X151420500Y-134013465D01*
X151420500Y-133806535D01*
X151380130Y-133603580D01*
X151300941Y-133412402D01*
X151185977Y-133240345D01*
X151185975Y-133240342D01*
X151039657Y-133094024D01*
X150899685Y-133000499D01*
X150867598Y-132979059D01*
X150837017Y-132966392D01*
X150676420Y-132899870D01*
X150676412Y-132899868D01*
X150473469Y-132859500D01*
X150473465Y-132859500D01*
X150266535Y-132859500D01*
X150266530Y-132859500D01*
X150063587Y-132899868D01*
X150063579Y-132899870D01*
X149872403Y-132979058D01*
X149700342Y-133094024D01*
X149554024Y-133240342D01*
X149439058Y-133412403D01*
X149359870Y-133603579D01*
X149359868Y-133603587D01*
X149319500Y-133806530D01*
X115413000Y-133806530D01*
X115413000Y-131962000D01*
X115432685Y-131894961D01*
X115485489Y-131849206D01*
X115537000Y-131838000D01*
X119075500Y-131838000D01*
X119142539Y-131857685D01*
X119188294Y-131910489D01*
X119199500Y-131962000D01*
X119199500Y-132015892D01*
X119208505Y-132049500D01*
X119233608Y-132143187D01*
X119241475Y-132156812D01*
X119299500Y-132257314D01*
X119392686Y-132350500D01*
X119491521Y-132407563D01*
X119505944Y-132415890D01*
X119506814Y-132416392D01*
X119634108Y-132450500D01*
X119634110Y-132450500D01*
X119765890Y-132450500D01*
X119765892Y-132450500D01*
X119793408Y-132443127D01*
X119863256Y-132444790D01*
X119921119Y-132483952D01*
X119948623Y-132548181D01*
X119949500Y-132562902D01*
X119949500Y-132565891D01*
X119983608Y-132693187D01*
X120016554Y-132750250D01*
X120049500Y-132807314D01*
X120142686Y-132900500D01*
X120256814Y-132966392D01*
X120384108Y-133000500D01*
X120384110Y-133000500D01*
X120515890Y-133000500D01*
X120515892Y-133000500D01*
X120643186Y-132966392D01*
X120757314Y-132900500D01*
X120850500Y-132807314D01*
X120916392Y-132693186D01*
X120918824Y-132684108D01*
X132599500Y-132684108D01*
X132599500Y-132815891D01*
X132633608Y-132943187D01*
X132647005Y-132966391D01*
X132699500Y-133057314D01*
X132792686Y-133150500D01*
X132906814Y-133216392D01*
X133034108Y-133250500D01*
X133034110Y-133250500D01*
X133165890Y-133250500D01*
X133165892Y-133250500D01*
X133293186Y-133216392D01*
X133407314Y-133150500D01*
X133500500Y-133057314D01*
X133566392Y-132943186D01*
X133600500Y-132815892D01*
X133600500Y-132684108D01*
X133566392Y-132556814D01*
X133500500Y-132442686D01*
X133407314Y-132349500D01*
X133333380Y-132306814D01*
X133294053Y-132284108D01*
X134399500Y-132284108D01*
X134399500Y-132415892D01*
X134406798Y-132443127D01*
X134433608Y-132543187D01*
X134446717Y-132565892D01*
X134499500Y-132657314D01*
X134592686Y-132750500D01*
X134690221Y-132806812D01*
X134705944Y-132815890D01*
X134706814Y-132816392D01*
X134834108Y-132850500D01*
X134834110Y-132850500D01*
X134965890Y-132850500D01*
X134965892Y-132850500D01*
X135093186Y-132816392D01*
X135207314Y-132750500D01*
X135300500Y-132657314D01*
X135366392Y-132543186D01*
X135400500Y-132415892D01*
X135400500Y-132284108D01*
X135366392Y-132156814D01*
X135300500Y-132042686D01*
X135207314Y-131949500D01*
X135139745Y-131910489D01*
X135093187Y-131883608D01*
X134993188Y-131856814D01*
X134965892Y-131849500D01*
X134834108Y-131849500D01*
X134706812Y-131883608D01*
X134592686Y-131949500D01*
X134592683Y-131949502D01*
X134499502Y-132042683D01*
X134499500Y-132042686D01*
X134433608Y-132156812D01*
X134406814Y-132256812D01*
X134399500Y-132284108D01*
X133294053Y-132284108D01*
X133293187Y-132283608D01*
X133229539Y-132266554D01*
X133165892Y-132249500D01*
X133034108Y-132249500D01*
X132906812Y-132283608D01*
X132792686Y-132349500D01*
X132792683Y-132349502D01*
X132699502Y-132442683D01*
X132699500Y-132442686D01*
X132633608Y-132556812D01*
X132599500Y-132684108D01*
X120918824Y-132684108D01*
X120950500Y-132565892D01*
X120950500Y-132434108D01*
X120916392Y-132306814D01*
X120850500Y-132192686D01*
X120757314Y-132099500D01*
X120700250Y-132066554D01*
X120643187Y-132033608D01*
X120519954Y-132000588D01*
X120519952Y-132000588D01*
X120515892Y-131999500D01*
X120384108Y-131999500D01*
X120344146Y-132010207D01*
X120331274Y-132010912D01*
X120309303Y-132005745D01*
X120286740Y-132005208D01*
X120275946Y-131997902D01*
X120263259Y-131994919D01*
X120247568Y-131978694D01*
X120228879Y-131966044D01*
X120223749Y-131954063D01*
X120214688Y-131944694D01*
X120210259Y-131922559D01*
X120201377Y-131901815D01*
X120200500Y-131887097D01*
X120200500Y-131884110D01*
X120200500Y-131884108D01*
X124499500Y-131884108D01*
X124499500Y-132015892D01*
X124508505Y-132049500D01*
X124533608Y-132143187D01*
X124541475Y-132156812D01*
X124599500Y-132257314D01*
X124692686Y-132350500D01*
X124791521Y-132407563D01*
X124805944Y-132415890D01*
X124806814Y-132416392D01*
X124934108Y-132450500D01*
X124934110Y-132450500D01*
X125065890Y-132450500D01*
X125065892Y-132450500D01*
X125193186Y-132416392D01*
X125307314Y-132350500D01*
X125400500Y-132257314D01*
X125466392Y-132143186D01*
X125500500Y-132015892D01*
X125500500Y-131984108D01*
X129599500Y-131984108D01*
X129599500Y-132115892D01*
X129606813Y-132143186D01*
X129633608Y-132243187D01*
X129666554Y-132300250D01*
X129699500Y-132357314D01*
X129792686Y-132450500D01*
X129891521Y-132507563D01*
X129905944Y-132515890D01*
X129906814Y-132516392D01*
X130034108Y-132550500D01*
X130034110Y-132550500D01*
X130165890Y-132550500D01*
X130165892Y-132550500D01*
X130293186Y-132516392D01*
X130407314Y-132450500D01*
X130500500Y-132357314D01*
X130566392Y-132243186D01*
X130600500Y-132115892D01*
X130600500Y-131984108D01*
X130566392Y-131856814D01*
X130500500Y-131742686D01*
X130407314Y-131649500D01*
X130350250Y-131616554D01*
X130293187Y-131583608D01*
X130229539Y-131566554D01*
X130165892Y-131549500D01*
X130034108Y-131549500D01*
X129906812Y-131583608D01*
X129792686Y-131649500D01*
X129792683Y-131649502D01*
X129699502Y-131742683D01*
X129699500Y-131742686D01*
X129633608Y-131856812D01*
X129607550Y-131954063D01*
X129599500Y-131984108D01*
X125500500Y-131984108D01*
X125500500Y-131884108D01*
X125466392Y-131756814D01*
X125400500Y-131642686D01*
X125307314Y-131549500D01*
X125250250Y-131516554D01*
X125193187Y-131483608D01*
X125129539Y-131466554D01*
X125065892Y-131449500D01*
X124934108Y-131449500D01*
X124806812Y-131483608D01*
X124692686Y-131549500D01*
X124692683Y-131549502D01*
X124599502Y-131642683D01*
X124599500Y-131642686D01*
X124533608Y-131756812D01*
X124519226Y-131810489D01*
X124499500Y-131884108D01*
X120200500Y-131884108D01*
X120166392Y-131756814D01*
X120166388Y-131756807D01*
X120163281Y-131749304D01*
X120163750Y-131749109D01*
X120152843Y-131720052D01*
X120150500Y-131708170D01*
X120150500Y-131665618D01*
X120119799Y-131551041D01*
X120119799Y-131551040D01*
X120115426Y-131543466D01*
X120060492Y-131448316D01*
X120060488Y-131448311D01*
X119639189Y-131027013D01*
X119639187Y-131027011D01*
X119569887Y-130987000D01*
X119536461Y-130967701D01*
X119524353Y-130964457D01*
X119512246Y-130961213D01*
X119512243Y-130961212D01*
X119442046Y-130942403D01*
X119421882Y-130937000D01*
X119421881Y-130937000D01*
X115724500Y-130937000D01*
X115657461Y-130917315D01*
X115611706Y-130864511D01*
X115600500Y-130813000D01*
X115600500Y-130284108D01*
X119899500Y-130284108D01*
X119899500Y-130415892D01*
X119904247Y-130433608D01*
X119933608Y-130543187D01*
X119939865Y-130554024D01*
X119999500Y-130657314D01*
X120092686Y-130750500D01*
X120206814Y-130816392D01*
X120334108Y-130850500D01*
X120334110Y-130850500D01*
X120465890Y-130850500D01*
X120465892Y-130850500D01*
X120527068Y-130834108D01*
X144349500Y-130834108D01*
X144349500Y-130965891D01*
X144383608Y-131093187D01*
X144416554Y-131150250D01*
X144449500Y-131207314D01*
X144542686Y-131300500D01*
X144656814Y-131366392D01*
X144784108Y-131400500D01*
X144784110Y-131400500D01*
X144915890Y-131400500D01*
X144915892Y-131400500D01*
X145043186Y-131366392D01*
X145157314Y-131300500D01*
X145191284Y-131266530D01*
X149319500Y-131266530D01*
X149319500Y-131473469D01*
X149359868Y-131676412D01*
X149359870Y-131676420D01*
X149431562Y-131849500D01*
X149439059Y-131867598D01*
X149450091Y-131884108D01*
X149554024Y-132039657D01*
X149700342Y-132185975D01*
X149700345Y-132185977D01*
X149872402Y-132300941D01*
X150063580Y-132380130D01*
X150243359Y-132415890D01*
X150266530Y-132420499D01*
X150266534Y-132420500D01*
X150266535Y-132420500D01*
X150473466Y-132420500D01*
X150473467Y-132420499D01*
X150676420Y-132380130D01*
X150867598Y-132300941D01*
X151039655Y-132185977D01*
X151185977Y-132039655D01*
X151300941Y-131867598D01*
X151380130Y-131676420D01*
X151420500Y-131473465D01*
X151420500Y-131266535D01*
X151380130Y-131063580D01*
X151300941Y-130872402D01*
X151185977Y-130700345D01*
X151185975Y-130700342D01*
X151039657Y-130554024D01*
X150939076Y-130486819D01*
X150867598Y-130439059D01*
X150854438Y-130433608D01*
X150676420Y-130359870D01*
X150676412Y-130359868D01*
X150473469Y-130319500D01*
X150473465Y-130319500D01*
X150266535Y-130319500D01*
X150266530Y-130319500D01*
X150063587Y-130359868D01*
X150063579Y-130359870D01*
X149872403Y-130439058D01*
X149700342Y-130554024D01*
X149554024Y-130700342D01*
X149439058Y-130872403D01*
X149359870Y-131063579D01*
X149359868Y-131063587D01*
X149319500Y-131266530D01*
X145191284Y-131266530D01*
X145250500Y-131207314D01*
X145316392Y-131093186D01*
X145350500Y-130965892D01*
X145350500Y-130834108D01*
X145316392Y-130706814D01*
X145250500Y-130592686D01*
X145157314Y-130499500D01*
X145072442Y-130450499D01*
X145043187Y-130433608D01*
X144977061Y-130415890D01*
X144915892Y-130399500D01*
X144784108Y-130399500D01*
X144656812Y-130433608D01*
X144542686Y-130499500D01*
X144542683Y-130499502D01*
X144449502Y-130592683D01*
X144449500Y-130592686D01*
X144383608Y-130706812D01*
X144349500Y-130834108D01*
X120527068Y-130834108D01*
X120593186Y-130816392D01*
X120707314Y-130750500D01*
X120800500Y-130657314D01*
X120866392Y-130543186D01*
X120900500Y-130415892D01*
X120900500Y-130284108D01*
X120866392Y-130156814D01*
X120800500Y-130042686D01*
X120707314Y-129949500D01*
X120679371Y-129933367D01*
X120679370Y-129933366D01*
X120593188Y-129883609D01*
X120593187Y-129883608D01*
X120593186Y-129883608D01*
X120465892Y-129849500D01*
X120334108Y-129849500D01*
X120206812Y-129883608D01*
X120092686Y-129949500D01*
X120092683Y-129949502D01*
X119999502Y-130042683D01*
X119999500Y-130042686D01*
X119933608Y-130156812D01*
X119920076Y-130207316D01*
X119899500Y-130284108D01*
X115600500Y-130284108D01*
X115600500Y-129834108D01*
X121199500Y-129834108D01*
X121199500Y-129965891D01*
X121233608Y-130093187D01*
X121262476Y-130143186D01*
X121299500Y-130207314D01*
X121392686Y-130300500D01*
X121506814Y-130366392D01*
X121634108Y-130400500D01*
X121634110Y-130400500D01*
X121765890Y-130400500D01*
X121765892Y-130400500D01*
X121893186Y-130366392D01*
X122007314Y-130300500D01*
X122100500Y-130207314D01*
X122166392Y-130093186D01*
X122200500Y-129965892D01*
X122200500Y-129834108D01*
X122166392Y-129706814D01*
X122166390Y-129706810D01*
X122166332Y-129706594D01*
X122167995Y-129636744D01*
X122207157Y-129578881D01*
X122271386Y-129551377D01*
X122286107Y-129550500D01*
X122365890Y-129550500D01*
X122365892Y-129550500D01*
X122493186Y-129516392D01*
X122607314Y-129450500D01*
X122700500Y-129357314D01*
X122766392Y-129243186D01*
X122800500Y-129115892D01*
X122800500Y-128984108D01*
X122766392Y-128856814D01*
X122700500Y-128742686D01*
X122684344Y-128726530D01*
X149319500Y-128726530D01*
X149319500Y-128933469D01*
X149359868Y-129136412D01*
X149359870Y-129136420D01*
X149403143Y-129240891D01*
X149439059Y-129327598D01*
X149458916Y-129357316D01*
X149554024Y-129499657D01*
X149700342Y-129645975D01*
X149700345Y-129645977D01*
X149872402Y-129760941D01*
X150063580Y-129840130D01*
X150266530Y-129880499D01*
X150266534Y-129880500D01*
X150266535Y-129880500D01*
X150473466Y-129880500D01*
X150473467Y-129880499D01*
X150676420Y-129840130D01*
X150867598Y-129760941D01*
X151039655Y-129645977D01*
X151185977Y-129499655D01*
X151300941Y-129327598D01*
X151380130Y-129136420D01*
X151420500Y-128933465D01*
X151420500Y-128726535D01*
X151380130Y-128523580D01*
X151300941Y-128332402D01*
X151185977Y-128160345D01*
X151185975Y-128160342D01*
X151039657Y-128014024D01*
X150881090Y-127908074D01*
X150867598Y-127899059D01*
X150831503Y-127884108D01*
X150676420Y-127819870D01*
X150676412Y-127819868D01*
X150473469Y-127779500D01*
X150473465Y-127779500D01*
X150266535Y-127779500D01*
X150266530Y-127779500D01*
X150063587Y-127819868D01*
X150063579Y-127819870D01*
X149872403Y-127899058D01*
X149700342Y-128014024D01*
X149554024Y-128160342D01*
X149439058Y-128332403D01*
X149359870Y-128523579D01*
X149359868Y-128523587D01*
X149319500Y-128726530D01*
X122684344Y-128726530D01*
X122607314Y-128649500D01*
X122550250Y-128616554D01*
X122493187Y-128583608D01*
X122429539Y-128566554D01*
X122365892Y-128549500D01*
X122234108Y-128549500D01*
X122106812Y-128583608D01*
X121992686Y-128649500D01*
X121992683Y-128649502D01*
X121899502Y-128742683D01*
X121899500Y-128742686D01*
X121833608Y-128856812D01*
X121800115Y-128981812D01*
X121799500Y-128984108D01*
X121799500Y-129115892D01*
X121833608Y-129243186D01*
X121833609Y-129243187D01*
X121833668Y-129243406D01*
X121832005Y-129313256D01*
X121792843Y-129371119D01*
X121728614Y-129398623D01*
X121713893Y-129399500D01*
X121634108Y-129399500D01*
X121506812Y-129433608D01*
X121392686Y-129499500D01*
X121392683Y-129499502D01*
X121299502Y-129592683D01*
X121299500Y-129592686D01*
X121233608Y-129706812D01*
X121199500Y-129834108D01*
X115600500Y-129834108D01*
X115600500Y-128359108D01*
X118949500Y-128359108D01*
X118949500Y-128490892D01*
X118965472Y-128550500D01*
X118983608Y-128618187D01*
X119001687Y-128649500D01*
X119049500Y-128732314D01*
X119142686Y-128825500D01*
X119256814Y-128891392D01*
X119384108Y-128925500D01*
X119384110Y-128925500D01*
X119515890Y-128925500D01*
X119515892Y-128925500D01*
X119643186Y-128891392D01*
X119757314Y-128825500D01*
X119850500Y-128732314D01*
X119916392Y-128618186D01*
X119950500Y-128490892D01*
X119950500Y-128359108D01*
X119916392Y-128231814D01*
X119850500Y-128117686D01*
X119757314Y-128024500D01*
X119687353Y-127984108D01*
X132599500Y-127984108D01*
X132599500Y-128115891D01*
X132633608Y-128243187D01*
X132641766Y-128257316D01*
X132699500Y-128357314D01*
X132792686Y-128450500D01*
X132906814Y-128516392D01*
X133034108Y-128550500D01*
X133034110Y-128550500D01*
X133165890Y-128550500D01*
X133165892Y-128550500D01*
X133293186Y-128516392D01*
X133407314Y-128450500D01*
X133500500Y-128357314D01*
X133566392Y-128243186D01*
X133600500Y-128115892D01*
X133600500Y-127984108D01*
X133573705Y-127884108D01*
X134499500Y-127884108D01*
X134499500Y-128015892D01*
X134501807Y-128024502D01*
X134533608Y-128143187D01*
X134566554Y-128200250D01*
X134599500Y-128257314D01*
X134692686Y-128350500D01*
X134806814Y-128416392D01*
X134934108Y-128450500D01*
X134934110Y-128450500D01*
X135065890Y-128450500D01*
X135065892Y-128450500D01*
X135193186Y-128416392D01*
X135307314Y-128350500D01*
X135400500Y-128257314D01*
X135466392Y-128143186D01*
X135500500Y-128015892D01*
X135500500Y-127884108D01*
X135466392Y-127756814D01*
X135400500Y-127642686D01*
X135307314Y-127549500D01*
X135250250Y-127516554D01*
X135193187Y-127483608D01*
X135129539Y-127466554D01*
X135065892Y-127449500D01*
X134934108Y-127449500D01*
X134806812Y-127483608D01*
X134692686Y-127549500D01*
X134692683Y-127549502D01*
X134599502Y-127642683D01*
X134599500Y-127642686D01*
X134533608Y-127756812D01*
X134527529Y-127779500D01*
X134499500Y-127884108D01*
X133573705Y-127884108D01*
X133566392Y-127856814D01*
X133500500Y-127742686D01*
X133407314Y-127649500D01*
X133322439Y-127600497D01*
X133293187Y-127583608D01*
X133229539Y-127566554D01*
X133165892Y-127549500D01*
X133034108Y-127549500D01*
X132906812Y-127583608D01*
X132792686Y-127649500D01*
X132792683Y-127649502D01*
X132699502Y-127742683D01*
X132699500Y-127742686D01*
X132633608Y-127856812D01*
X132599500Y-127984108D01*
X119687353Y-127984108D01*
X119661288Y-127969059D01*
X119643187Y-127958608D01*
X119579539Y-127941554D01*
X119515892Y-127924500D01*
X119384108Y-127924500D01*
X119256812Y-127958608D01*
X119142686Y-128024500D01*
X119142683Y-128024502D01*
X119049502Y-128117683D01*
X119049500Y-128117686D01*
X118983608Y-128231812D01*
X118951807Y-128350497D01*
X118949500Y-128359108D01*
X115600500Y-128359108D01*
X115600500Y-127134108D01*
X121699500Y-127134108D01*
X121699500Y-127265891D01*
X121733608Y-127393187D01*
X121743604Y-127410500D01*
X121799500Y-127507314D01*
X121892686Y-127600500D01*
X122006814Y-127666392D01*
X122134108Y-127700500D01*
X122134110Y-127700500D01*
X122265890Y-127700500D01*
X122265892Y-127700500D01*
X122393186Y-127666392D01*
X122507314Y-127600500D01*
X122600500Y-127507314D01*
X122666392Y-127393186D01*
X122700500Y-127265892D01*
X122700500Y-127134108D01*
X122666392Y-127006814D01*
X122600500Y-126892686D01*
X122507314Y-126799500D01*
X122450250Y-126766554D01*
X122393187Y-126733608D01*
X122329539Y-126716554D01*
X122265892Y-126699500D01*
X122134108Y-126699500D01*
X122006812Y-126733608D01*
X121892686Y-126799500D01*
X121892683Y-126799502D01*
X121799502Y-126892683D01*
X121799500Y-126892686D01*
X121733608Y-127006812D01*
X121699500Y-127134108D01*
X115600500Y-127134108D01*
X115600500Y-126084108D01*
X132599500Y-126084108D01*
X132599500Y-126215892D01*
X132610389Y-126256530D01*
X132633608Y-126343187D01*
X132662637Y-126393465D01*
X132699500Y-126457314D01*
X132792686Y-126550500D01*
X132906814Y-126616392D01*
X133034108Y-126650500D01*
X133034110Y-126650500D01*
X133165890Y-126650500D01*
X133165892Y-126650500D01*
X133293186Y-126616392D01*
X133407314Y-126550500D01*
X133500500Y-126457314D01*
X133566392Y-126343186D01*
X133600500Y-126215892D01*
X133600500Y-126084108D01*
X134499500Y-126084108D01*
X134499500Y-126215892D01*
X134510389Y-126256530D01*
X134533608Y-126343187D01*
X134562637Y-126393465D01*
X134599500Y-126457314D01*
X134692686Y-126550500D01*
X134806814Y-126616392D01*
X134934108Y-126650500D01*
X134934110Y-126650500D01*
X135065890Y-126650500D01*
X135065892Y-126650500D01*
X135193186Y-126616392D01*
X135307314Y-126550500D01*
X135400500Y-126457314D01*
X135466392Y-126343186D01*
X135500500Y-126215892D01*
X135500500Y-126186530D01*
X149319500Y-126186530D01*
X149319500Y-126393469D01*
X149359868Y-126596412D01*
X149359870Y-126596420D01*
X149439058Y-126787596D01*
X149554024Y-126959657D01*
X149700342Y-127105975D01*
X149700345Y-127105977D01*
X149872402Y-127220941D01*
X150063580Y-127300130D01*
X150266530Y-127340499D01*
X150266534Y-127340500D01*
X150266535Y-127340500D01*
X150473466Y-127340500D01*
X150473467Y-127340499D01*
X150676420Y-127300130D01*
X150867598Y-127220941D01*
X151039655Y-127105977D01*
X151185977Y-126959655D01*
X151300941Y-126787598D01*
X151380130Y-126596420D01*
X151420500Y-126393465D01*
X151420500Y-126186535D01*
X151380130Y-125983580D01*
X151300941Y-125792402D01*
X151185977Y-125620345D01*
X151185975Y-125620342D01*
X151039657Y-125474024D01*
X150952652Y-125415890D01*
X150867598Y-125359059D01*
X150676420Y-125279870D01*
X150676412Y-125279868D01*
X150473469Y-125239500D01*
X150473465Y-125239500D01*
X150266535Y-125239500D01*
X150266530Y-125239500D01*
X150063587Y-125279868D01*
X150063579Y-125279870D01*
X149872403Y-125359058D01*
X149700342Y-125474024D01*
X149554024Y-125620342D01*
X149439058Y-125792403D01*
X149359870Y-125983579D01*
X149359868Y-125983587D01*
X149319500Y-126186530D01*
X135500500Y-126186530D01*
X135500500Y-126084108D01*
X135466392Y-125956814D01*
X135400500Y-125842686D01*
X135307314Y-125749500D01*
X135250250Y-125716554D01*
X135193187Y-125683608D01*
X135129539Y-125666554D01*
X135065892Y-125649500D01*
X134934108Y-125649500D01*
X134806812Y-125683608D01*
X134692686Y-125749500D01*
X134692683Y-125749502D01*
X134599502Y-125842683D01*
X134599500Y-125842686D01*
X134533608Y-125956812D01*
X134526436Y-125983579D01*
X134499500Y-126084108D01*
X133600500Y-126084108D01*
X133566392Y-125956814D01*
X133500500Y-125842686D01*
X133407314Y-125749500D01*
X133350250Y-125716554D01*
X133293187Y-125683608D01*
X133229539Y-125666554D01*
X133165892Y-125649500D01*
X133034108Y-125649500D01*
X132906812Y-125683608D01*
X132792686Y-125749500D01*
X132792683Y-125749502D01*
X132699502Y-125842683D01*
X132699500Y-125842686D01*
X132633608Y-125956812D01*
X132626436Y-125983579D01*
X132599500Y-126084108D01*
X115600500Y-126084108D01*
X115600500Y-125284108D01*
X136399500Y-125284108D01*
X136399500Y-125415891D01*
X136433608Y-125543187D01*
X136466121Y-125599500D01*
X136499500Y-125657314D01*
X136592686Y-125750500D01*
X136706814Y-125816392D01*
X136834108Y-125850500D01*
X136834110Y-125850500D01*
X136965890Y-125850500D01*
X136965892Y-125850500D01*
X137093186Y-125816392D01*
X137207314Y-125750500D01*
X137300500Y-125657314D01*
X137366392Y-125543186D01*
X137400500Y-125415892D01*
X137400500Y-125284108D01*
X137366392Y-125156814D01*
X137300500Y-125042686D01*
X137207314Y-124949500D01*
X137150250Y-124916554D01*
X137093187Y-124883608D01*
X137029539Y-124866554D01*
X136965892Y-124849500D01*
X136834108Y-124849500D01*
X136706812Y-124883608D01*
X136592686Y-124949500D01*
X136592683Y-124949502D01*
X136499502Y-125042683D01*
X136499500Y-125042686D01*
X136433608Y-125156812D01*
X136399500Y-125284108D01*
X115600500Y-125284108D01*
X115600500Y-124584108D01*
X120349500Y-124584108D01*
X120349500Y-124715892D01*
X120361354Y-124760131D01*
X120383608Y-124843187D01*
X120406946Y-124883608D01*
X120449500Y-124957314D01*
X120542686Y-125050500D01*
X120656814Y-125116392D01*
X120784108Y-125150500D01*
X120784110Y-125150500D01*
X120915890Y-125150500D01*
X120915892Y-125150500D01*
X121043186Y-125116392D01*
X121157314Y-125050500D01*
X121250500Y-124957314D01*
X121316392Y-124843186D01*
X121350500Y-124715892D01*
X121350500Y-124584108D01*
X121316392Y-124456814D01*
X121250500Y-124342686D01*
X121157314Y-124249500D01*
X121100250Y-124216554D01*
X121043187Y-124183608D01*
X120979539Y-124166554D01*
X120915892Y-124149500D01*
X120784108Y-124149500D01*
X120656812Y-124183608D01*
X120542686Y-124249500D01*
X120542683Y-124249502D01*
X120449502Y-124342683D01*
X120449500Y-124342686D01*
X120383608Y-124456812D01*
X120354359Y-124565975D01*
X120349500Y-124584108D01*
X115600500Y-124584108D01*
X115600500Y-124173218D01*
X115608999Y-124128100D01*
X115612414Y-124119357D01*
X115656392Y-124043186D01*
X115674901Y-123974108D01*
X132159500Y-123974108D01*
X132159500Y-124105892D01*
X132165451Y-124128100D01*
X132193608Y-124233187D01*
X132203027Y-124249500D01*
X132259500Y-124347314D01*
X132352686Y-124440500D01*
X132466814Y-124506392D01*
X132594108Y-124540500D01*
X132594110Y-124540500D01*
X132725890Y-124540500D01*
X132725892Y-124540500D01*
X132853186Y-124506392D01*
X132967314Y-124440500D01*
X133060500Y-124347314D01*
X133126392Y-124233186D01*
X133160500Y-124105892D01*
X133160500Y-123974108D01*
X133126392Y-123846814D01*
X133060500Y-123732686D01*
X132967314Y-123639500D01*
X132853186Y-123573608D01*
X132725892Y-123539500D01*
X132594108Y-123539500D01*
X132466812Y-123573608D01*
X132352686Y-123639500D01*
X132352683Y-123639502D01*
X132259502Y-123732683D01*
X132259500Y-123732686D01*
X132193608Y-123846812D01*
X132172055Y-123927251D01*
X132159500Y-123974108D01*
X115674901Y-123974108D01*
X115690500Y-123915892D01*
X115690500Y-123784108D01*
X115656392Y-123656814D01*
X115590500Y-123542686D01*
X115521922Y-123474108D01*
X137759500Y-123474108D01*
X137759500Y-123605891D01*
X137793608Y-123733187D01*
X137823008Y-123784108D01*
X137859500Y-123847314D01*
X137952686Y-123940500D01*
X138066814Y-124006392D01*
X138194108Y-124040500D01*
X138194110Y-124040500D01*
X138325890Y-124040500D01*
X138325892Y-124040500D01*
X138453186Y-124006392D01*
X138567314Y-123940500D01*
X138660500Y-123847314D01*
X138726392Y-123733186D01*
X138749611Y-123646530D01*
X149319500Y-123646530D01*
X149319500Y-123853469D01*
X149359868Y-124056412D01*
X149359870Y-124056420D01*
X149439059Y-124247598D01*
X149485830Y-124317596D01*
X149554024Y-124419657D01*
X149700342Y-124565975D01*
X149700345Y-124565977D01*
X149872402Y-124680941D01*
X150063580Y-124760130D01*
X150266530Y-124800499D01*
X150266534Y-124800500D01*
X150266535Y-124800500D01*
X150473466Y-124800500D01*
X150473467Y-124800499D01*
X150676420Y-124760130D01*
X150867598Y-124680941D01*
X151039655Y-124565977D01*
X151185977Y-124419655D01*
X151300941Y-124247598D01*
X151380130Y-124056420D01*
X151420500Y-123853465D01*
X151420500Y-123646535D01*
X151380130Y-123443580D01*
X151300941Y-123252402D01*
X151185977Y-123080345D01*
X151185975Y-123080342D01*
X151039657Y-122934024D01*
X150914653Y-122850500D01*
X150867598Y-122819059D01*
X150861159Y-122816392D01*
X150676420Y-122739870D01*
X150676412Y-122739868D01*
X150473469Y-122699500D01*
X150473465Y-122699500D01*
X150266535Y-122699500D01*
X150266530Y-122699500D01*
X150063587Y-122739868D01*
X150063579Y-122739870D01*
X149872403Y-122819058D01*
X149700342Y-122934024D01*
X149554024Y-123080342D01*
X149439058Y-123252403D01*
X149359870Y-123443579D01*
X149359868Y-123443587D01*
X149319500Y-123646530D01*
X138749611Y-123646530D01*
X138760500Y-123605892D01*
X138760500Y-123474108D01*
X138726392Y-123346814D01*
X138660500Y-123232686D01*
X138567314Y-123139500D01*
X138510250Y-123106554D01*
X138453187Y-123073608D01*
X138389539Y-123056554D01*
X138325892Y-123039500D01*
X138194108Y-123039500D01*
X138066812Y-123073608D01*
X137952686Y-123139500D01*
X137952683Y-123139502D01*
X137859502Y-123232683D01*
X137859500Y-123232686D01*
X137793608Y-123346812D01*
X137759500Y-123474108D01*
X115521922Y-123474108D01*
X115497314Y-123449500D01*
X115440250Y-123416554D01*
X115383187Y-123383608D01*
X115319539Y-123366554D01*
X115255892Y-123349500D01*
X115124108Y-123349500D01*
X114996812Y-123383608D01*
X114882686Y-123449500D01*
X114882683Y-123449502D01*
X114789502Y-123542683D01*
X114789500Y-123542686D01*
X114723608Y-123656812D01*
X114707607Y-123716530D01*
X114689500Y-123784108D01*
X114689500Y-123915892D01*
X114691530Y-123923469D01*
X114695275Y-123937444D01*
X114699500Y-123969537D01*
X114699500Y-130891846D01*
X114690652Y-130921977D01*
X114683600Y-130952595D01*
X114680668Y-130955978D01*
X114679815Y-130958885D01*
X114662106Y-130980589D01*
X114656044Y-130986504D01*
X114655186Y-130987000D01*
X114640969Y-131001216D01*
X114640430Y-131001743D01*
X114610204Y-131017772D01*
X114580182Y-131034166D01*
X114579066Y-131034285D01*
X114578704Y-131034478D01*
X114577903Y-131034410D01*
X114553824Y-131037000D01*
X112184044Y-131037000D01*
X112117005Y-131017315D01*
X112096363Y-131000681D01*
X111086819Y-129991137D01*
X111053334Y-129929814D01*
X111050500Y-129903456D01*
X111050500Y-129884110D01*
X111050500Y-129884108D01*
X111016392Y-129756814D01*
X110950500Y-129642686D01*
X110857314Y-129549500D01*
X110770984Y-129499657D01*
X110743187Y-129483608D01*
X110679539Y-129466554D01*
X110615892Y-129449500D01*
X110484108Y-129449500D01*
X110356812Y-129483608D01*
X110242686Y-129549500D01*
X110242683Y-129549502D01*
X110149502Y-129642683D01*
X110149500Y-129642686D01*
X110083608Y-129756812D01*
X110063746Y-129830941D01*
X110049500Y-129884108D01*
X102169242Y-129884108D01*
X102297598Y-129830941D01*
X102469655Y-129715977D01*
X102615977Y-129569655D01*
X102730941Y-129397598D01*
X102810130Y-129206420D01*
X102829486Y-129109108D01*
X107449500Y-129109108D01*
X107449500Y-129240891D01*
X107483608Y-129368187D01*
X107485301Y-129371119D01*
X107549500Y-129482314D01*
X107642686Y-129575500D01*
X107756814Y-129641392D01*
X107884108Y-129675500D01*
X107884110Y-129675500D01*
X108015890Y-129675500D01*
X108015892Y-129675500D01*
X108143186Y-129641392D01*
X108257314Y-129575500D01*
X108350500Y-129482314D01*
X108416392Y-129368186D01*
X108450500Y-129240892D01*
X108450500Y-129109108D01*
X108416392Y-128981814D01*
X108350500Y-128867686D01*
X108257314Y-128774500D01*
X108200250Y-128741554D01*
X108143187Y-128708608D01*
X108079539Y-128691554D01*
X108015892Y-128674500D01*
X107884108Y-128674500D01*
X107756812Y-128708608D01*
X107642686Y-128774500D01*
X107642683Y-128774502D01*
X107549502Y-128867683D01*
X107549500Y-128867686D01*
X107483608Y-128981812D01*
X107449500Y-129109108D01*
X102829486Y-129109108D01*
X102850500Y-129003465D01*
X102850500Y-128796535D01*
X102810130Y-128593580D01*
X102730941Y-128402402D01*
X102615977Y-128230345D01*
X102615975Y-128230342D01*
X102469657Y-128084024D01*
X102367689Y-128015892D01*
X102297598Y-127969059D01*
X102272367Y-127958608D01*
X102106420Y-127889870D01*
X102106412Y-127889868D01*
X101903469Y-127849500D01*
X101903465Y-127849500D01*
X101696535Y-127849500D01*
X101696530Y-127849500D01*
X101493587Y-127889868D01*
X101493579Y-127889870D01*
X101302403Y-127969058D01*
X101130342Y-128084024D01*
X100984024Y-128230342D01*
X100869058Y-128402403D01*
X100789870Y-128593579D01*
X100789868Y-128593587D01*
X100749500Y-128796530D01*
X98600499Y-128796530D01*
X98600499Y-126034108D01*
X98849500Y-126034108D01*
X98849500Y-126165891D01*
X98883608Y-126293187D01*
X98912476Y-126343186D01*
X98949500Y-126407314D01*
X99042686Y-126500500D01*
X99156814Y-126566392D01*
X99284108Y-126600500D01*
X99284110Y-126600500D01*
X99415890Y-126600500D01*
X99415892Y-126600500D01*
X99543186Y-126566392D01*
X99657314Y-126500500D01*
X99750500Y-126407314D01*
X99816392Y-126293186D01*
X99826214Y-126256530D01*
X100749500Y-126256530D01*
X100749500Y-126463469D01*
X100789868Y-126666412D01*
X100789870Y-126666420D01*
X100869058Y-126857596D01*
X100984024Y-127029657D01*
X101130342Y-127175975D01*
X101130345Y-127175977D01*
X101302402Y-127290941D01*
X101493580Y-127370130D01*
X101696530Y-127410499D01*
X101696534Y-127410500D01*
X101696535Y-127410500D01*
X101903466Y-127410500D01*
X101903467Y-127410499D01*
X102106420Y-127370130D01*
X102297598Y-127290941D01*
X102469655Y-127175977D01*
X102615977Y-127029655D01*
X102730941Y-126857598D01*
X102810130Y-126666420D01*
X102850500Y-126463465D01*
X102850500Y-126256535D01*
X102810130Y-126053580D01*
X102730941Y-125862402D01*
X102615977Y-125690345D01*
X102615975Y-125690342D01*
X102469657Y-125544024D01*
X102364892Y-125474023D01*
X102297598Y-125429059D01*
X102265810Y-125415892D01*
X102106420Y-125349870D01*
X102106412Y-125349868D01*
X101903469Y-125309500D01*
X101903465Y-125309500D01*
X101696535Y-125309500D01*
X101696530Y-125309500D01*
X101493587Y-125349868D01*
X101493579Y-125349870D01*
X101302403Y-125429058D01*
X101130342Y-125544024D01*
X100984024Y-125690342D01*
X100869058Y-125862403D01*
X100789870Y-126053579D01*
X100789868Y-126053587D01*
X100749500Y-126256530D01*
X99826214Y-126256530D01*
X99850500Y-126165892D01*
X99850500Y-126034108D01*
X99816392Y-125906814D01*
X99750500Y-125792686D01*
X99657314Y-125699500D01*
X99600250Y-125666554D01*
X99543187Y-125633608D01*
X99479539Y-125616554D01*
X99415892Y-125599500D01*
X99284108Y-125599500D01*
X99156812Y-125633608D01*
X99042686Y-125699500D01*
X99042683Y-125699502D01*
X98949502Y-125792683D01*
X98949500Y-125792686D01*
X98883608Y-125906812D01*
X98849500Y-126034108D01*
X98600499Y-126034108D01*
X98600499Y-123716530D01*
X100749500Y-123716530D01*
X100749500Y-123923469D01*
X100789868Y-124126412D01*
X100789870Y-124126420D01*
X100840852Y-124249502D01*
X100869059Y-124317598D01*
X100888916Y-124347316D01*
X100984024Y-124489657D01*
X101130342Y-124635975D01*
X101130345Y-124635977D01*
X101302402Y-124750941D01*
X101493580Y-124830130D01*
X101696530Y-124870499D01*
X101696534Y-124870500D01*
X101696535Y-124870500D01*
X101903466Y-124870500D01*
X101903467Y-124870499D01*
X102106420Y-124830130D01*
X102297598Y-124750941D01*
X102469655Y-124635977D01*
X102615977Y-124489655D01*
X102730941Y-124317598D01*
X102810130Y-124126420D01*
X102850500Y-123923465D01*
X102850500Y-123716535D01*
X102810130Y-123513580D01*
X102730941Y-123322402D01*
X102615977Y-123150345D01*
X102615975Y-123150342D01*
X102469657Y-123004024D01*
X102364892Y-122934023D01*
X102297598Y-122889059D01*
X102204506Y-122850499D01*
X102106420Y-122809870D01*
X102106412Y-122809868D01*
X101903469Y-122769500D01*
X101903465Y-122769500D01*
X101696535Y-122769500D01*
X101696530Y-122769500D01*
X101493587Y-122809868D01*
X101493579Y-122809870D01*
X101302403Y-122889058D01*
X101130342Y-123004024D01*
X100984024Y-123150342D01*
X100869058Y-123322403D01*
X100789870Y-123513579D01*
X100789868Y-123513587D01*
X100749500Y-123716530D01*
X98600499Y-123716530D01*
X98600499Y-121176530D01*
X100749500Y-121176530D01*
X100749500Y-121383469D01*
X100789868Y-121586412D01*
X100789870Y-121586420D01*
X100869058Y-121777596D01*
X100984024Y-121949657D01*
X101130342Y-122095975D01*
X101130345Y-122095977D01*
X101302402Y-122210941D01*
X101493580Y-122290130D01*
X101696530Y-122330499D01*
X101696534Y-122330500D01*
X101696535Y-122330500D01*
X101903466Y-122330500D01*
X101903467Y-122330499D01*
X102106420Y-122290130D01*
X102120958Y-122284108D01*
X105949500Y-122284108D01*
X105949500Y-122415891D01*
X105983608Y-122543187D01*
X106016554Y-122600250D01*
X106049500Y-122657314D01*
X106142686Y-122750500D01*
X106256814Y-122816392D01*
X106384108Y-122850500D01*
X106384110Y-122850500D01*
X106515890Y-122850500D01*
X106515892Y-122850500D01*
X106643186Y-122816392D01*
X106757314Y-122750500D01*
X106850500Y-122657314D01*
X106916392Y-122543186D01*
X106950500Y-122415892D01*
X106950500Y-122284108D01*
X106916392Y-122156814D01*
X106850500Y-122042686D01*
X106757314Y-121949500D01*
X106699100Y-121915890D01*
X106643187Y-121883608D01*
X106579539Y-121866554D01*
X106515892Y-121849500D01*
X106384108Y-121849500D01*
X106256812Y-121883608D01*
X106142686Y-121949500D01*
X106142683Y-121949502D01*
X106049502Y-122042683D01*
X106049500Y-122042686D01*
X105983608Y-122156812D01*
X105949500Y-122284108D01*
X102120958Y-122284108D01*
X102297598Y-122210941D01*
X102469655Y-122095977D01*
X102615977Y-121949655D01*
X102730941Y-121777598D01*
X102810130Y-121586420D01*
X102850500Y-121383465D01*
X102850500Y-121176535D01*
X102850500Y-121176532D01*
X102850018Y-121174108D01*
X137959500Y-121174108D01*
X137959500Y-121305892D01*
X137961530Y-121313469D01*
X137993608Y-121433187D01*
X138003027Y-121449500D01*
X138059500Y-121547314D01*
X138152686Y-121640500D01*
X138266814Y-121706392D01*
X138394108Y-121740500D01*
X138394110Y-121740500D01*
X138525890Y-121740500D01*
X138525892Y-121740500D01*
X138653186Y-121706392D01*
X138767314Y-121640500D01*
X138860500Y-121547314D01*
X138926392Y-121433186D01*
X138960500Y-121305892D01*
X138960500Y-121174108D01*
X138949782Y-121134108D01*
X144299500Y-121134108D01*
X144299500Y-121265891D01*
X144333608Y-121393187D01*
X144366121Y-121449500D01*
X144399500Y-121507314D01*
X144492686Y-121600500D01*
X144606814Y-121666392D01*
X144734108Y-121700500D01*
X144734110Y-121700500D01*
X144865890Y-121700500D01*
X144865892Y-121700500D01*
X144993186Y-121666392D01*
X145107314Y-121600500D01*
X145200500Y-121507314D01*
X145266392Y-121393186D01*
X145300500Y-121265892D01*
X145300500Y-121134108D01*
X145293111Y-121106530D01*
X149319500Y-121106530D01*
X149319500Y-121313469D01*
X149359868Y-121516412D01*
X149359870Y-121516420D01*
X149439058Y-121707596D01*
X149554024Y-121879657D01*
X149700342Y-122025975D01*
X149700345Y-122025977D01*
X149872402Y-122140941D01*
X150063580Y-122220130D01*
X150266530Y-122260499D01*
X150266534Y-122260500D01*
X150266535Y-122260500D01*
X150473466Y-122260500D01*
X150473467Y-122260499D01*
X150676420Y-122220130D01*
X150867598Y-122140941D01*
X151039655Y-122025977D01*
X151185977Y-121879655D01*
X151249819Y-121784108D01*
X152299500Y-121784108D01*
X152299500Y-121915891D01*
X152333608Y-122043187D01*
X152364086Y-122095975D01*
X152399500Y-122157314D01*
X152492686Y-122250500D01*
X152606814Y-122316392D01*
X152734108Y-122350500D01*
X152734110Y-122350500D01*
X152865890Y-122350500D01*
X152865892Y-122350500D01*
X152993186Y-122316392D01*
X153107314Y-122250500D01*
X153200500Y-122157314D01*
X153266392Y-122043186D01*
X153300500Y-121915892D01*
X153300500Y-121784108D01*
X153266392Y-121656814D01*
X153200500Y-121542686D01*
X153107314Y-121449500D01*
X153050250Y-121416554D01*
X152993187Y-121383608D01*
X152929539Y-121366554D01*
X152865892Y-121349500D01*
X152734108Y-121349500D01*
X152606812Y-121383608D01*
X152492686Y-121449500D01*
X152492683Y-121449502D01*
X152399502Y-121542683D01*
X152399500Y-121542686D01*
X152333608Y-121656812D01*
X152299500Y-121784108D01*
X151249819Y-121784108D01*
X151300941Y-121707598D01*
X151380130Y-121516420D01*
X151420500Y-121313465D01*
X151420500Y-121106535D01*
X151380130Y-120903580D01*
X151300941Y-120712402D01*
X151185977Y-120540345D01*
X151185975Y-120540342D01*
X151039657Y-120394024D01*
X150875154Y-120284108D01*
X150867598Y-120279059D01*
X150790959Y-120247314D01*
X150676420Y-120199870D01*
X150676412Y-120199868D01*
X150473469Y-120159500D01*
X150473465Y-120159500D01*
X150266535Y-120159500D01*
X150266530Y-120159500D01*
X150063587Y-120199868D01*
X150063579Y-120199870D01*
X149872403Y-120279058D01*
X149700342Y-120394024D01*
X149554024Y-120540342D01*
X149439058Y-120712403D01*
X149359870Y-120903579D01*
X149359868Y-120903587D01*
X149319500Y-121106530D01*
X145293111Y-121106530D01*
X145266392Y-121006814D01*
X145200500Y-120892686D01*
X145107314Y-120799500D01*
X145022439Y-120750497D01*
X144993187Y-120733608D01*
X144914043Y-120712402D01*
X144865892Y-120699500D01*
X144734108Y-120699500D01*
X144606812Y-120733608D01*
X144492686Y-120799500D01*
X144492683Y-120799502D01*
X144399502Y-120892683D01*
X144399500Y-120892686D01*
X144333608Y-121006812D01*
X144299500Y-121134108D01*
X138949782Y-121134108D01*
X138926392Y-121046814D01*
X138860500Y-120932686D01*
X138767314Y-120839500D01*
X138698032Y-120799500D01*
X138653187Y-120773608D01*
X138566941Y-120750499D01*
X138525892Y-120739500D01*
X138394108Y-120739500D01*
X138266812Y-120773608D01*
X138152686Y-120839500D01*
X138152683Y-120839502D01*
X138059502Y-120932683D01*
X138059500Y-120932686D01*
X137993608Y-121046812D01*
X137970638Y-121132541D01*
X137959500Y-121174108D01*
X102850018Y-121174108D01*
X102824697Y-121046812D01*
X102810130Y-120973580D01*
X102730941Y-120782402D01*
X102615977Y-120610345D01*
X102615975Y-120610342D01*
X102469658Y-120464025D01*
X102469650Y-120464019D01*
X102342608Y-120379132D01*
X102342534Y-120379084D01*
X102335423Y-120374332D01*
X102297598Y-120349059D01*
X102276932Y-120340499D01*
X102140793Y-120284108D01*
X122099500Y-120284108D01*
X122099500Y-120415892D01*
X122112397Y-120464023D01*
X122133608Y-120543187D01*
X122166554Y-120600250D01*
X122199500Y-120657314D01*
X122292686Y-120750500D01*
X122406814Y-120816392D01*
X122534108Y-120850500D01*
X122534110Y-120850500D01*
X122665890Y-120850500D01*
X122665892Y-120850500D01*
X122793186Y-120816392D01*
X122907314Y-120750500D01*
X123000500Y-120657314D01*
X123066392Y-120543186D01*
X123100500Y-120415892D01*
X123100500Y-120284108D01*
X123066392Y-120156814D01*
X123000500Y-120042686D01*
X122907314Y-119949500D01*
X122850250Y-119916554D01*
X122793187Y-119883608D01*
X122757732Y-119874108D01*
X131059500Y-119874108D01*
X131059500Y-120005891D01*
X131093608Y-120133187D01*
X131108800Y-120159500D01*
X131159500Y-120247314D01*
X131252686Y-120340500D01*
X131366814Y-120406392D01*
X131494108Y-120440500D01*
X131494110Y-120440500D01*
X131625890Y-120440500D01*
X131625892Y-120440500D01*
X131753186Y-120406392D01*
X131867314Y-120340500D01*
X131960500Y-120247314D01*
X132026392Y-120133186D01*
X132060500Y-120005892D01*
X132060500Y-119874108D01*
X132026392Y-119746814D01*
X131960500Y-119632686D01*
X131867314Y-119539500D01*
X131774610Y-119485977D01*
X131753187Y-119473608D01*
X131689539Y-119456554D01*
X131625892Y-119439500D01*
X131494108Y-119439500D01*
X131366812Y-119473608D01*
X131252686Y-119539500D01*
X131252683Y-119539502D01*
X131159502Y-119632683D01*
X131159500Y-119632686D01*
X131093608Y-119746812D01*
X131059500Y-119874108D01*
X122757732Y-119874108D01*
X122729539Y-119866554D01*
X122665892Y-119849500D01*
X122534108Y-119849500D01*
X122406812Y-119883608D01*
X122292686Y-119949500D01*
X122292683Y-119949502D01*
X122199502Y-120042683D01*
X122199500Y-120042686D01*
X122133608Y-120156812D01*
X122122071Y-120199870D01*
X122099500Y-120284108D01*
X102140793Y-120284108D01*
X102106420Y-120269870D01*
X102106412Y-120269868D01*
X101903469Y-120229500D01*
X101903465Y-120229500D01*
X101696535Y-120229500D01*
X101696530Y-120229500D01*
X101493587Y-120269868D01*
X101493579Y-120269870D01*
X101302403Y-120349058D01*
X101130342Y-120464024D01*
X100984024Y-120610342D01*
X100869058Y-120782403D01*
X100789870Y-120973579D01*
X100789868Y-120973587D01*
X100749500Y-121176530D01*
X98600499Y-121176530D01*
X98600499Y-118636530D01*
X100749500Y-118636530D01*
X100749500Y-118843469D01*
X100789868Y-119046412D01*
X100789870Y-119046420D01*
X100869058Y-119237596D01*
X100984024Y-119409657D01*
X101130342Y-119555975D01*
X101130345Y-119555977D01*
X101302402Y-119670941D01*
X101493580Y-119750130D01*
X101696530Y-119790499D01*
X101696534Y-119790500D01*
X101696535Y-119790500D01*
X101903466Y-119790500D01*
X101903467Y-119790499D01*
X102106420Y-119750130D01*
X102297598Y-119670941D01*
X102469655Y-119555977D01*
X102615977Y-119409655D01*
X102730941Y-119237598D01*
X102810130Y-119046420D01*
X102850500Y-118843465D01*
X102850500Y-118636535D01*
X102810130Y-118433580D01*
X102730941Y-118242402D01*
X102615977Y-118070345D01*
X102615975Y-118070342D01*
X102469657Y-117924024D01*
X102409918Y-117884108D01*
X106499500Y-117884108D01*
X106499500Y-118015892D01*
X106515099Y-118074108D01*
X106533608Y-118143187D01*
X106535991Y-118147314D01*
X106599500Y-118257314D01*
X106692686Y-118350500D01*
X106806814Y-118416392D01*
X106934108Y-118450500D01*
X106934110Y-118450500D01*
X107065890Y-118450500D01*
X107065892Y-118450500D01*
X107193186Y-118416392D01*
X107307314Y-118350500D01*
X107400500Y-118257314D01*
X107466392Y-118143186D01*
X107500500Y-118015892D01*
X107500500Y-117884108D01*
X107471026Y-117774108D01*
X131059500Y-117774108D01*
X131059500Y-117905892D01*
X131066813Y-117933186D01*
X131093608Y-118033187D01*
X131126554Y-118090250D01*
X131159500Y-118147314D01*
X131252686Y-118240500D01*
X131366814Y-118306392D01*
X131494108Y-118340500D01*
X131494110Y-118340500D01*
X131625890Y-118340500D01*
X131625892Y-118340500D01*
X131753186Y-118306392D01*
X131867314Y-118240500D01*
X131960500Y-118147314D01*
X132026392Y-118033186D01*
X132060500Y-117905892D01*
X132060500Y-117774108D01*
X132033705Y-117674108D01*
X133859500Y-117674108D01*
X133859500Y-117805892D01*
X133872397Y-117854023D01*
X133893608Y-117933187D01*
X133901475Y-117946812D01*
X133959500Y-118047314D01*
X134052686Y-118140500D01*
X134151521Y-118197563D01*
X134165944Y-118205890D01*
X134166814Y-118206392D01*
X134294108Y-118240500D01*
X134294110Y-118240500D01*
X134425890Y-118240500D01*
X134425892Y-118240500D01*
X134553186Y-118206392D01*
X134667314Y-118140500D01*
X134733706Y-118074108D01*
X137459500Y-118074108D01*
X137459500Y-118205891D01*
X137493608Y-118333187D01*
X137503604Y-118350500D01*
X137559500Y-118447314D01*
X137652686Y-118540500D01*
X137766814Y-118606392D01*
X137894108Y-118640500D01*
X137894110Y-118640500D01*
X138025890Y-118640500D01*
X138025892Y-118640500D01*
X138153186Y-118606392D01*
X138222229Y-118566530D01*
X149319500Y-118566530D01*
X149319500Y-118773469D01*
X149359868Y-118976412D01*
X149359870Y-118976420D01*
X149439058Y-119167596D01*
X149554024Y-119339657D01*
X149700342Y-119485975D01*
X149700345Y-119485977D01*
X149872402Y-119600941D01*
X150063580Y-119680130D01*
X150266530Y-119720499D01*
X150266534Y-119720500D01*
X150266535Y-119720500D01*
X150473466Y-119720500D01*
X150473467Y-119720499D01*
X150676420Y-119680130D01*
X150867598Y-119600941D01*
X151039655Y-119485977D01*
X151185977Y-119339655D01*
X151300941Y-119167598D01*
X151380130Y-118976420D01*
X151420500Y-118773465D01*
X151420500Y-118566535D01*
X151380130Y-118363580D01*
X151300941Y-118172402D01*
X151185977Y-118000345D01*
X151185975Y-118000342D01*
X151039657Y-117854024D01*
X150868258Y-117739500D01*
X150867598Y-117739059D01*
X150676420Y-117659870D01*
X150676412Y-117659868D01*
X150473469Y-117619500D01*
X150473465Y-117619500D01*
X150266535Y-117619500D01*
X150266530Y-117619500D01*
X150063587Y-117659868D01*
X150063579Y-117659870D01*
X149872403Y-117739058D01*
X149700342Y-117854024D01*
X149554024Y-118000342D01*
X149439058Y-118172403D01*
X149359870Y-118363579D01*
X149359868Y-118363587D01*
X149319500Y-118566530D01*
X138222229Y-118566530D01*
X138267314Y-118540500D01*
X138360500Y-118447314D01*
X138426392Y-118333186D01*
X138460500Y-118205892D01*
X138460500Y-118074108D01*
X138426392Y-117946814D01*
X138360500Y-117832686D01*
X138267314Y-117739500D01*
X138210250Y-117706554D01*
X138153187Y-117673608D01*
X138053188Y-117646814D01*
X138025892Y-117639500D01*
X137894108Y-117639500D01*
X137766812Y-117673608D01*
X137652686Y-117739500D01*
X137652683Y-117739502D01*
X137559502Y-117832683D01*
X137559500Y-117832686D01*
X137493608Y-117946812D01*
X137459500Y-118074108D01*
X134733706Y-118074108D01*
X134760500Y-118047314D01*
X134778642Y-118015892D01*
X134785520Y-118003980D01*
X134826390Y-117933189D01*
X134826392Y-117933186D01*
X134860500Y-117805892D01*
X134860500Y-117674108D01*
X134826392Y-117546814D01*
X134760500Y-117432686D01*
X134667314Y-117339500D01*
X134610250Y-117306554D01*
X134553187Y-117273608D01*
X134466941Y-117250499D01*
X134425892Y-117239500D01*
X134294108Y-117239500D01*
X134166812Y-117273608D01*
X134052686Y-117339500D01*
X134052683Y-117339502D01*
X133959502Y-117432683D01*
X133959500Y-117432686D01*
X133893608Y-117546812D01*
X133874132Y-117619500D01*
X133859500Y-117674108D01*
X132033705Y-117674108D01*
X132026392Y-117646814D01*
X131960500Y-117532686D01*
X131867314Y-117439500D01*
X131783987Y-117391391D01*
X131753187Y-117373608D01*
X131689539Y-117356554D01*
X131625892Y-117339500D01*
X131494108Y-117339500D01*
X131366812Y-117373608D01*
X131252686Y-117439500D01*
X131252683Y-117439502D01*
X131159502Y-117532683D01*
X131159500Y-117532686D01*
X131093608Y-117646812D01*
X131064134Y-117756812D01*
X131059500Y-117774108D01*
X107471026Y-117774108D01*
X107466392Y-117756814D01*
X107400500Y-117642686D01*
X107307314Y-117549500D01*
X107250250Y-117516554D01*
X107193187Y-117483608D01*
X107129539Y-117466554D01*
X107065892Y-117449500D01*
X106934108Y-117449500D01*
X106806812Y-117483608D01*
X106692686Y-117549500D01*
X106692683Y-117549502D01*
X106599502Y-117642683D01*
X106599500Y-117642686D01*
X106533608Y-117756812D01*
X106519609Y-117809058D01*
X106499500Y-117884108D01*
X102409918Y-117884108D01*
X102364892Y-117854023D01*
X102297598Y-117809059D01*
X102289952Y-117805892D01*
X102106420Y-117729870D01*
X102106412Y-117729868D01*
X101903469Y-117689500D01*
X101903465Y-117689500D01*
X101696535Y-117689500D01*
X101696530Y-117689500D01*
X101493587Y-117729868D01*
X101493579Y-117729870D01*
X101302403Y-117809058D01*
X101130342Y-117924024D01*
X100984024Y-118070342D01*
X100869058Y-118242403D01*
X100789870Y-118433579D01*
X100789868Y-118433587D01*
X100749500Y-118636530D01*
X98600499Y-118636530D01*
X98600499Y-116096530D01*
X100749500Y-116096530D01*
X100749500Y-116303469D01*
X100789868Y-116506412D01*
X100789870Y-116506420D01*
X100869058Y-116697596D01*
X100984024Y-116869657D01*
X101130342Y-117015975D01*
X101130345Y-117015977D01*
X101302402Y-117130941D01*
X101493580Y-117210130D01*
X101641234Y-117239500D01*
X101696530Y-117250499D01*
X101696534Y-117250500D01*
X101696535Y-117250500D01*
X101903466Y-117250500D01*
X101903467Y-117250499D01*
X102106420Y-117210130D01*
X102297598Y-117130941D01*
X102469655Y-117015977D01*
X102615977Y-116869655D01*
X102623024Y-116859108D01*
X121924500Y-116859108D01*
X121924500Y-116990892D01*
X121941554Y-117054539D01*
X121958608Y-117118187D01*
X121971277Y-117140130D01*
X122024500Y-117232314D01*
X122117686Y-117325500D01*
X122231814Y-117391392D01*
X122359108Y-117425500D01*
X122359110Y-117425500D01*
X122490890Y-117425500D01*
X122490892Y-117425500D01*
X122618186Y-117391392D01*
X122732314Y-117325500D01*
X122825500Y-117232314D01*
X122891392Y-117118186D01*
X122925500Y-116990892D01*
X122925500Y-116859108D01*
X122891392Y-116731814D01*
X122825500Y-116617686D01*
X122732314Y-116524500D01*
X122675250Y-116491554D01*
X122618187Y-116458608D01*
X122535378Y-116436420D01*
X122490892Y-116424500D01*
X122359108Y-116424500D01*
X122231812Y-116458608D01*
X122117686Y-116524500D01*
X122117683Y-116524502D01*
X122024502Y-116617683D01*
X122024500Y-116617686D01*
X121958608Y-116731812D01*
X121924500Y-116859108D01*
X102623024Y-116859108D01*
X102730941Y-116697598D01*
X102810130Y-116506420D01*
X102850500Y-116303465D01*
X102850500Y-116096535D01*
X102850352Y-116095792D01*
X102829344Y-115990172D01*
X102826148Y-115974108D01*
X138749500Y-115974108D01*
X138749500Y-116105891D01*
X138783608Y-116233187D01*
X138783771Y-116233469D01*
X138849500Y-116347314D01*
X138942686Y-116440500D01*
X139056814Y-116506392D01*
X139184108Y-116540500D01*
X139184110Y-116540500D01*
X139315890Y-116540500D01*
X139315892Y-116540500D01*
X139443186Y-116506392D01*
X139557314Y-116440500D01*
X139650500Y-116347314D01*
X139716392Y-116233186D01*
X139750500Y-116105892D01*
X139750500Y-116026530D01*
X149319500Y-116026530D01*
X149319500Y-116233469D01*
X149359868Y-116436412D01*
X149359870Y-116436420D01*
X149439058Y-116627596D01*
X149554024Y-116799657D01*
X149700342Y-116945975D01*
X149700345Y-116945977D01*
X149872402Y-117060941D01*
X150063580Y-117140130D01*
X150266530Y-117180499D01*
X150266534Y-117180500D01*
X150266535Y-117180500D01*
X150473466Y-117180500D01*
X150473467Y-117180499D01*
X150676420Y-117140130D01*
X150867598Y-117060941D01*
X151039655Y-116945977D01*
X151185977Y-116799655D01*
X151300941Y-116627598D01*
X151380130Y-116436420D01*
X151420500Y-116233465D01*
X151420500Y-116026535D01*
X151380130Y-115823580D01*
X151300941Y-115632402D01*
X151185977Y-115460345D01*
X151185975Y-115460342D01*
X151039657Y-115314024D01*
X150929682Y-115240542D01*
X150867598Y-115199059D01*
X150852212Y-115192686D01*
X150676420Y-115119870D01*
X150676412Y-115119868D01*
X150473469Y-115079500D01*
X150473465Y-115079500D01*
X150266535Y-115079500D01*
X150266530Y-115079500D01*
X150063587Y-115119868D01*
X150063579Y-115119870D01*
X149872403Y-115199058D01*
X149700342Y-115314024D01*
X149554024Y-115460342D01*
X149439058Y-115632403D01*
X149359870Y-115823579D01*
X149359868Y-115823587D01*
X149319500Y-116026530D01*
X139750500Y-116026530D01*
X139750500Y-115974108D01*
X139716392Y-115846814D01*
X139650500Y-115732686D01*
X139557314Y-115639500D01*
X139489764Y-115600500D01*
X139443187Y-115573608D01*
X139389383Y-115559191D01*
X139315892Y-115539500D01*
X139184108Y-115539500D01*
X139056812Y-115573608D01*
X138942686Y-115639500D01*
X138942683Y-115639502D01*
X138849502Y-115732683D01*
X138849500Y-115732686D01*
X138783608Y-115846812D01*
X138749500Y-115974108D01*
X102826148Y-115974108D01*
X102810131Y-115893587D01*
X102810130Y-115893580D01*
X102730941Y-115702402D01*
X102615977Y-115530345D01*
X102615975Y-115530342D01*
X102469657Y-115384024D01*
X102354100Y-115306812D01*
X102297598Y-115269059D01*
X102289952Y-115265892D01*
X102228752Y-115240542D01*
X102106420Y-115189870D01*
X102106412Y-115189868D01*
X101903469Y-115149500D01*
X101903465Y-115149500D01*
X101696535Y-115149500D01*
X101696530Y-115149500D01*
X101493587Y-115189868D01*
X101493579Y-115189870D01*
X101302403Y-115269058D01*
X101130342Y-115384024D01*
X100984024Y-115530342D01*
X100869058Y-115702403D01*
X100789870Y-115893579D01*
X100789868Y-115893587D01*
X100749500Y-116096530D01*
X98600499Y-116096530D01*
X98600499Y-115134108D01*
X107149500Y-115134108D01*
X107149500Y-115265892D01*
X107150349Y-115269059D01*
X107183608Y-115393187D01*
X107216554Y-115450250D01*
X107249500Y-115507314D01*
X107342686Y-115600500D01*
X107456814Y-115666392D01*
X107584108Y-115700500D01*
X107584110Y-115700500D01*
X107715890Y-115700500D01*
X107715892Y-115700500D01*
X107843186Y-115666392D01*
X107957314Y-115600500D01*
X108050500Y-115507314D01*
X108092766Y-115434108D01*
X143699500Y-115434108D01*
X143699500Y-115565892D01*
X143708772Y-115600497D01*
X143733608Y-115693187D01*
X143756413Y-115732686D01*
X143799500Y-115807314D01*
X143892686Y-115900500D01*
X143991521Y-115957563D01*
X144006810Y-115966390D01*
X144006814Y-115966392D01*
X144134108Y-116000500D01*
X144134110Y-116000500D01*
X144265890Y-116000500D01*
X144265892Y-116000500D01*
X144393186Y-115966392D01*
X144507314Y-115900500D01*
X144600500Y-115807314D01*
X144666392Y-115693186D01*
X144700500Y-115565892D01*
X144700500Y-115434108D01*
X144666392Y-115306814D01*
X144600500Y-115192686D01*
X144507314Y-115099500D01*
X144450250Y-115066554D01*
X144393187Y-115033608D01*
X144293188Y-115006814D01*
X144265892Y-114999500D01*
X144134108Y-114999500D01*
X144006812Y-115033608D01*
X143892686Y-115099500D01*
X143892683Y-115099502D01*
X143799502Y-115192683D01*
X143799500Y-115192686D01*
X143733608Y-115306812D01*
X143699500Y-115434108D01*
X108092766Y-115434108D01*
X108116392Y-115393186D01*
X108150500Y-115265892D01*
X108150500Y-115134108D01*
X108116392Y-115006814D01*
X108050500Y-114892686D01*
X107957314Y-114799500D01*
X107866929Y-114747316D01*
X107843187Y-114733608D01*
X107756941Y-114710499D01*
X107715892Y-114699500D01*
X107584108Y-114699500D01*
X107456812Y-114733608D01*
X107342686Y-114799500D01*
X107342683Y-114799502D01*
X107249502Y-114892683D01*
X107249500Y-114892686D01*
X107183608Y-115006812D01*
X107153316Y-115119868D01*
X107149500Y-115134108D01*
X98600499Y-115134108D01*
X98600499Y-113556530D01*
X100749500Y-113556530D01*
X100749500Y-113763469D01*
X100789868Y-113966412D01*
X100789870Y-113966420D01*
X100869058Y-114157596D01*
X100984024Y-114329657D01*
X101130342Y-114475975D01*
X101130345Y-114475977D01*
X101302402Y-114590941D01*
X101493580Y-114670130D01*
X101641234Y-114699500D01*
X101696530Y-114710499D01*
X101696534Y-114710500D01*
X101696535Y-114710500D01*
X101903466Y-114710500D01*
X101903467Y-114710499D01*
X102106420Y-114670130D01*
X102297598Y-114590941D01*
X102469655Y-114475977D01*
X102571524Y-114374108D01*
X133559500Y-114374108D01*
X133559500Y-114505892D01*
X133576554Y-114569539D01*
X133593608Y-114633187D01*
X133614938Y-114670131D01*
X133659500Y-114747314D01*
X133752686Y-114840500D01*
X133866814Y-114906392D01*
X133994108Y-114940500D01*
X133994110Y-114940500D01*
X134125890Y-114940500D01*
X134125892Y-114940500D01*
X134253186Y-114906392D01*
X134367314Y-114840500D01*
X134460500Y-114747314D01*
X134526392Y-114633186D01*
X134560500Y-114505892D01*
X134560500Y-114374108D01*
X134526392Y-114246814D01*
X134460500Y-114132686D01*
X134367314Y-114039500D01*
X134310250Y-114006554D01*
X134253187Y-113973608D01*
X134189539Y-113956554D01*
X134125892Y-113939500D01*
X133994108Y-113939500D01*
X133866812Y-113973608D01*
X133752686Y-114039500D01*
X133752683Y-114039502D01*
X133659502Y-114132683D01*
X133659500Y-114132686D01*
X133593608Y-114246812D01*
X133580137Y-114297089D01*
X133559500Y-114374108D01*
X102571524Y-114374108D01*
X102615977Y-114329655D01*
X102730941Y-114157598D01*
X102810130Y-113966420D01*
X102850500Y-113763465D01*
X102850500Y-113556535D01*
X102850417Y-113556120D01*
X102840177Y-113504634D01*
X102836576Y-113486530D01*
X149319500Y-113486530D01*
X149319500Y-113693469D01*
X149359868Y-113896412D01*
X149359870Y-113896420D01*
X149439058Y-114087596D01*
X149554024Y-114259657D01*
X149700342Y-114405975D01*
X149700345Y-114405977D01*
X149872402Y-114520941D01*
X150063580Y-114600130D01*
X150229765Y-114633186D01*
X150266530Y-114640499D01*
X150266534Y-114640500D01*
X150266535Y-114640500D01*
X150473466Y-114640500D01*
X150473467Y-114640499D01*
X150676420Y-114600130D01*
X150867598Y-114520941D01*
X151039655Y-114405977D01*
X151185977Y-114259655D01*
X151300941Y-114087598D01*
X151380130Y-113896420D01*
X151420500Y-113693465D01*
X151420500Y-113486535D01*
X151380130Y-113283580D01*
X151300941Y-113092402D01*
X151185977Y-112920345D01*
X151185975Y-112920342D01*
X151039657Y-112774024D01*
X150877824Y-112665892D01*
X150867598Y-112659059D01*
X150708567Y-112593186D01*
X150676420Y-112579870D01*
X150676412Y-112579868D01*
X150473469Y-112539500D01*
X150473465Y-112539500D01*
X150266535Y-112539500D01*
X150266530Y-112539500D01*
X150063587Y-112579868D01*
X150063579Y-112579870D01*
X149872403Y-112659058D01*
X149700342Y-112774024D01*
X149554024Y-112920342D01*
X149439058Y-113092403D01*
X149359870Y-113283579D01*
X149359868Y-113283587D01*
X149319500Y-113486530D01*
X102836576Y-113486530D01*
X102810131Y-113353587D01*
X102810130Y-113353580D01*
X102730941Y-113162402D01*
X102615977Y-112990345D01*
X102615975Y-112990342D01*
X102469657Y-112844024D01*
X102364892Y-112774023D01*
X102297598Y-112729059D01*
X102245101Y-112707314D01*
X102106420Y-112649870D01*
X102106412Y-112649868D01*
X101903469Y-112609500D01*
X101903465Y-112609500D01*
X101696535Y-112609500D01*
X101696530Y-112609500D01*
X101493587Y-112649868D01*
X101493579Y-112649870D01*
X101302403Y-112729058D01*
X101130342Y-112844024D01*
X100984024Y-112990342D01*
X100869058Y-113162403D01*
X100789870Y-113353579D01*
X100789868Y-113353587D01*
X100749500Y-113556530D01*
X98600499Y-113556530D01*
X98600499Y-112334108D01*
X111799500Y-112334108D01*
X111799500Y-112465892D01*
X111816554Y-112529539D01*
X111833608Y-112593187D01*
X111843027Y-112609500D01*
X111899500Y-112707314D01*
X111992686Y-112800500D01*
X112106814Y-112866392D01*
X112234108Y-112900500D01*
X112234110Y-112900500D01*
X112365890Y-112900500D01*
X112365892Y-112900500D01*
X112493186Y-112866392D01*
X112607314Y-112800500D01*
X112700500Y-112707314D01*
X112766392Y-112593186D01*
X112782222Y-112534108D01*
X118749500Y-112534108D01*
X118749500Y-112665892D01*
X118766425Y-112729058D01*
X118783608Y-112793187D01*
X118812959Y-112844023D01*
X118849500Y-112907314D01*
X118942686Y-113000500D01*
X119056814Y-113066392D01*
X119184108Y-113100500D01*
X119184110Y-113100500D01*
X119315890Y-113100500D01*
X119315892Y-113100500D01*
X119443186Y-113066392D01*
X119557314Y-113000500D01*
X119650500Y-112907314D01*
X119716392Y-112793186D01*
X119750500Y-112665892D01*
X119750500Y-112534108D01*
X119716392Y-112406814D01*
X119650500Y-112292686D01*
X119557314Y-112199500D01*
X119500250Y-112166554D01*
X119443187Y-112133608D01*
X119379539Y-112116554D01*
X119315892Y-112099500D01*
X119184108Y-112099500D01*
X119056812Y-112133608D01*
X118942686Y-112199500D01*
X118942683Y-112199502D01*
X118849502Y-112292683D01*
X118849500Y-112292686D01*
X118783608Y-112406812D01*
X118767778Y-112465892D01*
X118749500Y-112534108D01*
X112782222Y-112534108D01*
X112800500Y-112465892D01*
X112800500Y-112334108D01*
X112766392Y-112206814D01*
X112700500Y-112092686D01*
X112607314Y-111999500D01*
X112550250Y-111966554D01*
X112493187Y-111933608D01*
X112429539Y-111916554D01*
X112365892Y-111899500D01*
X112234108Y-111899500D01*
X112106812Y-111933608D01*
X111992686Y-111999500D01*
X111992683Y-111999502D01*
X111899502Y-112092683D01*
X111899500Y-112092686D01*
X111833608Y-112206812D01*
X111810600Y-112292683D01*
X111799500Y-112334108D01*
X98600499Y-112334108D01*
X98600499Y-111016530D01*
X100749500Y-111016530D01*
X100749500Y-111223469D01*
X100789868Y-111426412D01*
X100789870Y-111426420D01*
X100869058Y-111617596D01*
X100984024Y-111789657D01*
X101130342Y-111935975D01*
X101130345Y-111935977D01*
X101302402Y-112050941D01*
X101493580Y-112130130D01*
X101696530Y-112170499D01*
X101696534Y-112170500D01*
X101696535Y-112170500D01*
X101903466Y-112170500D01*
X101903467Y-112170499D01*
X102106420Y-112130130D01*
X102297598Y-112050941D01*
X102469655Y-111935977D01*
X102615977Y-111789655D01*
X102730941Y-111617598D01*
X102810130Y-111426420D01*
X102850500Y-111223465D01*
X102850500Y-111134108D01*
X147299500Y-111134108D01*
X147299500Y-111265891D01*
X147333608Y-111393187D01*
X147366554Y-111450250D01*
X147399500Y-111507314D01*
X147492686Y-111600500D01*
X147606814Y-111666392D01*
X147734108Y-111700500D01*
X147734110Y-111700500D01*
X147865890Y-111700500D01*
X147865892Y-111700500D01*
X147993186Y-111666392D01*
X148107314Y-111600500D01*
X148200500Y-111507314D01*
X148266392Y-111393186D01*
X148300500Y-111265892D01*
X148300500Y-111134108D01*
X148266392Y-111006814D01*
X148231587Y-110946530D01*
X149319500Y-110946530D01*
X149319500Y-111153469D01*
X149359868Y-111356412D01*
X149359870Y-111356420D01*
X149439058Y-111547596D01*
X149554024Y-111719657D01*
X149700342Y-111865975D01*
X149700345Y-111865977D01*
X149872402Y-111980941D01*
X150063580Y-112060130D01*
X150261508Y-112099500D01*
X150266530Y-112100499D01*
X150266534Y-112100500D01*
X150266535Y-112100500D01*
X150473466Y-112100500D01*
X150473467Y-112100499D01*
X150676420Y-112060130D01*
X150867598Y-111980941D01*
X151039655Y-111865977D01*
X151185977Y-111719655D01*
X151300941Y-111547598D01*
X151380130Y-111356420D01*
X151420500Y-111153465D01*
X151420500Y-110946535D01*
X151380130Y-110743580D01*
X151300941Y-110552402D01*
X151185977Y-110380345D01*
X151185975Y-110380342D01*
X151039657Y-110234024D01*
X150953626Y-110176541D01*
X150867598Y-110119059D01*
X150676420Y-110039870D01*
X150676412Y-110039868D01*
X150473469Y-109999500D01*
X150473465Y-109999500D01*
X150266535Y-109999500D01*
X150266530Y-109999500D01*
X150063587Y-110039868D01*
X150063579Y-110039870D01*
X149872403Y-110119058D01*
X149700342Y-110234024D01*
X149554024Y-110380342D01*
X149439058Y-110552403D01*
X149359870Y-110743579D01*
X149359868Y-110743587D01*
X149319500Y-110946530D01*
X148231587Y-110946530D01*
X148200500Y-110892686D01*
X148107314Y-110799500D01*
X148050250Y-110766554D01*
X147993187Y-110733608D01*
X147929539Y-110716554D01*
X147865892Y-110699500D01*
X147734108Y-110699500D01*
X147606812Y-110733608D01*
X147492686Y-110799500D01*
X147492683Y-110799502D01*
X147399502Y-110892683D01*
X147399500Y-110892686D01*
X147333608Y-111006812D01*
X147299500Y-111134108D01*
X102850500Y-111134108D01*
X102850500Y-111016535D01*
X102810130Y-110813580D01*
X102730941Y-110622402D01*
X102615977Y-110450345D01*
X102615975Y-110450342D01*
X102469657Y-110304024D01*
X102364892Y-110234023D01*
X102297598Y-110189059D01*
X102106420Y-110109870D01*
X102106412Y-110109868D01*
X101903469Y-110069500D01*
X101903465Y-110069500D01*
X101696535Y-110069500D01*
X101696530Y-110069500D01*
X101493587Y-110109868D01*
X101493579Y-110109870D01*
X101302403Y-110189058D01*
X101130342Y-110304024D01*
X100984024Y-110450342D01*
X100869058Y-110622403D01*
X100789870Y-110813579D01*
X100789868Y-110813587D01*
X100749500Y-111016530D01*
X98600499Y-111016530D01*
X98600499Y-108476530D01*
X100749500Y-108476530D01*
X100749500Y-108683469D01*
X100789868Y-108886412D01*
X100789870Y-108886420D01*
X100869058Y-109077596D01*
X100984024Y-109249657D01*
X101130342Y-109395975D01*
X101130345Y-109395977D01*
X101302402Y-109510941D01*
X101493580Y-109590130D01*
X101696530Y-109630499D01*
X101696534Y-109630500D01*
X101696535Y-109630500D01*
X101903466Y-109630500D01*
X101903467Y-109630499D01*
X102106420Y-109590130D01*
X102297598Y-109510941D01*
X102469655Y-109395977D01*
X102615977Y-109249655D01*
X102730941Y-109077598D01*
X102810130Y-108886420D01*
X102850500Y-108683465D01*
X102850500Y-108476535D01*
X102810130Y-108273580D01*
X102730941Y-108082402D01*
X102615977Y-107910345D01*
X102615975Y-107910342D01*
X102469657Y-107764024D01*
X102450461Y-107751198D01*
X102429604Y-107737262D01*
X102429603Y-107737260D01*
X102297599Y-107649059D01*
X102276325Y-107640247D01*
X149319500Y-107640247D01*
X149319500Y-109379752D01*
X149331131Y-109438229D01*
X149331132Y-109438230D01*
X149375447Y-109504552D01*
X149441769Y-109548867D01*
X149441770Y-109548868D01*
X149500247Y-109560499D01*
X149500250Y-109560500D01*
X149500252Y-109560500D01*
X151239750Y-109560500D01*
X151239751Y-109560499D01*
X151254568Y-109557552D01*
X151298229Y-109548868D01*
X151298229Y-109548867D01*
X151298231Y-109548867D01*
X151364552Y-109504552D01*
X151408867Y-109438231D01*
X151408867Y-109438229D01*
X151408868Y-109438229D01*
X151420499Y-109379752D01*
X151420500Y-109379750D01*
X151420500Y-107640249D01*
X151420499Y-107640247D01*
X151408868Y-107581770D01*
X151408867Y-107581769D01*
X151364552Y-107515447D01*
X151298230Y-107471132D01*
X151298229Y-107471131D01*
X151239752Y-107459500D01*
X151239748Y-107459500D01*
X149500252Y-107459500D01*
X149500247Y-107459500D01*
X149441770Y-107471131D01*
X149441769Y-107471132D01*
X149375447Y-107515447D01*
X149331132Y-107581769D01*
X149331131Y-107581770D01*
X149319500Y-107640247D01*
X102276325Y-107640247D01*
X102106420Y-107569870D01*
X102106412Y-107569868D01*
X101903469Y-107529500D01*
X101903465Y-107529500D01*
X101696535Y-107529500D01*
X101696530Y-107529500D01*
X101493587Y-107569868D01*
X101493579Y-107569870D01*
X101302403Y-107649058D01*
X101130342Y-107764024D01*
X100984024Y-107910342D01*
X100869058Y-108082403D01*
X100789870Y-108273579D01*
X100789868Y-108273587D01*
X100749500Y-108476530D01*
X98600499Y-108476530D01*
X98600499Y-106784108D01*
X108099500Y-106784108D01*
X108099500Y-106915891D01*
X108133608Y-107043187D01*
X108166554Y-107100250D01*
X108199500Y-107157314D01*
X108292686Y-107250500D01*
X108406814Y-107316392D01*
X108534108Y-107350500D01*
X108534110Y-107350500D01*
X108665890Y-107350500D01*
X108665892Y-107350500D01*
X108793186Y-107316392D01*
X108907314Y-107250500D01*
X109000500Y-107157314D01*
X109066392Y-107043186D01*
X109100500Y-106915892D01*
X109100500Y-106784108D01*
X109066392Y-106656814D01*
X109000500Y-106542686D01*
X108907314Y-106449500D01*
X108850250Y-106416554D01*
X108793187Y-106383608D01*
X108729539Y-106366554D01*
X108665892Y-106349500D01*
X108534108Y-106349500D01*
X108406812Y-106383608D01*
X108292686Y-106449500D01*
X108292683Y-106449502D01*
X108199502Y-106542683D01*
X108199500Y-106542686D01*
X108133608Y-106656812D01*
X108099500Y-106784108D01*
X98600499Y-106784108D01*
X98600499Y-106134108D01*
X142949500Y-106134108D01*
X142949500Y-106265891D01*
X142983608Y-106393187D01*
X143016121Y-106449500D01*
X143049500Y-106507314D01*
X143142686Y-106600500D01*
X143256814Y-106666392D01*
X143384108Y-106700500D01*
X143384110Y-106700500D01*
X143515890Y-106700500D01*
X143515892Y-106700500D01*
X143643186Y-106666392D01*
X143757314Y-106600500D01*
X143850500Y-106507314D01*
X143916392Y-106393186D01*
X143950500Y-106265892D01*
X143950500Y-106134108D01*
X143916392Y-106006814D01*
X143850500Y-105892686D01*
X143757314Y-105799500D01*
X143700250Y-105766554D01*
X143643187Y-105733608D01*
X143579539Y-105716554D01*
X143515892Y-105699500D01*
X143384108Y-105699500D01*
X143256812Y-105733608D01*
X143142686Y-105799500D01*
X143142683Y-105799502D01*
X143049502Y-105892683D01*
X143049500Y-105892686D01*
X142983608Y-106006812D01*
X142949500Y-106134108D01*
X98600499Y-106134108D01*
X98600499Y-102402870D01*
X98600631Y-102397143D01*
X98606323Y-102274038D01*
X101249500Y-102274038D01*
X101249500Y-102525962D01*
X101254386Y-102556812D01*
X101288910Y-102774785D01*
X101366760Y-103014383D01*
X101481132Y-103238848D01*
X101629201Y-103442649D01*
X101629205Y-103442654D01*
X101807345Y-103620794D01*
X101807350Y-103620798D01*
X101985117Y-103749952D01*
X102011155Y-103768870D01*
X102154184Y-103841747D01*
X102235616Y-103883239D01*
X102235618Y-103883239D01*
X102235621Y-103883241D01*
X102475215Y-103961090D01*
X102724038Y-104000500D01*
X102724039Y-104000500D01*
X102975961Y-104000500D01*
X102975962Y-104000500D01*
X103224785Y-103961090D01*
X103464379Y-103883241D01*
X103688845Y-103768870D01*
X103892656Y-103620793D01*
X104070793Y-103442656D01*
X104218870Y-103238845D01*
X104333241Y-103014379D01*
X104375569Y-102884108D01*
X108099500Y-102884108D01*
X108099500Y-103015892D01*
X108116554Y-103079539D01*
X108133608Y-103143187D01*
X108166554Y-103200250D01*
X108199500Y-103257314D01*
X108292686Y-103350500D01*
X108406814Y-103416392D01*
X108534108Y-103450500D01*
X108534110Y-103450500D01*
X108665890Y-103450500D01*
X108665892Y-103450500D01*
X108793186Y-103416392D01*
X108907314Y-103350500D01*
X109000500Y-103257314D01*
X109066392Y-103143186D01*
X109100500Y-103015892D01*
X109100500Y-102884108D01*
X109066392Y-102756814D01*
X109066389Y-102756808D01*
X109055520Y-102737982D01*
X109055519Y-102737981D01*
X109024415Y-102684108D01*
X142949500Y-102684108D01*
X142949500Y-102815891D01*
X142983608Y-102943187D01*
X143016554Y-103000250D01*
X143049500Y-103057314D01*
X143142686Y-103150500D01*
X143256814Y-103216392D01*
X143384108Y-103250500D01*
X143384110Y-103250500D01*
X143515890Y-103250500D01*
X143515892Y-103250500D01*
X143643186Y-103216392D01*
X143757314Y-103150500D01*
X143850500Y-103057314D01*
X143916392Y-102943186D01*
X143950500Y-102815892D01*
X143950500Y-102684108D01*
X143916392Y-102556814D01*
X143850500Y-102442686D01*
X143757314Y-102349500D01*
X143700250Y-102316554D01*
X143643187Y-102283608D01*
X143607470Y-102274038D01*
X148109500Y-102274038D01*
X148109500Y-102525962D01*
X148114386Y-102556812D01*
X148148910Y-102774785D01*
X148226760Y-103014383D01*
X148341132Y-103238848D01*
X148489201Y-103442649D01*
X148489205Y-103442654D01*
X148667345Y-103620794D01*
X148667350Y-103620798D01*
X148845117Y-103749952D01*
X148871155Y-103768870D01*
X149014184Y-103841747D01*
X149095616Y-103883239D01*
X149095618Y-103883239D01*
X149095621Y-103883241D01*
X149335215Y-103961090D01*
X149584038Y-104000500D01*
X149584039Y-104000500D01*
X149835961Y-104000500D01*
X149835962Y-104000500D01*
X150084785Y-103961090D01*
X150324379Y-103883241D01*
X150548845Y-103768870D01*
X150752656Y-103620793D01*
X150930793Y-103442656D01*
X151078870Y-103238845D01*
X151193241Y-103014379D01*
X151271090Y-102774785D01*
X151310500Y-102525962D01*
X151310500Y-102274038D01*
X151271090Y-102025215D01*
X151193241Y-101785621D01*
X151193239Y-101785618D01*
X151193239Y-101785616D01*
X151151747Y-101704184D01*
X151078870Y-101561155D01*
X151059952Y-101535117D01*
X150930798Y-101357350D01*
X150930794Y-101357345D01*
X150752654Y-101179205D01*
X150752649Y-101179201D01*
X150548848Y-101031132D01*
X150548847Y-101031131D01*
X150548845Y-101031130D01*
X150478747Y-100995413D01*
X150324383Y-100916760D01*
X150084785Y-100838910D01*
X149835962Y-100799500D01*
X149584038Y-100799500D01*
X149459626Y-100819205D01*
X149335214Y-100838910D01*
X149095616Y-100916760D01*
X148871151Y-101031132D01*
X148667350Y-101179201D01*
X148667345Y-101179205D01*
X148489205Y-101357345D01*
X148489201Y-101357350D01*
X148341132Y-101561151D01*
X148226760Y-101785616D01*
X148156380Y-102002224D01*
X148148910Y-102025215D01*
X148109500Y-102274038D01*
X143607470Y-102274038D01*
X143579539Y-102266554D01*
X143515892Y-102249500D01*
X143384108Y-102249500D01*
X143256812Y-102283608D01*
X143142686Y-102349500D01*
X143142683Y-102349502D01*
X143049502Y-102442683D01*
X143049500Y-102442686D01*
X142983608Y-102556812D01*
X142949500Y-102684108D01*
X109024415Y-102684108D01*
X109000500Y-102642686D01*
X108907314Y-102549500D01*
X108850250Y-102516554D01*
X108793187Y-102483608D01*
X108729539Y-102466554D01*
X108665892Y-102449500D01*
X108534108Y-102449500D01*
X108406812Y-102483608D01*
X108292686Y-102549500D01*
X108292683Y-102549502D01*
X108199502Y-102642683D01*
X108199500Y-102642686D01*
X108133608Y-102756812D01*
X108117778Y-102815892D01*
X108099500Y-102884108D01*
X104375569Y-102884108D01*
X104397734Y-102815892D01*
X104411090Y-102774785D01*
X104445614Y-102556812D01*
X104450500Y-102525962D01*
X104450500Y-102274038D01*
X104411090Y-102025215D01*
X104333241Y-101785621D01*
X104333239Y-101785618D01*
X104333239Y-101785616D01*
X104291747Y-101704184D01*
X104218870Y-101561155D01*
X104199952Y-101535117D01*
X104070798Y-101357350D01*
X104070794Y-101357345D01*
X103892654Y-101179205D01*
X103892649Y-101179201D01*
X103688848Y-101031132D01*
X103688847Y-101031131D01*
X103688845Y-101031130D01*
X103618747Y-100995413D01*
X103464383Y-100916760D01*
X103224785Y-100838910D01*
X102975962Y-100799500D01*
X102724038Y-100799500D01*
X102599626Y-100819205D01*
X102475214Y-100838910D01*
X102235616Y-100916760D01*
X102011151Y-101031132D01*
X101807350Y-101179201D01*
X101807345Y-101179205D01*
X101629205Y-101357345D01*
X101629201Y-101357350D01*
X101481132Y-101561151D01*
X101366760Y-101785616D01*
X101296380Y-102002224D01*
X101288910Y-102025215D01*
X101249500Y-102274038D01*
X98606323Y-102274038D01*
X98606813Y-102263439D01*
X98611834Y-102154817D01*
X98618362Y-102013619D01*
X98619419Y-102002224D01*
X98649634Y-101785621D01*
X98672065Y-101624819D01*
X98674165Y-101613582D01*
X98761412Y-101242632D01*
X98764535Y-101231653D01*
X98885644Y-100870312D01*
X98889767Y-100859673D01*
X99043691Y-100511068D01*
X99048783Y-100500842D01*
X99234213Y-100167932D01*
X99240239Y-100158200D01*
X99285569Y-100092026D01*
X99455598Y-99843812D01*
X99462480Y-99834700D01*
X99705928Y-99541528D01*
X99713623Y-99533087D01*
X99983087Y-99263623D01*
X99991528Y-99255928D01*
X100284700Y-99012480D01*
X100293812Y-99005598D01*
X100608205Y-98790235D01*
X100617932Y-98784213D01*
X100950842Y-98598783D01*
X100961068Y-98593691D01*
X101309673Y-98439767D01*
X101320312Y-98435644D01*
X101681653Y-98314535D01*
X101692632Y-98311412D01*
X102063582Y-98224165D01*
X102074819Y-98222065D01*
X102452233Y-98169418D01*
X102463619Y-98168362D01*
X102847144Y-98150631D01*
X102852871Y-98150499D01*
X102915891Y-98150499D01*
X149644109Y-98150499D01*
X149707129Y-98150499D01*
X149712856Y-98150631D01*
G37*
%TD.AperFunction*%
%TD*%
M02*
