%TF.GenerationSoftware,KiCad,Pcbnew,9.0.6*%
%TF.CreationDate,2025-11-29T10:37:21+02:00*%
%TF.ProjectId,laserboard,6c617365-7262-46f6-9172-642e6b696361,rev?*%
%TF.SameCoordinates,Original*%
%TF.FileFunction,Legend,Top*%
%TF.FilePolarity,Positive*%
%FSLAX46Y46*%
G04 Gerber Fmt 4.6, Leading zero omitted, Abs format (unit mm)*
G04 Created by KiCad (PCBNEW 9.0.6) date 2025-11-29 10:37:21*
%MOMM*%
%LPD*%
G01*
G04 APERTURE LIST*
%ADD10C,0.100000*%
%ADD11C,0.150000*%
%ADD12C,0.120000*%
G04 APERTURE END LIST*
D10*
X124600000Y-115150000D02*
X127800000Y-111950000D01*
X124600000Y-121450000D02*
X126200000Y-119850000D01*
X127800000Y-111950000D02*
X124600000Y-115150000D01*
X124600000Y-119850000D02*
X126200000Y-118250000D01*
X124600000Y-110350000D02*
X127800000Y-110350000D01*
X127800000Y-121850000D01*
X124600000Y-121850000D01*
X124600000Y-110350000D01*
X127800000Y-119850000D02*
X125800000Y-121850000D01*
X127800000Y-118250000D02*
X124600000Y-121450000D01*
X127800000Y-115050000D02*
X124600000Y-118250000D01*
X127800000Y-116650000D02*
X124600000Y-119850000D01*
X126200000Y-110350000D02*
X124600000Y-111950000D01*
X127800000Y-110350000D02*
X124600000Y-113550000D01*
X127800000Y-115050000D02*
X127800000Y-116650000D01*
X127800000Y-113550000D02*
X124600000Y-116750000D01*
X124600000Y-118250000D02*
X127800000Y-115050000D01*
D11*
X121501125Y-123557877D02*
X122072553Y-123557877D01*
X121786839Y-124557877D02*
X121786839Y-123557877D01*
X122405887Y-124557877D02*
X122405887Y-123557877D01*
X122405887Y-123557877D02*
X122786839Y-123557877D01*
X122786839Y-123557877D02*
X122882077Y-123605496D01*
X122882077Y-123605496D02*
X122929696Y-123653115D01*
X122929696Y-123653115D02*
X122977315Y-123748353D01*
X122977315Y-123748353D02*
X122977315Y-123891210D01*
X122977315Y-123891210D02*
X122929696Y-123986448D01*
X122929696Y-123986448D02*
X122882077Y-124034067D01*
X122882077Y-124034067D02*
X122786839Y-124081686D01*
X122786839Y-124081686D02*
X122405887Y-124081686D01*
X123358268Y-123653115D02*
X123405887Y-123605496D01*
X123405887Y-123605496D02*
X123501125Y-123557877D01*
X123501125Y-123557877D02*
X123739220Y-123557877D01*
X123739220Y-123557877D02*
X123834458Y-123605496D01*
X123834458Y-123605496D02*
X123882077Y-123653115D01*
X123882077Y-123653115D02*
X123929696Y-123748353D01*
X123929696Y-123748353D02*
X123929696Y-123843591D01*
X123929696Y-123843591D02*
X123882077Y-123986448D01*
X123882077Y-123986448D02*
X123310649Y-124557877D01*
X123310649Y-124557877D02*
X123929696Y-124557877D01*
D10*
X110305074Y-100587475D02*
X109828884Y-100587475D01*
X109828884Y-100587475D02*
X109828884Y-99587475D01*
X110638408Y-100587475D02*
X110638408Y-99920808D01*
X110638408Y-99587475D02*
X110590789Y-99635094D01*
X110590789Y-99635094D02*
X110638408Y-99682713D01*
X110638408Y-99682713D02*
X110686027Y-99635094D01*
X110686027Y-99635094D02*
X110638408Y-99587475D01*
X110638408Y-99587475D02*
X110638408Y-99682713D01*
X111447931Y-100063665D02*
X111590788Y-100111284D01*
X111590788Y-100111284D02*
X111638407Y-100158903D01*
X111638407Y-100158903D02*
X111686026Y-100254141D01*
X111686026Y-100254141D02*
X111686026Y-100396998D01*
X111686026Y-100396998D02*
X111638407Y-100492236D01*
X111638407Y-100492236D02*
X111590788Y-100539856D01*
X111590788Y-100539856D02*
X111495550Y-100587475D01*
X111495550Y-100587475D02*
X111114598Y-100587475D01*
X111114598Y-100587475D02*
X111114598Y-99587475D01*
X111114598Y-99587475D02*
X111447931Y-99587475D01*
X111447931Y-99587475D02*
X111543169Y-99635094D01*
X111543169Y-99635094D02*
X111590788Y-99682713D01*
X111590788Y-99682713D02*
X111638407Y-99777951D01*
X111638407Y-99777951D02*
X111638407Y-99873189D01*
X111638407Y-99873189D02*
X111590788Y-99968427D01*
X111590788Y-99968427D02*
X111543169Y-100016046D01*
X111543169Y-100016046D02*
X111447931Y-100063665D01*
X111447931Y-100063665D02*
X111114598Y-100063665D01*
X112257455Y-100587475D02*
X112162217Y-100539856D01*
X112162217Y-100539856D02*
X112114598Y-100492236D01*
X112114598Y-100492236D02*
X112066979Y-100396998D01*
X112066979Y-100396998D02*
X112066979Y-100111284D01*
X112066979Y-100111284D02*
X112114598Y-100016046D01*
X112114598Y-100016046D02*
X112162217Y-99968427D01*
X112162217Y-99968427D02*
X112257455Y-99920808D01*
X112257455Y-99920808D02*
X112400312Y-99920808D01*
X112400312Y-99920808D02*
X112495550Y-99968427D01*
X112495550Y-99968427D02*
X112543169Y-100016046D01*
X112543169Y-100016046D02*
X112590788Y-100111284D01*
X112590788Y-100111284D02*
X112590788Y-100396998D01*
X112590788Y-100396998D02*
X112543169Y-100492236D01*
X112543169Y-100492236D02*
X112495550Y-100539856D01*
X112495550Y-100539856D02*
X112400312Y-100587475D01*
X112400312Y-100587475D02*
X112257455Y-100587475D01*
X113447931Y-100587475D02*
X113447931Y-100063665D01*
X113447931Y-100063665D02*
X113400312Y-99968427D01*
X113400312Y-99968427D02*
X113305074Y-99920808D01*
X113305074Y-99920808D02*
X113114598Y-99920808D01*
X113114598Y-99920808D02*
X113019360Y-99968427D01*
X113447931Y-100539856D02*
X113352693Y-100587475D01*
X113352693Y-100587475D02*
X113114598Y-100587475D01*
X113114598Y-100587475D02*
X113019360Y-100539856D01*
X113019360Y-100539856D02*
X112971741Y-100444617D01*
X112971741Y-100444617D02*
X112971741Y-100349379D01*
X112971741Y-100349379D02*
X113019360Y-100254141D01*
X113019360Y-100254141D02*
X113114598Y-100206522D01*
X113114598Y-100206522D02*
X113352693Y-100206522D01*
X113352693Y-100206522D02*
X113447931Y-100158903D01*
X113924122Y-100587475D02*
X113924122Y-99920808D01*
X113924122Y-100111284D02*
X113971741Y-100016046D01*
X113971741Y-100016046D02*
X114019360Y-99968427D01*
X114019360Y-99968427D02*
X114114598Y-99920808D01*
X114114598Y-99920808D02*
X114209836Y-99920808D01*
X114971741Y-100587475D02*
X114971741Y-99587475D01*
X114971741Y-100539856D02*
X114876503Y-100587475D01*
X114876503Y-100587475D02*
X114686027Y-100587475D01*
X114686027Y-100587475D02*
X114590789Y-100539856D01*
X114590789Y-100539856D02*
X114543170Y-100492236D01*
X114543170Y-100492236D02*
X114495551Y-100396998D01*
X114495551Y-100396998D02*
X114495551Y-100111284D01*
X114495551Y-100111284D02*
X114543170Y-100016046D01*
X114543170Y-100016046D02*
X114590789Y-99968427D01*
X114590789Y-99968427D02*
X114686027Y-99920808D01*
X114686027Y-99920808D02*
X114876503Y-99920808D01*
X114876503Y-99920808D02*
X114971741Y-99968427D01*
X116209837Y-100206522D02*
X116971742Y-100206522D01*
X118209837Y-100587475D02*
X118209837Y-99587475D01*
X118209837Y-99587475D02*
X118447932Y-99587475D01*
X118447932Y-99587475D02*
X118590789Y-99635094D01*
X118590789Y-99635094D02*
X118686027Y-99730332D01*
X118686027Y-99730332D02*
X118733646Y-99825570D01*
X118733646Y-99825570D02*
X118781265Y-100016046D01*
X118781265Y-100016046D02*
X118781265Y-100158903D01*
X118781265Y-100158903D02*
X118733646Y-100349379D01*
X118733646Y-100349379D02*
X118686027Y-100444617D01*
X118686027Y-100444617D02*
X118590789Y-100539856D01*
X118590789Y-100539856D02*
X118447932Y-100587475D01*
X118447932Y-100587475D02*
X118209837Y-100587475D01*
X119590789Y-100539856D02*
X119495551Y-100587475D01*
X119495551Y-100587475D02*
X119305075Y-100587475D01*
X119305075Y-100587475D02*
X119209837Y-100539856D01*
X119209837Y-100539856D02*
X119162218Y-100444617D01*
X119162218Y-100444617D02*
X119162218Y-100063665D01*
X119162218Y-100063665D02*
X119209837Y-99968427D01*
X119209837Y-99968427D02*
X119305075Y-99920808D01*
X119305075Y-99920808D02*
X119495551Y-99920808D01*
X119495551Y-99920808D02*
X119590789Y-99968427D01*
X119590789Y-99968427D02*
X119638408Y-100063665D01*
X119638408Y-100063665D02*
X119638408Y-100158903D01*
X119638408Y-100158903D02*
X119162218Y-100254141D01*
X119971742Y-99920808D02*
X120209837Y-100587475D01*
X120209837Y-100587475D02*
X120447932Y-99920808D01*
X120828885Y-100206522D02*
X121590790Y-100206522D01*
X122066980Y-100587475D02*
X122066980Y-99587475D01*
X122162218Y-100206522D02*
X122447932Y-100587475D01*
X122447932Y-99920808D02*
X122066980Y-100301760D01*
X122876504Y-100587475D02*
X122876504Y-99920808D01*
X122876504Y-99587475D02*
X122828885Y-99635094D01*
X122828885Y-99635094D02*
X122876504Y-99682713D01*
X122876504Y-99682713D02*
X122924123Y-99635094D01*
X122924123Y-99635094D02*
X122876504Y-99587475D01*
X122876504Y-99587475D02*
X122876504Y-99682713D01*
X123209837Y-99920808D02*
X123590789Y-99920808D01*
X123352694Y-99587475D02*
X123352694Y-100444617D01*
X123352694Y-100444617D02*
X123400313Y-100539856D01*
X123400313Y-100539856D02*
X123495551Y-100587475D01*
X123495551Y-100587475D02*
X123590789Y-100587475D01*
X124543171Y-99920808D02*
X124924123Y-99920808D01*
X124686028Y-100587475D02*
X124686028Y-99730332D01*
X124686028Y-99730332D02*
X124733647Y-99635094D01*
X124733647Y-99635094D02*
X124828885Y-99587475D01*
X124828885Y-99587475D02*
X124924123Y-99587475D01*
X125400314Y-100587475D02*
X125305076Y-100539856D01*
X125305076Y-100539856D02*
X125257457Y-100492236D01*
X125257457Y-100492236D02*
X125209838Y-100396998D01*
X125209838Y-100396998D02*
X125209838Y-100111284D01*
X125209838Y-100111284D02*
X125257457Y-100016046D01*
X125257457Y-100016046D02*
X125305076Y-99968427D01*
X125305076Y-99968427D02*
X125400314Y-99920808D01*
X125400314Y-99920808D02*
X125543171Y-99920808D01*
X125543171Y-99920808D02*
X125638409Y-99968427D01*
X125638409Y-99968427D02*
X125686028Y-100016046D01*
X125686028Y-100016046D02*
X125733647Y-100111284D01*
X125733647Y-100111284D02*
X125733647Y-100396998D01*
X125733647Y-100396998D02*
X125686028Y-100492236D01*
X125686028Y-100492236D02*
X125638409Y-100539856D01*
X125638409Y-100539856D02*
X125543171Y-100587475D01*
X125543171Y-100587475D02*
X125400314Y-100587475D01*
X126162219Y-100587475D02*
X126162219Y-99920808D01*
X126162219Y-100111284D02*
X126209838Y-100016046D01*
X126209838Y-100016046D02*
X126257457Y-99968427D01*
X126257457Y-99968427D02*
X126352695Y-99920808D01*
X126352695Y-99920808D02*
X126447933Y-99920808D01*
X128019362Y-100587475D02*
X127543172Y-100587475D01*
X127543172Y-100587475D02*
X127543172Y-99587475D01*
X128352696Y-100587475D02*
X128352696Y-99920808D01*
X128352696Y-99587475D02*
X128305077Y-99635094D01*
X128305077Y-99635094D02*
X128352696Y-99682713D01*
X128352696Y-99682713D02*
X128400315Y-99635094D01*
X128400315Y-99635094D02*
X128352696Y-99587475D01*
X128352696Y-99587475D02*
X128352696Y-99682713D01*
X129162219Y-100063665D02*
X128828886Y-100063665D01*
X128828886Y-100587475D02*
X128828886Y-99587475D01*
X128828886Y-99587475D02*
X129305076Y-99587475D01*
X129686029Y-100587475D02*
X129686029Y-99920808D01*
X129686029Y-99587475D02*
X129638410Y-99635094D01*
X129638410Y-99635094D02*
X129686029Y-99682713D01*
X129686029Y-99682713D02*
X129733648Y-99635094D01*
X129733648Y-99635094D02*
X129686029Y-99587475D01*
X129686029Y-99587475D02*
X129686029Y-99682713D01*
X131495552Y-100587475D02*
X131162219Y-100111284D01*
X130924124Y-100587475D02*
X130924124Y-99587475D01*
X130924124Y-99587475D02*
X131305076Y-99587475D01*
X131305076Y-99587475D02*
X131400314Y-99635094D01*
X131400314Y-99635094D02*
X131447933Y-99682713D01*
X131447933Y-99682713D02*
X131495552Y-99777951D01*
X131495552Y-99777951D02*
X131495552Y-99920808D01*
X131495552Y-99920808D02*
X131447933Y-100016046D01*
X131447933Y-100016046D02*
X131400314Y-100063665D01*
X131400314Y-100063665D02*
X131305076Y-100111284D01*
X131305076Y-100111284D02*
X130924124Y-100111284D01*
X131924124Y-99920808D02*
X131924124Y-100587475D01*
X131924124Y-100016046D02*
X131971743Y-99968427D01*
X131971743Y-99968427D02*
X132066981Y-99920808D01*
X132066981Y-99920808D02*
X132209838Y-99920808D01*
X132209838Y-99920808D02*
X132305076Y-99968427D01*
X132305076Y-99968427D02*
X132352695Y-100063665D01*
X132352695Y-100063665D02*
X132352695Y-100587475D01*
X132828886Y-100587475D02*
X132828886Y-99587475D01*
X132828886Y-99587475D02*
X133066981Y-99587475D01*
X133066981Y-99587475D02*
X133209838Y-99635094D01*
X133209838Y-99635094D02*
X133305076Y-99730332D01*
X133305076Y-99730332D02*
X133352695Y-99825570D01*
X133352695Y-99825570D02*
X133400314Y-100016046D01*
X133400314Y-100016046D02*
X133400314Y-100158903D01*
X133400314Y-100158903D02*
X133352695Y-100349379D01*
X133352695Y-100349379D02*
X133305076Y-100444617D01*
X133305076Y-100444617D02*
X133209838Y-100539856D01*
X133209838Y-100539856D02*
X133066981Y-100587475D01*
X133066981Y-100587475D02*
X132828886Y-100587475D01*
X133828886Y-100492236D02*
X133876505Y-100539856D01*
X133876505Y-100539856D02*
X133828886Y-100587475D01*
X133828886Y-100587475D02*
X133781267Y-100539856D01*
X133781267Y-100539856D02*
X133828886Y-100492236D01*
X133828886Y-100492236D02*
X133828886Y-100587475D01*
X109828884Y-102197419D02*
X109828884Y-101197419D01*
X109828884Y-101673609D02*
X110400312Y-101673609D01*
X110400312Y-102197419D02*
X110400312Y-101197419D01*
X110781265Y-101197419D02*
X111019360Y-102197419D01*
X111019360Y-102197419D02*
X111209836Y-101483133D01*
X111209836Y-101483133D02*
X111400312Y-102197419D01*
X111400312Y-102197419D02*
X111638408Y-101197419D01*
X112781265Y-102197419D02*
X112781265Y-101530752D01*
X112781265Y-101721228D02*
X112828884Y-101625990D01*
X112828884Y-101625990D02*
X112876503Y-101578371D01*
X112876503Y-101578371D02*
X112971741Y-101530752D01*
X112971741Y-101530752D02*
X113066979Y-101530752D01*
X113781265Y-102149800D02*
X113686027Y-102197419D01*
X113686027Y-102197419D02*
X113495551Y-102197419D01*
X113495551Y-102197419D02*
X113400313Y-102149800D01*
X113400313Y-102149800D02*
X113352694Y-102054561D01*
X113352694Y-102054561D02*
X113352694Y-101673609D01*
X113352694Y-101673609D02*
X113400313Y-101578371D01*
X113400313Y-101578371D02*
X113495551Y-101530752D01*
X113495551Y-101530752D02*
X113686027Y-101530752D01*
X113686027Y-101530752D02*
X113781265Y-101578371D01*
X113781265Y-101578371D02*
X113828884Y-101673609D01*
X113828884Y-101673609D02*
X113828884Y-101768847D01*
X113828884Y-101768847D02*
X113352694Y-101864085D01*
X114162218Y-101530752D02*
X114400313Y-102197419D01*
X114400313Y-102197419D02*
X114638408Y-101530752D01*
X115019361Y-102197419D02*
X115019361Y-101530752D01*
X115019361Y-101197419D02*
X114971742Y-101245038D01*
X114971742Y-101245038D02*
X115019361Y-101292657D01*
X115019361Y-101292657D02*
X115066980Y-101245038D01*
X115066980Y-101245038D02*
X115019361Y-101197419D01*
X115019361Y-101197419D02*
X115019361Y-101292657D01*
X115447932Y-102149800D02*
X115543170Y-102197419D01*
X115543170Y-102197419D02*
X115733646Y-102197419D01*
X115733646Y-102197419D02*
X115828884Y-102149800D01*
X115828884Y-102149800D02*
X115876503Y-102054561D01*
X115876503Y-102054561D02*
X115876503Y-102006942D01*
X115876503Y-102006942D02*
X115828884Y-101911704D01*
X115828884Y-101911704D02*
X115733646Y-101864085D01*
X115733646Y-101864085D02*
X115590789Y-101864085D01*
X115590789Y-101864085D02*
X115495551Y-101816466D01*
X115495551Y-101816466D02*
X115447932Y-101721228D01*
X115447932Y-101721228D02*
X115447932Y-101673609D01*
X115447932Y-101673609D02*
X115495551Y-101578371D01*
X115495551Y-101578371D02*
X115590789Y-101530752D01*
X115590789Y-101530752D02*
X115733646Y-101530752D01*
X115733646Y-101530752D02*
X115828884Y-101578371D01*
X116305075Y-102197419D02*
X116305075Y-101530752D01*
X116305075Y-101197419D02*
X116257456Y-101245038D01*
X116257456Y-101245038D02*
X116305075Y-101292657D01*
X116305075Y-101292657D02*
X116352694Y-101245038D01*
X116352694Y-101245038D02*
X116305075Y-101197419D01*
X116305075Y-101197419D02*
X116305075Y-101292657D01*
X116924122Y-102197419D02*
X116828884Y-102149800D01*
X116828884Y-102149800D02*
X116781265Y-102102180D01*
X116781265Y-102102180D02*
X116733646Y-102006942D01*
X116733646Y-102006942D02*
X116733646Y-101721228D01*
X116733646Y-101721228D02*
X116781265Y-101625990D01*
X116781265Y-101625990D02*
X116828884Y-101578371D01*
X116828884Y-101578371D02*
X116924122Y-101530752D01*
X116924122Y-101530752D02*
X117066979Y-101530752D01*
X117066979Y-101530752D02*
X117162217Y-101578371D01*
X117162217Y-101578371D02*
X117209836Y-101625990D01*
X117209836Y-101625990D02*
X117257455Y-101721228D01*
X117257455Y-101721228D02*
X117257455Y-102006942D01*
X117257455Y-102006942D02*
X117209836Y-102102180D01*
X117209836Y-102102180D02*
X117162217Y-102149800D01*
X117162217Y-102149800D02*
X117066979Y-102197419D01*
X117066979Y-102197419D02*
X116924122Y-102197419D01*
X117686027Y-101530752D02*
X117686027Y-102197419D01*
X117686027Y-101625990D02*
X117733646Y-101578371D01*
X117733646Y-101578371D02*
X117828884Y-101530752D01*
X117828884Y-101530752D02*
X117971741Y-101530752D01*
X117971741Y-101530752D02*
X118066979Y-101578371D01*
X118066979Y-101578371D02*
X118114598Y-101673609D01*
X118114598Y-101673609D02*
X118114598Y-102197419D01*
X119352694Y-101816466D02*
X120114599Y-101816466D01*
X121257456Y-101530752D02*
X121495551Y-102197419D01*
X121495551Y-102197419D02*
X121733646Y-101530752D01*
X122638408Y-102197419D02*
X122066980Y-102197419D01*
X122352694Y-102197419D02*
X122352694Y-101197419D01*
X122352694Y-101197419D02*
X122257456Y-101340276D01*
X122257456Y-101340276D02*
X122162218Y-101435514D01*
X122162218Y-101435514D02*
X122066980Y-101483133D01*
X123066980Y-102102180D02*
X123114599Y-102149800D01*
X123114599Y-102149800D02*
X123066980Y-102197419D01*
X123066980Y-102197419D02*
X123019361Y-102149800D01*
X123019361Y-102149800D02*
X123066980Y-102102180D01*
X123066980Y-102102180D02*
X123066980Y-102197419D01*
X123733646Y-101197419D02*
X123828884Y-101197419D01*
X123828884Y-101197419D02*
X123924122Y-101245038D01*
X123924122Y-101245038D02*
X123971741Y-101292657D01*
X123971741Y-101292657D02*
X124019360Y-101387895D01*
X124019360Y-101387895D02*
X124066979Y-101578371D01*
X124066979Y-101578371D02*
X124066979Y-101816466D01*
X124066979Y-101816466D02*
X124019360Y-102006942D01*
X124019360Y-102006942D02*
X123971741Y-102102180D01*
X123971741Y-102102180D02*
X123924122Y-102149800D01*
X123924122Y-102149800D02*
X123828884Y-102197419D01*
X123828884Y-102197419D02*
X123733646Y-102197419D01*
X123733646Y-102197419D02*
X123638408Y-102149800D01*
X123638408Y-102149800D02*
X123590789Y-102102180D01*
X123590789Y-102102180D02*
X123543170Y-102006942D01*
X123543170Y-102006942D02*
X123495551Y-101816466D01*
X123495551Y-101816466D02*
X123495551Y-101578371D01*
X123495551Y-101578371D02*
X123543170Y-101387895D01*
X123543170Y-101387895D02*
X123590789Y-101292657D01*
X123590789Y-101292657D02*
X123638408Y-101245038D01*
X123638408Y-101245038D02*
X123733646Y-101197419D01*
D11*
X101466666Y-156134819D02*
X101466666Y-156849104D01*
X101466666Y-156849104D02*
X101419047Y-156991961D01*
X101419047Y-156991961D02*
X101323809Y-157087200D01*
X101323809Y-157087200D02*
X101180952Y-157134819D01*
X101180952Y-157134819D02*
X101085714Y-157134819D01*
X102371428Y-156468152D02*
X102371428Y-157134819D01*
X102133333Y-156087200D02*
X101895238Y-156801485D01*
X101895238Y-156801485D02*
X102514285Y-156801485D01*
X111488095Y-150754819D02*
X111488095Y-151564342D01*
X111488095Y-151564342D02*
X111535714Y-151659580D01*
X111535714Y-151659580D02*
X111583333Y-151707200D01*
X111583333Y-151707200D02*
X111678571Y-151754819D01*
X111678571Y-151754819D02*
X111869047Y-151754819D01*
X111869047Y-151754819D02*
X111964285Y-151707200D01*
X111964285Y-151707200D02*
X112011904Y-151659580D01*
X112011904Y-151659580D02*
X112059523Y-151564342D01*
X112059523Y-151564342D02*
X112059523Y-150754819D01*
X113011904Y-150754819D02*
X112535714Y-150754819D01*
X112535714Y-150754819D02*
X112488095Y-151231009D01*
X112488095Y-151231009D02*
X112535714Y-151183390D01*
X112535714Y-151183390D02*
X112630952Y-151135771D01*
X112630952Y-151135771D02*
X112869047Y-151135771D01*
X112869047Y-151135771D02*
X112964285Y-151183390D01*
X112964285Y-151183390D02*
X113011904Y-151231009D01*
X113011904Y-151231009D02*
X113059523Y-151326247D01*
X113059523Y-151326247D02*
X113059523Y-151564342D01*
X113059523Y-151564342D02*
X113011904Y-151659580D01*
X113011904Y-151659580D02*
X112964285Y-151707200D01*
X112964285Y-151707200D02*
X112869047Y-151754819D01*
X112869047Y-151754819D02*
X112630952Y-151754819D01*
X112630952Y-151754819D02*
X112535714Y-151707200D01*
X112535714Y-151707200D02*
X112488095Y-151659580D01*
X140338095Y-151054819D02*
X140338095Y-151864342D01*
X140338095Y-151864342D02*
X140385714Y-151959580D01*
X140385714Y-151959580D02*
X140433333Y-152007200D01*
X140433333Y-152007200D02*
X140528571Y-152054819D01*
X140528571Y-152054819D02*
X140719047Y-152054819D01*
X140719047Y-152054819D02*
X140814285Y-152007200D01*
X140814285Y-152007200D02*
X140861904Y-151959580D01*
X140861904Y-151959580D02*
X140909523Y-151864342D01*
X140909523Y-151864342D02*
X140909523Y-151054819D01*
X141814285Y-151054819D02*
X141623809Y-151054819D01*
X141623809Y-151054819D02*
X141528571Y-151102438D01*
X141528571Y-151102438D02*
X141480952Y-151150057D01*
X141480952Y-151150057D02*
X141385714Y-151292914D01*
X141385714Y-151292914D02*
X141338095Y-151483390D01*
X141338095Y-151483390D02*
X141338095Y-151864342D01*
X141338095Y-151864342D02*
X141385714Y-151959580D01*
X141385714Y-151959580D02*
X141433333Y-152007200D01*
X141433333Y-152007200D02*
X141528571Y-152054819D01*
X141528571Y-152054819D02*
X141719047Y-152054819D01*
X141719047Y-152054819D02*
X141814285Y-152007200D01*
X141814285Y-152007200D02*
X141861904Y-151959580D01*
X141861904Y-151959580D02*
X141909523Y-151864342D01*
X141909523Y-151864342D02*
X141909523Y-151626247D01*
X141909523Y-151626247D02*
X141861904Y-151531009D01*
X141861904Y-151531009D02*
X141814285Y-151483390D01*
X141814285Y-151483390D02*
X141719047Y-151435771D01*
X141719047Y-151435771D02*
X141528571Y-151435771D01*
X141528571Y-151435771D02*
X141433333Y-151483390D01*
X141433333Y-151483390D02*
X141385714Y-151531009D01*
X141385714Y-151531009D02*
X141338095Y-151626247D01*
X129488095Y-138504819D02*
X129488095Y-139314342D01*
X129488095Y-139314342D02*
X129535714Y-139409580D01*
X129535714Y-139409580D02*
X129583333Y-139457200D01*
X129583333Y-139457200D02*
X129678571Y-139504819D01*
X129678571Y-139504819D02*
X129869047Y-139504819D01*
X129869047Y-139504819D02*
X129964285Y-139457200D01*
X129964285Y-139457200D02*
X130011904Y-139409580D01*
X130011904Y-139409580D02*
X130059523Y-139314342D01*
X130059523Y-139314342D02*
X130059523Y-138504819D01*
X130440476Y-138504819D02*
X131107142Y-138504819D01*
X131107142Y-138504819D02*
X130678571Y-139504819D01*
X116338095Y-141404819D02*
X116909523Y-141404819D01*
X116623809Y-142404819D02*
X116623809Y-141404819D01*
X117242857Y-142404819D02*
X117242857Y-141404819D01*
X117242857Y-141404819D02*
X117623809Y-141404819D01*
X117623809Y-141404819D02*
X117719047Y-141452438D01*
X117719047Y-141452438D02*
X117766666Y-141500057D01*
X117766666Y-141500057D02*
X117814285Y-141595295D01*
X117814285Y-141595295D02*
X117814285Y-141738152D01*
X117814285Y-141738152D02*
X117766666Y-141833390D01*
X117766666Y-141833390D02*
X117719047Y-141881009D01*
X117719047Y-141881009D02*
X117623809Y-141928628D01*
X117623809Y-141928628D02*
X117242857Y-141928628D01*
X118766666Y-142404819D02*
X118195238Y-142404819D01*
X118480952Y-142404819D02*
X118480952Y-141404819D01*
X118480952Y-141404819D02*
X118385714Y-141547676D01*
X118385714Y-141547676D02*
X118290476Y-141642914D01*
X118290476Y-141642914D02*
X118195238Y-141690533D01*
X102088095Y-106504819D02*
X102088095Y-105504819D01*
X102088095Y-105981009D02*
X102659523Y-105981009D01*
X102659523Y-106504819D02*
X102659523Y-105504819D01*
X103564285Y-105838152D02*
X103564285Y-106504819D01*
X103326190Y-105457200D02*
X103088095Y-106171485D01*
X103088095Y-106171485D02*
X103707142Y-106171485D01*
X128088095Y-117754819D02*
X128659523Y-117754819D01*
X128373809Y-118754819D02*
X128373809Y-117754819D01*
X128992857Y-118754819D02*
X128992857Y-117754819D01*
X128992857Y-117754819D02*
X129373809Y-117754819D01*
X129373809Y-117754819D02*
X129469047Y-117802438D01*
X129469047Y-117802438D02*
X129516666Y-117850057D01*
X129516666Y-117850057D02*
X129564285Y-117945295D01*
X129564285Y-117945295D02*
X129564285Y-118088152D01*
X129564285Y-118088152D02*
X129516666Y-118183390D01*
X129516666Y-118183390D02*
X129469047Y-118231009D01*
X129469047Y-118231009D02*
X129373809Y-118278628D01*
X129373809Y-118278628D02*
X128992857Y-118278628D01*
X130469047Y-117754819D02*
X129992857Y-117754819D01*
X129992857Y-117754819D02*
X129945238Y-118231009D01*
X129945238Y-118231009D02*
X129992857Y-118183390D01*
X129992857Y-118183390D02*
X130088095Y-118135771D01*
X130088095Y-118135771D02*
X130326190Y-118135771D01*
X130326190Y-118135771D02*
X130421428Y-118183390D01*
X130421428Y-118183390D02*
X130469047Y-118231009D01*
X130469047Y-118231009D02*
X130516666Y-118326247D01*
X130516666Y-118326247D02*
X130516666Y-118564342D01*
X130516666Y-118564342D02*
X130469047Y-118659580D01*
X130469047Y-118659580D02*
X130421428Y-118707200D01*
X130421428Y-118707200D02*
X130326190Y-118754819D01*
X130326190Y-118754819D02*
X130088095Y-118754819D01*
X130088095Y-118754819D02*
X129992857Y-118707200D01*
X129992857Y-118707200D02*
X129945238Y-118659580D01*
X136966666Y-129804819D02*
X136966666Y-130519104D01*
X136966666Y-130519104D02*
X136919047Y-130661961D01*
X136919047Y-130661961D02*
X136823809Y-130757200D01*
X136823809Y-130757200D02*
X136680952Y-130804819D01*
X136680952Y-130804819D02*
X136585714Y-130804819D01*
X137442857Y-130804819D02*
X137442857Y-129804819D01*
X137442857Y-129804819D02*
X137823809Y-129804819D01*
X137823809Y-129804819D02*
X137919047Y-129852438D01*
X137919047Y-129852438D02*
X137966666Y-129900057D01*
X137966666Y-129900057D02*
X138014285Y-129995295D01*
X138014285Y-129995295D02*
X138014285Y-130138152D01*
X138014285Y-130138152D02*
X137966666Y-130233390D01*
X137966666Y-130233390D02*
X137919047Y-130281009D01*
X137919047Y-130281009D02*
X137823809Y-130328628D01*
X137823809Y-130328628D02*
X137442857Y-130328628D01*
X138585714Y-130233390D02*
X138490476Y-130185771D01*
X138490476Y-130185771D02*
X138442857Y-130138152D01*
X138442857Y-130138152D02*
X138395238Y-130042914D01*
X138395238Y-130042914D02*
X138395238Y-129995295D01*
X138395238Y-129995295D02*
X138442857Y-129900057D01*
X138442857Y-129900057D02*
X138490476Y-129852438D01*
X138490476Y-129852438D02*
X138585714Y-129804819D01*
X138585714Y-129804819D02*
X138776190Y-129804819D01*
X138776190Y-129804819D02*
X138871428Y-129852438D01*
X138871428Y-129852438D02*
X138919047Y-129900057D01*
X138919047Y-129900057D02*
X138966666Y-129995295D01*
X138966666Y-129995295D02*
X138966666Y-130042914D01*
X138966666Y-130042914D02*
X138919047Y-130138152D01*
X138919047Y-130138152D02*
X138871428Y-130185771D01*
X138871428Y-130185771D02*
X138776190Y-130233390D01*
X138776190Y-130233390D02*
X138585714Y-130233390D01*
X138585714Y-130233390D02*
X138490476Y-130281009D01*
X138490476Y-130281009D02*
X138442857Y-130328628D01*
X138442857Y-130328628D02*
X138395238Y-130423866D01*
X138395238Y-130423866D02*
X138395238Y-130614342D01*
X138395238Y-130614342D02*
X138442857Y-130709580D01*
X138442857Y-130709580D02*
X138490476Y-130757200D01*
X138490476Y-130757200D02*
X138585714Y-130804819D01*
X138585714Y-130804819D02*
X138776190Y-130804819D01*
X138776190Y-130804819D02*
X138871428Y-130757200D01*
X138871428Y-130757200D02*
X138919047Y-130709580D01*
X138919047Y-130709580D02*
X138966666Y-130614342D01*
X138966666Y-130614342D02*
X138966666Y-130423866D01*
X138966666Y-130423866D02*
X138919047Y-130328628D01*
X138919047Y-130328628D02*
X138871428Y-130281009D01*
X138871428Y-130281009D02*
X138776190Y-130233390D01*
X102088095Y-165504819D02*
X102088095Y-164504819D01*
X102088095Y-164981009D02*
X102659523Y-164981009D01*
X102659523Y-165504819D02*
X102659523Y-164504819D01*
X103088095Y-164600057D02*
X103135714Y-164552438D01*
X103135714Y-164552438D02*
X103230952Y-164504819D01*
X103230952Y-164504819D02*
X103469047Y-164504819D01*
X103469047Y-164504819D02*
X103564285Y-164552438D01*
X103564285Y-164552438D02*
X103611904Y-164600057D01*
X103611904Y-164600057D02*
X103659523Y-164695295D01*
X103659523Y-164695295D02*
X103659523Y-164790533D01*
X103659523Y-164790533D02*
X103611904Y-164933390D01*
X103611904Y-164933390D02*
X103040476Y-165504819D01*
X103040476Y-165504819D02*
X103659523Y-165504819D01*
X139838095Y-117904819D02*
X140409523Y-117904819D01*
X140123809Y-118904819D02*
X140123809Y-117904819D01*
X140742857Y-118904819D02*
X140742857Y-117904819D01*
X140742857Y-117904819D02*
X141123809Y-117904819D01*
X141123809Y-117904819D02*
X141219047Y-117952438D01*
X141219047Y-117952438D02*
X141266666Y-118000057D01*
X141266666Y-118000057D02*
X141314285Y-118095295D01*
X141314285Y-118095295D02*
X141314285Y-118238152D01*
X141314285Y-118238152D02*
X141266666Y-118333390D01*
X141266666Y-118333390D02*
X141219047Y-118381009D01*
X141219047Y-118381009D02*
X141123809Y-118428628D01*
X141123809Y-118428628D02*
X140742857Y-118428628D01*
X141647619Y-117904819D02*
X142314285Y-117904819D01*
X142314285Y-117904819D02*
X141885714Y-118904819D01*
X133259405Y-114844819D02*
X133259405Y-113844819D01*
X133259405Y-113844819D02*
X133497500Y-113844819D01*
X133497500Y-113844819D02*
X133640357Y-113892438D01*
X133640357Y-113892438D02*
X133735595Y-113987676D01*
X133735595Y-113987676D02*
X133783214Y-114082914D01*
X133783214Y-114082914D02*
X133830833Y-114273390D01*
X133830833Y-114273390D02*
X133830833Y-114416247D01*
X133830833Y-114416247D02*
X133783214Y-114606723D01*
X133783214Y-114606723D02*
X133735595Y-114701961D01*
X133735595Y-114701961D02*
X133640357Y-114797200D01*
X133640357Y-114797200D02*
X133497500Y-114844819D01*
X133497500Y-114844819D02*
X133259405Y-114844819D01*
X134211786Y-113940057D02*
X134259405Y-113892438D01*
X134259405Y-113892438D02*
X134354643Y-113844819D01*
X134354643Y-113844819D02*
X134592738Y-113844819D01*
X134592738Y-113844819D02*
X134687976Y-113892438D01*
X134687976Y-113892438D02*
X134735595Y-113940057D01*
X134735595Y-113940057D02*
X134783214Y-114035295D01*
X134783214Y-114035295D02*
X134783214Y-114130533D01*
X134783214Y-114130533D02*
X134735595Y-114273390D01*
X134735595Y-114273390D02*
X134164167Y-114844819D01*
X134164167Y-114844819D02*
X134783214Y-114844819D01*
X112166666Y-142254819D02*
X112166666Y-142969104D01*
X112166666Y-142969104D02*
X112119047Y-143111961D01*
X112119047Y-143111961D02*
X112023809Y-143207200D01*
X112023809Y-143207200D02*
X111880952Y-143254819D01*
X111880952Y-143254819D02*
X111785714Y-143254819D01*
X112642857Y-143254819D02*
X112642857Y-142254819D01*
X112642857Y-142254819D02*
X113023809Y-142254819D01*
X113023809Y-142254819D02*
X113119047Y-142302438D01*
X113119047Y-142302438D02*
X113166666Y-142350057D01*
X113166666Y-142350057D02*
X113214285Y-142445295D01*
X113214285Y-142445295D02*
X113214285Y-142588152D01*
X113214285Y-142588152D02*
X113166666Y-142683390D01*
X113166666Y-142683390D02*
X113119047Y-142731009D01*
X113119047Y-142731009D02*
X113023809Y-142778628D01*
X113023809Y-142778628D02*
X112642857Y-142778628D01*
X114071428Y-142254819D02*
X113880952Y-142254819D01*
X113880952Y-142254819D02*
X113785714Y-142302438D01*
X113785714Y-142302438D02*
X113738095Y-142350057D01*
X113738095Y-142350057D02*
X113642857Y-142492914D01*
X113642857Y-142492914D02*
X113595238Y-142683390D01*
X113595238Y-142683390D02*
X113595238Y-143064342D01*
X113595238Y-143064342D02*
X113642857Y-143159580D01*
X113642857Y-143159580D02*
X113690476Y-143207200D01*
X113690476Y-143207200D02*
X113785714Y-143254819D01*
X113785714Y-143254819D02*
X113976190Y-143254819D01*
X113976190Y-143254819D02*
X114071428Y-143207200D01*
X114071428Y-143207200D02*
X114119047Y-143159580D01*
X114119047Y-143159580D02*
X114166666Y-143064342D01*
X114166666Y-143064342D02*
X114166666Y-142826247D01*
X114166666Y-142826247D02*
X114119047Y-142731009D01*
X114119047Y-142731009D02*
X114071428Y-142683390D01*
X114071428Y-142683390D02*
X113976190Y-142635771D01*
X113976190Y-142635771D02*
X113785714Y-142635771D01*
X113785714Y-142635771D02*
X113690476Y-142683390D01*
X113690476Y-142683390D02*
X113642857Y-142731009D01*
X113642857Y-142731009D02*
X113595238Y-142826247D01*
X138566666Y-121804819D02*
X138566666Y-122519104D01*
X138566666Y-122519104D02*
X138519047Y-122661961D01*
X138519047Y-122661961D02*
X138423809Y-122757200D01*
X138423809Y-122757200D02*
X138280952Y-122804819D01*
X138280952Y-122804819D02*
X138185714Y-122804819D01*
X139042857Y-122804819D02*
X139042857Y-121804819D01*
X139042857Y-121804819D02*
X139423809Y-121804819D01*
X139423809Y-121804819D02*
X139519047Y-121852438D01*
X139519047Y-121852438D02*
X139566666Y-121900057D01*
X139566666Y-121900057D02*
X139614285Y-121995295D01*
X139614285Y-121995295D02*
X139614285Y-122138152D01*
X139614285Y-122138152D02*
X139566666Y-122233390D01*
X139566666Y-122233390D02*
X139519047Y-122281009D01*
X139519047Y-122281009D02*
X139423809Y-122328628D01*
X139423809Y-122328628D02*
X139042857Y-122328628D01*
X140519047Y-121804819D02*
X140042857Y-121804819D01*
X140042857Y-121804819D02*
X139995238Y-122281009D01*
X139995238Y-122281009D02*
X140042857Y-122233390D01*
X140042857Y-122233390D02*
X140138095Y-122185771D01*
X140138095Y-122185771D02*
X140376190Y-122185771D01*
X140376190Y-122185771D02*
X140471428Y-122233390D01*
X140471428Y-122233390D02*
X140519047Y-122281009D01*
X140519047Y-122281009D02*
X140566666Y-122376247D01*
X140566666Y-122376247D02*
X140566666Y-122614342D01*
X140566666Y-122614342D02*
X140519047Y-122709580D01*
X140519047Y-122709580D02*
X140471428Y-122757200D01*
X140471428Y-122757200D02*
X140376190Y-122804819D01*
X140376190Y-122804819D02*
X140138095Y-122804819D01*
X140138095Y-122804819D02*
X140042857Y-122757200D01*
X140042857Y-122757200D02*
X139995238Y-122709580D01*
X121088095Y-118804819D02*
X121088095Y-119614342D01*
X121088095Y-119614342D02*
X121135714Y-119709580D01*
X121135714Y-119709580D02*
X121183333Y-119757200D01*
X121183333Y-119757200D02*
X121278571Y-119804819D01*
X121278571Y-119804819D02*
X121469047Y-119804819D01*
X121469047Y-119804819D02*
X121564285Y-119757200D01*
X121564285Y-119757200D02*
X121611904Y-119709580D01*
X121611904Y-119709580D02*
X121659523Y-119614342D01*
X121659523Y-119614342D02*
X121659523Y-118804819D01*
X122040476Y-118804819D02*
X122659523Y-118804819D01*
X122659523Y-118804819D02*
X122326190Y-119185771D01*
X122326190Y-119185771D02*
X122469047Y-119185771D01*
X122469047Y-119185771D02*
X122564285Y-119233390D01*
X122564285Y-119233390D02*
X122611904Y-119281009D01*
X122611904Y-119281009D02*
X122659523Y-119376247D01*
X122659523Y-119376247D02*
X122659523Y-119614342D01*
X122659523Y-119614342D02*
X122611904Y-119709580D01*
X122611904Y-119709580D02*
X122564285Y-119757200D01*
X122564285Y-119757200D02*
X122469047Y-119804819D01*
X122469047Y-119804819D02*
X122183333Y-119804819D01*
X122183333Y-119804819D02*
X122088095Y-119757200D01*
X122088095Y-119757200D02*
X122040476Y-119709580D01*
X115161905Y-113304819D02*
X115161905Y-112304819D01*
X115161905Y-112304819D02*
X115400000Y-112304819D01*
X115400000Y-112304819D02*
X115542857Y-112352438D01*
X115542857Y-112352438D02*
X115638095Y-112447676D01*
X115638095Y-112447676D02*
X115685714Y-112542914D01*
X115685714Y-112542914D02*
X115733333Y-112733390D01*
X115733333Y-112733390D02*
X115733333Y-112876247D01*
X115733333Y-112876247D02*
X115685714Y-113066723D01*
X115685714Y-113066723D02*
X115638095Y-113161961D01*
X115638095Y-113161961D02*
X115542857Y-113257200D01*
X115542857Y-113257200D02*
X115400000Y-113304819D01*
X115400000Y-113304819D02*
X115161905Y-113304819D01*
X116685714Y-113304819D02*
X116114286Y-113304819D01*
X116400000Y-113304819D02*
X116400000Y-112304819D01*
X116400000Y-112304819D02*
X116304762Y-112447676D01*
X116304762Y-112447676D02*
X116209524Y-112542914D01*
X116209524Y-112542914D02*
X116114286Y-112590533D01*
X139478095Y-128004819D02*
X140049523Y-128004819D01*
X139763809Y-129004819D02*
X139763809Y-128004819D01*
X140382857Y-129004819D02*
X140382857Y-128004819D01*
X140382857Y-128004819D02*
X140763809Y-128004819D01*
X140763809Y-128004819D02*
X140859047Y-128052438D01*
X140859047Y-128052438D02*
X140906666Y-128100057D01*
X140906666Y-128100057D02*
X140954285Y-128195295D01*
X140954285Y-128195295D02*
X140954285Y-128338152D01*
X140954285Y-128338152D02*
X140906666Y-128433390D01*
X140906666Y-128433390D02*
X140859047Y-128481009D01*
X140859047Y-128481009D02*
X140763809Y-128528628D01*
X140763809Y-128528628D02*
X140382857Y-128528628D01*
X141811428Y-128004819D02*
X141620952Y-128004819D01*
X141620952Y-128004819D02*
X141525714Y-128052438D01*
X141525714Y-128052438D02*
X141478095Y-128100057D01*
X141478095Y-128100057D02*
X141382857Y-128242914D01*
X141382857Y-128242914D02*
X141335238Y-128433390D01*
X141335238Y-128433390D02*
X141335238Y-128814342D01*
X141335238Y-128814342D02*
X141382857Y-128909580D01*
X141382857Y-128909580D02*
X141430476Y-128957200D01*
X141430476Y-128957200D02*
X141525714Y-129004819D01*
X141525714Y-129004819D02*
X141716190Y-129004819D01*
X141716190Y-129004819D02*
X141811428Y-128957200D01*
X141811428Y-128957200D02*
X141859047Y-128909580D01*
X141859047Y-128909580D02*
X141906666Y-128814342D01*
X141906666Y-128814342D02*
X141906666Y-128576247D01*
X141906666Y-128576247D02*
X141859047Y-128481009D01*
X141859047Y-128481009D02*
X141811428Y-128433390D01*
X141811428Y-128433390D02*
X141716190Y-128385771D01*
X141716190Y-128385771D02*
X141525714Y-128385771D01*
X141525714Y-128385771D02*
X141430476Y-128433390D01*
X141430476Y-128433390D02*
X141382857Y-128481009D01*
X141382857Y-128481009D02*
X141335238Y-128576247D01*
X127023809Y-130228628D02*
X127023809Y-130704819D01*
X126690476Y-129704819D02*
X127023809Y-130228628D01*
X127023809Y-130228628D02*
X127357142Y-129704819D01*
X128214285Y-130704819D02*
X127642857Y-130704819D01*
X127928571Y-130704819D02*
X127928571Y-129704819D01*
X127928571Y-129704819D02*
X127833333Y-129847676D01*
X127833333Y-129847676D02*
X127738095Y-129942914D01*
X127738095Y-129942914D02*
X127642857Y-129990533D01*
X118641905Y-161242319D02*
X118641905Y-160242319D01*
X118641905Y-160242319D02*
X118880000Y-160242319D01*
X118880000Y-160242319D02*
X119022857Y-160289938D01*
X119022857Y-160289938D02*
X119118095Y-160385176D01*
X119118095Y-160385176D02*
X119165714Y-160480414D01*
X119165714Y-160480414D02*
X119213333Y-160670890D01*
X119213333Y-160670890D02*
X119213333Y-160813747D01*
X119213333Y-160813747D02*
X119165714Y-161004223D01*
X119165714Y-161004223D02*
X119118095Y-161099461D01*
X119118095Y-161099461D02*
X119022857Y-161194700D01*
X119022857Y-161194700D02*
X118880000Y-161242319D01*
X118880000Y-161242319D02*
X118641905Y-161242319D01*
X120118095Y-160242319D02*
X119641905Y-160242319D01*
X119641905Y-160242319D02*
X119594286Y-160718509D01*
X119594286Y-160718509D02*
X119641905Y-160670890D01*
X119641905Y-160670890D02*
X119737143Y-160623271D01*
X119737143Y-160623271D02*
X119975238Y-160623271D01*
X119975238Y-160623271D02*
X120070476Y-160670890D01*
X120070476Y-160670890D02*
X120118095Y-160718509D01*
X120118095Y-160718509D02*
X120165714Y-160813747D01*
X120165714Y-160813747D02*
X120165714Y-161051842D01*
X120165714Y-161051842D02*
X120118095Y-161147080D01*
X120118095Y-161147080D02*
X120070476Y-161194700D01*
X120070476Y-161194700D02*
X119975238Y-161242319D01*
X119975238Y-161242319D02*
X119737143Y-161242319D01*
X119737143Y-161242319D02*
X119641905Y-161194700D01*
X119641905Y-161194700D02*
X119594286Y-161147080D01*
X107097025Y-134995891D02*
X107668453Y-134995891D01*
X107382739Y-135995891D02*
X107382739Y-134995891D01*
X108001787Y-135995891D02*
X108001787Y-134995891D01*
X108001787Y-134995891D02*
X108382739Y-134995891D01*
X108382739Y-134995891D02*
X108477977Y-135043510D01*
X108477977Y-135043510D02*
X108525596Y-135091129D01*
X108525596Y-135091129D02*
X108573215Y-135186367D01*
X108573215Y-135186367D02*
X108573215Y-135329224D01*
X108573215Y-135329224D02*
X108525596Y-135424462D01*
X108525596Y-135424462D02*
X108477977Y-135472081D01*
X108477977Y-135472081D02*
X108382739Y-135519700D01*
X108382739Y-135519700D02*
X108001787Y-135519700D01*
X109430358Y-135329224D02*
X109430358Y-135995891D01*
X109192263Y-134948272D02*
X108954168Y-135662557D01*
X108954168Y-135662557D02*
X109573215Y-135662557D01*
X128616666Y-121754819D02*
X128616666Y-122469104D01*
X128616666Y-122469104D02*
X128569047Y-122611961D01*
X128569047Y-122611961D02*
X128473809Y-122707200D01*
X128473809Y-122707200D02*
X128330952Y-122754819D01*
X128330952Y-122754819D02*
X128235714Y-122754819D01*
X129092857Y-122754819D02*
X129092857Y-121754819D01*
X129092857Y-121754819D02*
X129473809Y-121754819D01*
X129473809Y-121754819D02*
X129569047Y-121802438D01*
X129569047Y-121802438D02*
X129616666Y-121850057D01*
X129616666Y-121850057D02*
X129664285Y-121945295D01*
X129664285Y-121945295D02*
X129664285Y-122088152D01*
X129664285Y-122088152D02*
X129616666Y-122183390D01*
X129616666Y-122183390D02*
X129569047Y-122231009D01*
X129569047Y-122231009D02*
X129473809Y-122278628D01*
X129473809Y-122278628D02*
X129092857Y-122278628D01*
X129997619Y-121754819D02*
X130664285Y-121754819D01*
X130664285Y-121754819D02*
X130235714Y-122754819D01*
X135491666Y-159604819D02*
X135491666Y-160319104D01*
X135491666Y-160319104D02*
X135444047Y-160461961D01*
X135444047Y-160461961D02*
X135348809Y-160557200D01*
X135348809Y-160557200D02*
X135205952Y-160604819D01*
X135205952Y-160604819D02*
X135110714Y-160604819D01*
X136491666Y-160604819D02*
X135920238Y-160604819D01*
X136205952Y-160604819D02*
X136205952Y-159604819D01*
X136205952Y-159604819D02*
X136110714Y-159747676D01*
X136110714Y-159747676D02*
X136015476Y-159842914D01*
X136015476Y-159842914D02*
X135920238Y-159890533D01*
X111788095Y-137754819D02*
X111788095Y-138564342D01*
X111788095Y-138564342D02*
X111835714Y-138659580D01*
X111835714Y-138659580D02*
X111883333Y-138707200D01*
X111883333Y-138707200D02*
X111978571Y-138754819D01*
X111978571Y-138754819D02*
X112169047Y-138754819D01*
X112169047Y-138754819D02*
X112264285Y-138707200D01*
X112264285Y-138707200D02*
X112311904Y-138659580D01*
X112311904Y-138659580D02*
X112359523Y-138564342D01*
X112359523Y-138564342D02*
X112359523Y-137754819D01*
X112788095Y-137850057D02*
X112835714Y-137802438D01*
X112835714Y-137802438D02*
X112930952Y-137754819D01*
X112930952Y-137754819D02*
X113169047Y-137754819D01*
X113169047Y-137754819D02*
X113264285Y-137802438D01*
X113264285Y-137802438D02*
X113311904Y-137850057D01*
X113311904Y-137850057D02*
X113359523Y-137945295D01*
X113359523Y-137945295D02*
X113359523Y-138040533D01*
X113359523Y-138040533D02*
X113311904Y-138183390D01*
X113311904Y-138183390D02*
X112740476Y-138754819D01*
X112740476Y-138754819D02*
X113359523Y-138754819D01*
X120288095Y-130904819D02*
X120288095Y-131714342D01*
X120288095Y-131714342D02*
X120335714Y-131809580D01*
X120335714Y-131809580D02*
X120383333Y-131857200D01*
X120383333Y-131857200D02*
X120478571Y-131904819D01*
X120478571Y-131904819D02*
X120669047Y-131904819D01*
X120669047Y-131904819D02*
X120764285Y-131857200D01*
X120764285Y-131857200D02*
X120811904Y-131809580D01*
X120811904Y-131809580D02*
X120859523Y-131714342D01*
X120859523Y-131714342D02*
X120859523Y-130904819D01*
X121859523Y-131904819D02*
X121288095Y-131904819D01*
X121573809Y-131904819D02*
X121573809Y-130904819D01*
X121573809Y-130904819D02*
X121478571Y-131047676D01*
X121478571Y-131047676D02*
X121383333Y-131142914D01*
X121383333Y-131142914D02*
X121288095Y-131190533D01*
X148948095Y-106504819D02*
X148948095Y-105504819D01*
X148948095Y-105981009D02*
X149519523Y-105981009D01*
X149519523Y-106504819D02*
X149519523Y-105504819D01*
X149900476Y-105504819D02*
X150519523Y-105504819D01*
X150519523Y-105504819D02*
X150186190Y-105885771D01*
X150186190Y-105885771D02*
X150329047Y-105885771D01*
X150329047Y-105885771D02*
X150424285Y-105933390D01*
X150424285Y-105933390D02*
X150471904Y-105981009D01*
X150471904Y-105981009D02*
X150519523Y-106076247D01*
X150519523Y-106076247D02*
X150519523Y-106314342D01*
X150519523Y-106314342D02*
X150471904Y-106409580D01*
X150471904Y-106409580D02*
X150424285Y-106457200D01*
X150424285Y-106457200D02*
X150329047Y-106504819D01*
X150329047Y-106504819D02*
X150043333Y-106504819D01*
X150043333Y-106504819D02*
X149948095Y-106457200D01*
X149948095Y-106457200D02*
X149900476Y-106409580D01*
X148948095Y-165504819D02*
X148948095Y-164504819D01*
X148948095Y-164981009D02*
X149519523Y-164981009D01*
X149519523Y-165504819D02*
X149519523Y-164504819D01*
X150519523Y-165504819D02*
X149948095Y-165504819D01*
X150233809Y-165504819D02*
X150233809Y-164504819D01*
X150233809Y-164504819D02*
X150138571Y-164647676D01*
X150138571Y-164647676D02*
X150043333Y-164742914D01*
X150043333Y-164742914D02*
X149948095Y-164790533D01*
X147416666Y-107404819D02*
X147416666Y-108119104D01*
X147416666Y-108119104D02*
X147369047Y-108261961D01*
X147369047Y-108261961D02*
X147273809Y-108357200D01*
X147273809Y-108357200D02*
X147130952Y-108404819D01*
X147130952Y-108404819D02*
X147035714Y-108404819D01*
X147797619Y-107404819D02*
X148416666Y-107404819D01*
X148416666Y-107404819D02*
X148083333Y-107785771D01*
X148083333Y-107785771D02*
X148226190Y-107785771D01*
X148226190Y-107785771D02*
X148321428Y-107833390D01*
X148321428Y-107833390D02*
X148369047Y-107881009D01*
X148369047Y-107881009D02*
X148416666Y-107976247D01*
X148416666Y-107976247D02*
X148416666Y-108214342D01*
X148416666Y-108214342D02*
X148369047Y-108309580D01*
X148369047Y-108309580D02*
X148321428Y-108357200D01*
X148321428Y-108357200D02*
X148226190Y-108404819D01*
X148226190Y-108404819D02*
X147940476Y-108404819D01*
X147940476Y-108404819D02*
X147845238Y-108357200D01*
X147845238Y-108357200D02*
X147797619Y-108309580D01*
X107066666Y-113904819D02*
X107066666Y-114619104D01*
X107066666Y-114619104D02*
X107019047Y-114761961D01*
X107019047Y-114761961D02*
X106923809Y-114857200D01*
X106923809Y-114857200D02*
X106780952Y-114904819D01*
X106780952Y-114904819D02*
X106685714Y-114904819D01*
X107542857Y-114904819D02*
X107542857Y-113904819D01*
X107542857Y-113904819D02*
X107923809Y-113904819D01*
X107923809Y-113904819D02*
X108019047Y-113952438D01*
X108019047Y-113952438D02*
X108066666Y-114000057D01*
X108066666Y-114000057D02*
X108114285Y-114095295D01*
X108114285Y-114095295D02*
X108114285Y-114238152D01*
X108114285Y-114238152D02*
X108066666Y-114333390D01*
X108066666Y-114333390D02*
X108019047Y-114381009D01*
X108019047Y-114381009D02*
X107923809Y-114428628D01*
X107923809Y-114428628D02*
X107542857Y-114428628D01*
X108495238Y-114000057D02*
X108542857Y-113952438D01*
X108542857Y-113952438D02*
X108638095Y-113904819D01*
X108638095Y-113904819D02*
X108876190Y-113904819D01*
X108876190Y-113904819D02*
X108971428Y-113952438D01*
X108971428Y-113952438D02*
X109019047Y-114000057D01*
X109019047Y-114000057D02*
X109066666Y-114095295D01*
X109066666Y-114095295D02*
X109066666Y-114190533D01*
X109066666Y-114190533D02*
X109019047Y-114333390D01*
X109019047Y-114333390D02*
X108447619Y-114904819D01*
X108447619Y-114904819D02*
X109066666Y-114904819D01*
D12*
%TO.C,J4*%
X100420000Y-153030000D02*
X100420000Y-107200000D01*
X103180000Y-107200000D02*
X100420000Y-107200000D01*
X103180000Y-153030000D02*
X100420000Y-153030000D01*
X103180000Y-153030000D02*
X103180000Y-107200000D01*
X103180000Y-154300000D02*
X103180000Y-155680000D01*
X103180000Y-155680000D02*
X101800000Y-155680000D01*
%TO.C,C6*%
X117107836Y-128040000D02*
X116892164Y-128040000D01*
X117107836Y-128760000D02*
X116892164Y-128760000D01*
%TO.C,C37*%
X121092164Y-117740000D02*
X121307836Y-117740000D01*
X121092164Y-118460000D02*
X121307836Y-118460000D01*
%TO.C,C18*%
X116265000Y-157388748D02*
X116265000Y-157911252D01*
X117735000Y-157388748D02*
X117735000Y-157911252D01*
%TO.C,C5*%
X115807836Y-125540000D02*
X115592164Y-125540000D01*
X115807836Y-126260000D02*
X115592164Y-126260000D01*
%TO.C,R6*%
X115936359Y-134785000D02*
X116243641Y-134785000D01*
X115936359Y-135545000D02*
X116243641Y-135545000D01*
%TO.C,U5*%
X113640000Y-149490000D02*
X114900000Y-149490000D01*
X113640000Y-153250000D02*
X113640000Y-149490000D01*
X120460000Y-149490000D02*
X119200000Y-149490000D01*
X120460000Y-153250000D02*
X120460000Y-149490000D01*
X113740000Y-154530000D02*
X113410000Y-154770000D01*
X113410000Y-154290000D01*
X113740000Y-154530000D01*
G36*
X113740000Y-154530000D02*
G01*
X113410000Y-154770000D01*
X113410000Y-154290000D01*
X113740000Y-154530000D01*
G37*
%TO.C,D3*%
X136102500Y-139485000D02*
X138387500Y-139485000D01*
X138387500Y-138015000D02*
X136102500Y-138015000D01*
X138387500Y-139485000D02*
X138387500Y-138015000D01*
%TO.C,U6*%
X132627500Y-148870000D02*
X138147500Y-148870000D01*
X132627500Y-149140000D02*
X132627500Y-148870000D01*
X132627500Y-154390000D02*
X132627500Y-154120000D01*
X138147500Y-148870000D02*
X138147500Y-149140000D01*
X138147500Y-154120000D02*
X138147500Y-154390000D01*
X138147500Y-154390000D02*
X132627500Y-154390000D01*
X139317500Y-154600000D02*
X138637500Y-154600000D01*
X138977500Y-154130000D01*
X139317500Y-154600000D01*
G36*
X139317500Y-154600000D02*
G01*
X138637500Y-154600000D01*
X138977500Y-154130000D01*
X139317500Y-154600000D01*
G37*
%TO.C,R27*%
X133503641Y-119960000D02*
X133196359Y-119960000D01*
X133503641Y-120720000D02*
X133196359Y-120720000D01*
%TO.C,C27*%
X127315000Y-150767164D02*
X127315000Y-150982836D01*
X128035000Y-150767164D02*
X128035000Y-150982836D01*
%TO.C,R14*%
X134306359Y-123760000D02*
X134613641Y-123760000D01*
X134306359Y-124520000D02*
X134613641Y-124520000D01*
%TO.C,R15*%
X137780000Y-119386359D02*
X137780000Y-119693641D01*
X138540000Y-119386359D02*
X138540000Y-119693641D01*
%TO.C,C31*%
X122282836Y-147140000D02*
X122067164Y-147140000D01*
X122282836Y-147860000D02*
X122067164Y-147860000D01*
%TO.C,U7*%
X123752500Y-140415000D02*
X123752500Y-141065000D01*
X123752500Y-147635000D02*
X123752500Y-146985000D01*
X124402500Y-140415000D02*
X123752500Y-140415000D01*
X124402500Y-147635000D02*
X123752500Y-147635000D01*
X130322500Y-140415000D02*
X130972500Y-140415000D01*
X130322500Y-147635000D02*
X130972500Y-147635000D01*
X130972500Y-140415000D02*
X130972500Y-141065000D01*
%TO.C,R26*%
X110527064Y-121665000D02*
X110072936Y-121665000D01*
X110527064Y-123135000D02*
X110072936Y-123135000D01*
%TO.C,R22*%
X127643641Y-156695000D02*
X127336359Y-156695000D01*
X127643641Y-157455000D02*
X127336359Y-157455000D01*
%TO.C,D4*%
X139387500Y-136285000D02*
X141672500Y-136285000D01*
X141672500Y-134815000D02*
X139387500Y-134815000D01*
X141672500Y-136285000D02*
X141672500Y-134815000D01*
%TO.C,TP1*%
X119300000Y-144250000D02*
G75*
G02*
X116900000Y-144250000I-1200000J0D01*
G01*
X116900000Y-144250000D02*
G75*
G02*
X119300000Y-144250000I1200000J0D01*
G01*
%TO.C,C25*%
X122715000Y-149142164D02*
X122715000Y-149357836D01*
X123435000Y-149142164D02*
X123435000Y-149357836D01*
%TO.C,C26*%
X129640000Y-153157836D02*
X129640000Y-152942164D01*
X130360000Y-153157836D02*
X130360000Y-152942164D01*
%TO.C,C15*%
X128492164Y-134990000D02*
X128707836Y-134990000D01*
X128492164Y-135710000D02*
X128707836Y-135710000D01*
%TO.C,R16*%
X136846359Y-154870000D02*
X137153641Y-154870000D01*
X136846359Y-155630000D02*
X137153641Y-155630000D01*
%TO.C,C8*%
X114307836Y-128040000D02*
X114092164Y-128040000D01*
X114307836Y-128760000D02*
X114092164Y-128760000D01*
%TO.C,C30*%
X119840000Y-141642164D02*
X119840000Y-141857836D01*
X120560000Y-141642164D02*
X120560000Y-141857836D01*
%TO.C,C20*%
X111340000Y-120407836D02*
X111340000Y-120192164D01*
X112060000Y-120407836D02*
X112060000Y-120192164D01*
%TO.C,C17*%
X121065000Y-154311252D02*
X121065000Y-153788748D01*
X122535000Y-154311252D02*
X122535000Y-153788748D01*
%TO.C,R4*%
X115853641Y-126820000D02*
X115546359Y-126820000D01*
X115853641Y-127580000D02*
X115546359Y-127580000D01*
%TO.C,R5*%
X118453641Y-134785000D02*
X118146359Y-134785000D01*
X118453641Y-135545000D02*
X118146359Y-135545000D01*
%TO.C,TP2*%
X122600000Y-122000000D02*
G75*
G02*
X120200000Y-122000000I-1200000J0D01*
G01*
X120200000Y-122000000D02*
G75*
G02*
X122600000Y-122000000I1200000J0D01*
G01*
%TO.C,J2*%
X121610000Y-162375000D02*
X121610000Y-160675000D01*
X130950000Y-162375000D02*
X130950000Y-160675000D01*
%TO.C,R29*%
X110072936Y-117465000D02*
X110527064Y-117465000D01*
X110072936Y-118935000D02*
X110527064Y-118935000D01*
%TO.C,R13*%
X132480000Y-118593641D02*
X132480000Y-118286359D01*
X133240000Y-118593641D02*
X133240000Y-118286359D01*
%TO.C,TP5*%
X131935000Y-115940000D02*
G75*
G02*
X129535000Y-115940000I-1200000J0D01*
G01*
X129535000Y-115940000D02*
G75*
G02*
X131935000Y-115940000I1200000J0D01*
G01*
%TO.C,JP8*%
X133200000Y-129150000D02*
X136000000Y-129150000D01*
X133200000Y-131150000D02*
X133200000Y-129150000D01*
X136000000Y-129150000D02*
X136000000Y-131150000D01*
X136000000Y-131150000D02*
X133200000Y-131150000D01*
%TO.C,C34*%
X114027836Y-134840000D02*
X113812164Y-134840000D01*
X114027836Y-135560000D02*
X113812164Y-135560000D01*
%TO.C,TP7*%
X142300000Y-116000000D02*
G75*
G02*
X139900000Y-116000000I-1200000J0D01*
G01*
X139900000Y-116000000D02*
G75*
G02*
X142300000Y-116000000I1200000J0D01*
G01*
%TO.C,D2*%
X132312500Y-115080000D02*
X132312500Y-117000000D01*
X132312500Y-117000000D02*
X134997500Y-117000000D01*
X134997500Y-115080000D02*
X132312500Y-115080000D01*
%TO.C,JP6*%
X111400000Y-139800000D02*
X114200000Y-139800000D01*
X111400000Y-141800000D02*
X111400000Y-139800000D01*
X114200000Y-139800000D02*
X114200000Y-141800000D01*
X114200000Y-141800000D02*
X111400000Y-141800000D01*
%TO.C,JP5*%
X134860000Y-121240000D02*
X137660000Y-121240000D01*
X134860000Y-123240000D02*
X134860000Y-121240000D01*
X137660000Y-121240000D02*
X137660000Y-123240000D01*
X137660000Y-123240000D02*
X134860000Y-123240000D01*
%TO.C,C3*%
X117892164Y-124240000D02*
X118107836Y-124240000D01*
X117892164Y-124960000D02*
X118107836Y-124960000D01*
%TO.C,U3*%
X113965000Y-118540000D02*
X118085000Y-118540000D01*
X113965000Y-118635000D02*
X113965000Y-118540000D01*
X113965000Y-123660000D02*
X113965000Y-123565000D01*
X118085000Y-118540000D02*
X118085000Y-118635000D01*
X118085000Y-123565000D02*
X118085000Y-123660000D01*
X118085000Y-123660000D02*
X113965000Y-123660000D01*
X113425000Y-118630000D02*
X113185000Y-118300000D01*
X113665000Y-118300000D01*
X113425000Y-118630000D01*
G36*
X113425000Y-118630000D02*
G01*
X113185000Y-118300000D01*
X113665000Y-118300000D01*
X113425000Y-118630000D01*
G37*
%TO.C,D1*%
X113700000Y-113700000D02*
X113700000Y-114590000D01*
X113700000Y-117300000D02*
X113700000Y-118100000D01*
X113700000Y-118100000D02*
X118500000Y-118100000D01*
X118500000Y-113700000D02*
X113700000Y-113700000D01*
X118500000Y-114590000D02*
X118500000Y-113700000D01*
X118500000Y-118100000D02*
X118500000Y-117300000D01*
X118510000Y-117300000D02*
X119690000Y-117300000D01*
X119690000Y-114590000D02*
X118500000Y-114590000D01*
%TO.C,R31*%
X121826359Y-156695000D02*
X122133641Y-156695000D01*
X121826359Y-157455000D02*
X122133641Y-157455000D01*
%TO.C,C22*%
X128340000Y-150742164D02*
X128340000Y-150957836D01*
X129060000Y-150742164D02*
X129060000Y-150957836D01*
%TO.C,R2*%
X118153641Y-126820000D02*
X117846359Y-126820000D01*
X118153641Y-127580000D02*
X117846359Y-127580000D01*
%TO.C,C19*%
X121707836Y-148190000D02*
X121492164Y-148190000D01*
X121707836Y-148910000D02*
X121492164Y-148910000D01*
%TO.C,R1*%
X117846359Y-125520000D02*
X118153641Y-125520000D01*
X117846359Y-126280000D02*
X118153641Y-126280000D01*
%TO.C,C36*%
X120395000Y-113582500D02*
X120395000Y-116477500D01*
X122005000Y-113582500D02*
X120395000Y-113582500D01*
X122005000Y-116477500D02*
X122005000Y-113582500D01*
%TO.C,R23*%
X110527064Y-125865000D02*
X110072936Y-125865000D01*
X110527064Y-127335000D02*
X110072936Y-127335000D01*
%TO.C,TP6*%
X140200000Y-126340000D02*
G75*
G02*
X137800000Y-126340000I-1200000J0D01*
G01*
X137800000Y-126340000D02*
G75*
G02*
X140200000Y-126340000I1200000J0D01*
G01*
%TO.C,Y1*%
X129560000Y-131190000D02*
X125440000Y-131190000D01*
X129560000Y-134610000D02*
X129560000Y-131190000D01*
%TO.C,D5*%
X118645000Y-157275000D02*
X118645000Y-159560000D01*
X118645000Y-159560000D02*
X120115000Y-159560000D01*
X120115000Y-159560000D02*
X120115000Y-157275000D01*
%TO.C,R19*%
X126195000Y-150003641D02*
X126195000Y-149696359D01*
X126955000Y-150003641D02*
X126955000Y-149696359D01*
%TO.C,R30*%
X139753641Y-136570000D02*
X139446359Y-136570000D01*
X139753641Y-137330000D02*
X139446359Y-137330000D01*
%TO.C,C4*%
X116392164Y-139840000D02*
X116607836Y-139840000D01*
X116392164Y-140560000D02*
X116607836Y-140560000D01*
%TO.C,R18*%
X127320000Y-137983641D02*
X127320000Y-137676359D01*
X128080000Y-137983641D02*
X128080000Y-137676359D01*
%TO.C,C1*%
X114640000Y-140462164D02*
X114640000Y-140677836D01*
X115360000Y-140462164D02*
X115360000Y-140677836D01*
%TO.C,R3*%
X115546359Y-124220000D02*
X115853641Y-124220000D01*
X115546359Y-124980000D02*
X115853641Y-124980000D01*
%TO.C,R21*%
X124533641Y-156695000D02*
X124226359Y-156695000D01*
X124533641Y-157455000D02*
X124226359Y-157455000D01*
%TO.C,TP4*%
X111700000Y-134200000D02*
G75*
G02*
X109300000Y-134200000I-1200000J0D01*
G01*
X109300000Y-134200000D02*
G75*
G02*
X111700000Y-134200000I1200000J0D01*
G01*
%TO.C,R24*%
X110072936Y-127965000D02*
X110527064Y-127965000D01*
X110072936Y-129435000D02*
X110527064Y-129435000D01*
%TO.C,JP7*%
X131260000Y-121240000D02*
X134060000Y-121240000D01*
X131260000Y-123240000D02*
X131260000Y-121240000D01*
X134060000Y-121240000D02*
X134060000Y-123240000D01*
X134060000Y-123240000D02*
X131260000Y-123240000D01*
%TO.C,C14*%
X136452164Y-123780000D02*
X136667836Y-123780000D01*
X136452164Y-124500000D02*
X136667836Y-124500000D01*
%TO.C,J1*%
X132980000Y-156270000D02*
X132980000Y-159030000D01*
X135630000Y-156270000D02*
X132980000Y-156270000D01*
X135630000Y-156270000D02*
X135630000Y-159030000D01*
X135630000Y-159030000D02*
X132980000Y-159030000D01*
X136900000Y-156270000D02*
X138280000Y-156270000D01*
X138280000Y-156270000D02*
X138280000Y-157650000D01*
D11*
%TO.C,U2*%
X115025000Y-136075000D02*
X115025000Y-136300000D01*
X115025000Y-136075000D02*
X118275000Y-136075000D01*
X115025000Y-139325000D02*
X115025000Y-139100000D01*
X115025000Y-139325000D02*
X118275000Y-139325000D01*
X118275000Y-136075000D02*
X118275000Y-136300000D01*
X118275000Y-139325000D02*
X118275000Y-139100000D01*
D12*
X114550000Y-136300000D02*
X114310000Y-135970000D01*
X114790000Y-135970000D01*
X114550000Y-136300000D01*
G36*
X114550000Y-136300000D02*
G01*
X114310000Y-135970000D01*
X114790000Y-135970000D01*
X114550000Y-136300000D01*
G37*
%TO.C,C21*%
X125040000Y-137687836D02*
X125040000Y-137472164D01*
X125760000Y-137687836D02*
X125760000Y-137472164D01*
%TO.C,R25*%
X110072936Y-123765000D02*
X110527064Y-123765000D01*
X110072936Y-125235000D02*
X110527064Y-125235000D01*
%TO.C,C24*%
X132592164Y-146690000D02*
X132807836Y-146690000D01*
X132592164Y-147410000D02*
X132807836Y-147410000D01*
%TO.C,C28*%
X126140000Y-137667836D02*
X126140000Y-137452164D01*
X126860000Y-137667836D02*
X126860000Y-137452164D01*
%TO.C,U1*%
X113965000Y-129205000D02*
X118085000Y-129205000D01*
X113965000Y-129300000D02*
X113965000Y-129205000D01*
X113965000Y-134325000D02*
X113965000Y-134230000D01*
X118085000Y-129205000D02*
X118085000Y-129300000D01*
X118085000Y-134230000D02*
X118085000Y-134325000D01*
X118085000Y-134325000D02*
X113965000Y-134325000D01*
X118865000Y-134565000D02*
X118385000Y-134565000D01*
X118625000Y-134235000D01*
X118865000Y-134565000D01*
G36*
X118865000Y-134565000D02*
G01*
X118385000Y-134565000D01*
X118625000Y-134235000D01*
X118865000Y-134565000D01*
G37*
%TO.C,C33*%
X108000000Y-121105000D02*
X110895000Y-121105000D01*
X110895000Y-119495000D02*
X108000000Y-119495000D01*
X110895000Y-121105000D02*
X110895000Y-119495000D01*
%TO.C,R8*%
X113320000Y-126653641D02*
X113320000Y-126346359D01*
X114080000Y-126653641D02*
X114080000Y-126346359D01*
%TO.C,C32*%
X136338748Y-146615000D02*
X136861252Y-146615000D01*
X136338748Y-148085000D02*
X136861252Y-148085000D01*
%TO.C,C7*%
X113727836Y-124240000D02*
X113512164Y-124240000D01*
X113727836Y-124960000D02*
X113512164Y-124960000D01*
%TO.C,R17*%
X134746359Y-154870000D02*
X135053641Y-154870000D01*
X134746359Y-155630000D02*
X135053641Y-155630000D01*
%TO.C,N-MOS1*%
X134837500Y-117580000D02*
X136357500Y-117580000D01*
X134837500Y-118580000D02*
X134837500Y-117580000D01*
X134837500Y-120700000D02*
X134837500Y-119700000D01*
X136357500Y-117580000D02*
X136357500Y-117630000D01*
X136357500Y-118750000D02*
X136357500Y-119530000D01*
X136357500Y-120650000D02*
X136357500Y-120700000D01*
X136357500Y-120700000D02*
X134837500Y-120700000D01*
X136897500Y-119520000D02*
X136657500Y-119190000D01*
X137137500Y-119190000D01*
X136897500Y-119520000D01*
G36*
X136897500Y-119520000D02*
G01*
X136657500Y-119190000D01*
X137137500Y-119190000D01*
X136897500Y-119520000D01*
G37*
%TO.C,J3*%
X148990000Y-107130000D02*
X150370000Y-107130000D01*
X148990000Y-108510000D02*
X148990000Y-107130000D01*
X148990000Y-109780000D02*
X148990000Y-155610000D01*
X148990000Y-109780000D02*
X151750000Y-109780000D01*
X148990000Y-155610000D02*
X151750000Y-155610000D01*
X151750000Y-109780000D02*
X151750000Y-155610000D01*
%TO.C,C35*%
X120040000Y-133907836D02*
X120040000Y-133692164D01*
X120760000Y-133907836D02*
X120760000Y-133692164D01*
%TO.C,R28*%
X136543641Y-139770000D02*
X136236359Y-139770000D01*
X136543641Y-140530000D02*
X136236359Y-140530000D01*
%TO.C,JP2*%
X109700000Y-113950000D02*
X111700000Y-113950000D01*
X109700000Y-116750000D02*
X109700000Y-113950000D01*
X111700000Y-113950000D02*
X111700000Y-116750000D01*
X111700000Y-116750000D02*
X109700000Y-116750000D01*
%TO.C,C16*%
X126507836Y-134990000D02*
X126292164Y-134990000D01*
X126507836Y-135710000D02*
X126292164Y-135710000D01*
%TO.C,C29*%
X133192164Y-142390000D02*
X133407836Y-142390000D01*
X133192164Y-143110000D02*
X133407836Y-143110000D01*
%TO.C,C2*%
X120692164Y-138490000D02*
X120907836Y-138490000D01*
X120692164Y-139210000D02*
X120907836Y-139210000D01*
%TO.C,C23*%
X123890000Y-149192164D02*
X123890000Y-149407836D01*
X124610000Y-149192164D02*
X124610000Y-149407836D01*
%TO.C,R20*%
X125095000Y-150003641D02*
X125095000Y-149696359D01*
X125855000Y-150003641D02*
X125855000Y-149696359D01*
%TD*%
M02*
